  0
SECTION
  2
HEADER
  9
$ACADVER
  1
AC1032
  9
$ACADMAINTVER
 90
        4
  9
$DWGCODEPAGE
  3
ANSI_1252
  9
$LASTSAVEDBY
  1
ulfstahmer
  9
$REQUIREDVERSIONS
160
                 0
  9
$INSBASE
 10
0.0
 20
0.0
 30
0.0
  9
$EXTMIN
 10
0.0
 20
0.0
 30
0.0
  9
$EXTMAX
 10
205.0000000000001
 20
127.5347138538081
 30
0.0
  9
$LIMMIN
 10
0.0
 20
0.0
  9
$LIMMAX
 10
12.0
 20
9.0
  9
$ORTHOMODE
 70
     0
  9
$REGENMODE
 70
     1
  9
$FILLMODE
 70
     1
  9
$QTEXTMODE
 70
     0
  9
$MIRRTEXT
 70
     0
  9
$LTSCALE
 40
1.0
  9
$ATTMODE
 70
     1
  9
$TEXTSIZE
 40
0.2
  9
$TRACEWID
 40
0.05
  9
$TEXTSTYLE
  7
Standard
  9
$CLAYER
  8
0
  9
$CELTYPE
  6
ByLayer
  9
$CECOLOR
 62
   256
  9
$CELTSCALE
 40
1.0
  9
$DISPSILH
 70
     0
  9
$DIMSCALE
 40
1.0
  9
$DIMASZ
 40
0.18
  9
$DIMEXO
 40
0.0625
  9
$DIMDLI
 40
0.38
  9
$DIMRND
 40
0.0
  9
$DIMDLE
 40
0.0
  9
$DIMEXE
 40
0.18
  9
$DIMTP
 40
0.0
  9
$DIMTM
 40
0.0
  9
$DIMTXT
 40
0.18
  9
$DIMCEN
 40
0.09
  9
$DIMTSZ
 40
0.0
  9
$DIMTOL
 70
     0
  9
$DIMLIM
 70
     0
  9
$DIMTIH
 70
     1
  9
$DIMTOH
 70
     1
  9
$DIMSE1
 70
     0
  9
$DIMSE2
 70
     0
  9
$DIMTAD
 70
     0
  9
$DIMZIN
 70
     0
  9
$DIMBLK
  1

  9
$DIMASO
 70
     1
  9
$DIMSHO
 70
     1
  9
$DIMPOST
  1

  9
$DIMAPOST
  1

  9
$DIMALT
 70
     0
  9
$DIMALTD
 70
     2
  9
$DIMALTF
 40
25.4
  9
$DIMLFAC
 40
1.0
  9
$DIMTOFL
 70
     0
  9
$DIMTVP
 40
0.0
  9
$DIMTIX
 70
     0
  9
$DIMSOXD
 70
     0
  9
$DIMSAH
 70
     0
  9
$DIMBLK1
  1

  9
$DIMBLK2
  1

  9
$DIMSTYLE
  2
Standard
  9
$DIMCLRD
 70
     0
  9
$DIMCLRE
 70
     0
  9
$DIMCLRT
 70
     0
  9
$DIMTFAC
 40
1.0
  9
$DIMGAP
 40
0.09
  9
$DIMJUST
 70
     0
  9
$DIMSD1
 70
     0
  9
$DIMSD2
 70
     0
  9
$DIMTOLJ
 70
     1
  9
$DIMTZIN
 70
     0
  9
$DIMALTZ
 70
     0
  9
$DIMALTTZ
 70
     0
  9
$DIMUPT
 70
     0
  9
$DIMDEC
 70
     4
  9
$DIMTDEC
 70
     4
  9
$DIMALTU
 70
     2
  9
$DIMALTTD
 70
     2
  9
$DIMTXSTY
  7
Standard
  9
$DIMAUNIT
 70
     0
  9
$DIMADEC
 70
     0
  9
$DIMALTRND
 40
0.0
  9
$DIMAZIN
 70
     0
  9
$DIMDSEP
 70
    46
  9
$DIMATFIT
 70
     3
  9
$DIMFRAC
 70
     0
  9
$DIMLDRBLK
  1

  9
$DIMLUNIT
 70
     2
  9
$DIMLWD
 70
    -2
  9
$DIMLWE
 70
    -2
  9
$DIMTMOVE
 70
     0
  9
$DIMFXL
 40
1.0
  9
$DIMFXLON
 70
     0
  9
$DIMJOGANG
 40
0.7853981633974483
  9
$DIMTFILL
 70
     0
  9
$DIMTFILLCLR
 70
     0
  9
$DIMARCSYM
 70
     0
  9
$DIMLTYPE
  6

  9
$DIMLTEX1
  6

  9
$DIMLTEX2
  6

  9
$DIMTXTDIRECTION
 70
     0
  9
$LUNITS
 70
     2
  9
$LUPREC
 70
     4
  9
$SKETCHINC
 40
0.1
  9
$FILLETRAD
 40
0.0
  9
$AUNITS
 70
     0
  9
$AUPREC
 70
     0
  9
$MENU
  1
.
  9
$ELEVATION
 40
0.0
  9
$PELEVATION
 40
0.0
  9
$THICKNESS
 40
0.0
  9
$LIMCHECK
 70
     0
  9
$CHAMFERA
 40
0.0
  9
$CHAMFERB
 40
0.0
  9
$CHAMFERC
 40
0.0
  9
$CHAMFERD
 40
0.0
  9
$SKPOLY
 70
     0
  9
$TDCREATE
 40
2452642.855050937
  9
$TDUCREATE
 40
2452643.063384271
  9
$TDUPDATE
 40
2458785.852231273
  9
$TDUUPDATE
 40
2458786.060564606
  9
$TDINDWG
 40
0.0000001389
  9
$TDUSRTIMER
 40
0.0022929977
  9
$USRTIMER
 70
     1
  9
$ANGBASE
 50
0.0
  9
$ANGDIR
 70
     0
  9
$PDMODE
 70
     0
  9
$PDSIZE
 40
0.0
  9
$PLINEWID
 40
0.0
  9
$SPLFRAME
 70
     0
  9
$SPLINETYPE
 70
     6
  9
$SPLINESEGS
 70
     8
  9
$HANDSEED
  5
4FE
  9
$SURFTAB1
 70
     6
  9
$SURFTAB2
 70
     6
  9
$SURFTYPE
 70
     6
  9
$SURFU
 70
     6
  9
$SURFV
 70
     6
  9
$UCSBASE
  2

  9
$UCSNAME
  2

  9
$UCSORG
 10
0.0
 20
0.0
 30
0.0
  9
$UCSXDIR
 10
1.0
 20
0.0
 30
0.0
  9
$UCSYDIR
 10
0.0
 20
1.0
 30
0.0
  9
$UCSORTHOREF
  2

  9
$UCSORTHOVIEW
 70
     0
  9
$UCSORGTOP
 10
0.0
 20
0.0
 30
0.0
  9
$UCSORGBOTTOM
 10
0.0
 20
0.0
 30
0.0
  9
$UCSORGLEFT
 10
0.0
 20
0.0
 30
0.0
  9
$UCSORGRIGHT
 10
0.0
 20
0.0
 30
0.0
  9
$UCSORGFRONT
 10
0.0
 20
0.0
 30
0.0
  9
$UCSORGBACK
 10
0.0
 20
0.0
 30
0.0
  9
$PUCSBASE
  2

  9
$PUCSNAME
  2

  9
$PUCSORG
 10
0.0
 20
0.0
 30
0.0
  9
$PUCSXDIR
 10
1.0
 20
0.0
 30
0.0
  9
$PUCSYDIR
 10
0.0
 20
1.0
 30
0.0
  9
$PUCSORTHOREF
  2

  9
$PUCSORTHOVIEW
 70
     0
  9
$PUCSORGTOP
 10
0.0
 20
0.0
 30
0.0
  9
$PUCSORGBOTTOM
 10
0.0
 20
0.0
 30
0.0
  9
$PUCSORGLEFT
 10
0.0
 20
0.0
 30
0.0
  9
$PUCSORGRIGHT
 10
0.0
 20
0.0
 30
0.0
  9
$PUCSORGFRONT
 10
0.0
 20
0.0
 30
0.0
  9
$PUCSORGBACK
 10
0.0
 20
0.0
 30
0.0
  9
$USERI1
 70
     0
  9
$USERI2
 70
     0
  9
$USERI3
 70
     0
  9
$USERI4
 70
     0
  9
$USERI5
 70
     0
  9
$USERR1
 40
0.0
  9
$USERR2
 40
0.0
  9
$USERR3
 40
0.0
  9
$USERR4
 40
0.0
  9
$USERR5
 40
0.0
  9
$WORLDVIEW
 70
     1
  9
$SHADEDGE
 70
     3
  9
$SHADEDIF
 70
    70
  9
$TILEMODE
 70
     1
  9
$MAXACTVP
 70
    64
  9
$PINSBASE
 10
0.0
 20
0.0
 30
0.0
  9
$PLIMCHECK
 70
     0
  9
$PEXTMIN
 10
0.0
 20
0.0
 30
0.0
  9
$PEXTMAX
 10
0.0
 20
0.0
 30
0.0
  9
$PLIMMIN
 10
0.0
 20
0.0
  9
$PLIMMAX
 10
0.0
 20
0.0
  9
$UNITMODE
 70
     0
  9
$VISRETAIN
 70
     1
  9
$PLINEGEN
 70
     0
  9
$PSLTSCALE
 70
     1
  9
$TREEDEPTH
 70
  3020
  9
$CMLSTYLE
  2
Standard
  9
$CMLJUST
 70
     0
  9
$CMLSCALE
 40
1.0
  9
$PROXYGRAPHICS
 70
     1
  9
$MEASUREMENT
 70
     0
  9
$CELWEIGHT
370
    -1
  9
$ENDCAPS
280
     0
  9
$JOINSTYLE
280
     0
  9
$LWDISPLAY
290
     0
  9
$INSUNITS
 70
     1
  9
$HYPERLINKBASE
  1

  9
$STYLESHEET
  1

  9
$XEDIT
290
     1
  9
$CEPSNTYPE
380
     0
  9
$PSTYLEMODE
290
     1
  9
$FINGERPRINTGUID
  2
{FDEAD576-A652-11D2-9A35-0060089B3A3F}
  9
$VERSIONGUID
  2
{FBC2AE19-5C5C-49EC-81BC-71B1A3362A02}
  9
$EXTNAMES
290
     1
  9
$PSVPSCALE
 40
0.0
  9
$OLESTARTUP
290
     0
  9
$SORTENTS
280
   127
  9
$INDEXCTL
280
     0
  9
$HIDETEXT
280
     1
  9
$XCLIPFRAME
280
     0
  9
$HALOGAP
280
     0
  9
$OBSCOLOR
 70
   257
  9
$OBSLTYPE
280
     0
  9
$INTERSECTIONDISPLAY
280
     0
  9
$INTERSECTIONCOLOR
 70
   257
  9
$DIMASSOC
280
     2
  9
$PROJECTNAME
  1

  9
$CAMERADISPLAY
290
     0
  9
$LENSLENGTH
 40
50.0
  9
$CAMERAHEIGHT
 40
0.0
  9
$STEPSPERSEC
 40
2.0
  9
$STEPSIZE
 40
6.0
  9
$3DDWFPREC
 40
2.0
  9
$PSOLWIDTH
 40
0.25
  9
$PSOLHEIGHT
 40
4.0
  9
$LOFTANG1
 40
1.570796326794897
  9
$LOFTANG2
 40
1.570796326794897
  9
$LOFTMAG1
 40
0.0
  9
$LOFTMAG2
 40
0.0
  9
$LOFTPARAM
 70
     7
  9
$LOFTNORMALS
280
     1
  9
$LATITUDE
 40
37.795
  9
$LONGITUDE
 40
-122.394
  9
$NORTHDIRECTION
 40
0.0
  9
$TIMEZONE
 70
 -8000
  9
$LIGHTGLYPHDISPLAY
280
     1
  9
$TILEMODELIGHTSYNCH
280
     1
  9
$CMATERIAL
347
96
  9
$SOLIDHIST
280
     1
  9
$SHOWHIST
280
     1
  9
$DWFFRAME
280
     2
  9
$DGNFRAME
280
     0
  9
$REALWORLDSCALE
290
     1
  9
$INTERFERECOLOR
 62
     1
  9
$CSHADOW
280
     0
  9
$SHADOWPLANELOCATION
 40
0.0
  0
ENDSEC
  0
SECTION
  2
CLASSES
  0
CLASS
  1
ACDBDICTIONARYWDFLT
  2
AcDbDictionaryWithDefault
  3
ObjectDBX Classes
 90
        0
 91
        3
280
     0
281
     0
  0
CLASS
  1
ACDBPLACEHOLDER
  2
AcDbPlaceHolder
  3
ObjectDBX Classes
 90
        0
 91
        1
280
     0
281
     0
  0
CLASS
  1
LAYOUT
  2
AcDbLayout
  3
ObjectDBX Classes
 90
        0
 91
        1
280
     0
281
     0
  0
CLASS
  1
DICTIONARYVAR
  2
AcDbDictionaryVar
  3
ObjectDBX Classes
 90
        0
 91
        3
280
     0
281
     0
  0
CLASS
  1
TABLESTYLE
  2
AcDbTableStyle
  3
ObjectDBX Classes
 90
     4095
 91
        3
280
     0
281
     0
  0
CLASS
  1
MATERIAL
  2
AcDbMaterial
  3
ObjectDBX Classes
 90
     1153
 91
        3
280
     0
281
     0
  0
CLASS
  1
VISUALSTYLE
  2
AcDbVisualStyle
  3
ObjectDBX Classes
 90
     4095
 91
        3
280
     0
281
     0
  0
CLASS
  1
SCALE
  2
AcDbScale
  3
ObjectDBX Classes
 90
     1153
 91
        3
280
     0
281
     0
  0
CLASS
  1
CELLSTYLEMAP
  2
AcDbCellStyleMap
  3
ObjectDBX Classes
 90
     1152
 91
        3
280
     0
281
     0
  0
CLASS
  1
RASTERVARIABLES
  2
AcDbRasterVariables
  3
ISM
 90
        0
 91
        3
280
     0
281
     0
  0
CLASS
  1
SUN
  2
AcDbSun
  3
SCENEOE
 90
     1153
 91
        3
280
     0
281
     0
  0
CLASS
  1
MLEADERSTYLE
  2
AcDbMLeaderStyle
  3
ACDB_MLEADERSTYLE_CLASS
 90
     4095
 91
        3
280
     0
281
     0
  0
ENDSEC
  0
SECTION
  2
TABLES
  0
TABLE
  2
VPORT
  5
8
330
0
100
AcDbSymbolTable
 70
     1
  0
VPORT
  5
94
330
8
100
AcDbSymbolTableRecord
100
AcDbViewportTableRecord
  2
*Active
 70
     0
 10
0.0
 20
0.0
 11
1.0
 21
1.0
 12
137.3366332919747
 22
63.92202028687383
 13
0.0
 23
0.0
 14
0.5
 24
0.5
 15
0.5
 25
0.5
 16
0.0
 26
0.0
 36
1.0
 17
-27.66959356597998
 27
-19.53870295786191
 37
0.0
 40
232.5508327410565
 41
1.638078902229846
 42
50.0
 43
0.0
 44
0.0
 50
0.0
 51
0.0
 71
    16
 72
  1000
 73
     1
 74
     3
 75
     0
 76
     0
 77
     0
 78
     0
281
     0
 65
     1
110
0.0
120
0.0
130
0.0
111
1.0
121
0.0
131
0.0
112
0.0
122
1.0
132
0.0
 79
     0
146
0.0
348
9F
 60
     2
 61
     5
292
     1
282
     1
141
0.0
142
0.0
 63
   250
421
  3355443
361
ED
  0
ENDTAB
  0
TABLE
  2
LTYPE
  5
5
330
0
100
AcDbSymbolTable
 70
     1
  0
LTYPE
  5
14
330
5
100
AcDbSymbolTableRecord
100
AcDbLinetypeTableRecord
  2
ByBlock
 70
     0
  3

 72
    65
 73
     0
 40
0.0
  0
LTYPE
  5
15
330
5
100
AcDbSymbolTableRecord
100
AcDbLinetypeTableRecord
  2
ByLayer
 70
     0
  3

 72
    65
 73
     0
 40
0.0
  0
LTYPE
  5
16
330
5
100
AcDbSymbolTableRecord
100
AcDbLinetypeTableRecord
  2
Continuous
 70
     0
  3
Solid line
 72
    65
 73
     0
 40
0.0
  0
ENDTAB
  0
TABLE
  2
LAYER
  5
2
330
0
100
AcDbSymbolTable
 70
     2
  0
LAYER
  5
10
330
2
100
AcDbSymbolTableRecord
100
AcDbLayerTableRecord
  2
0
 70
     0
 62
     7
  6
Continuous
370
    -3
390
F
347
98
348
0
  0
LAYER
  5
3EC
330
2
100
AcDbSymbolTableRecord
100
AcDbLayerTableRecord
  2
Imprimir
 70
     0
 62
     7
  6
Continuous
370
    -3
390
F
347
98
348
0
  0
ENDTAB
  0
TABLE
  2
STYLE
  5
3
330
0
100
AcDbSymbolTable
 70
     1
  0
STYLE
  5
11
330
3
100
AcDbSymbolTableRecord
100
AcDbTextStyleTableRecord
  2
Standard
 70
     0
 40
0.0
 41
1.0
 50
0.0
 71
     0
 42
0.2
  3
arial.ttf
  4

1001
ACAD
1000
Arial
1071
        0
  0
ENDTAB
  0
TABLE
  2
VIEW
  5
6
330
0
100
AcDbSymbolTable
 70
     0
  0
ENDTAB
  0
TABLE
  2
UCS
  5
7
330
0
100
AcDbSymbolTable
 70
     0
  0
ENDTAB
  0
TABLE
  2
APPID
  5
9
330
0
100
AcDbSymbolTable
 70
     1
  0
APPID
  5
12
330
9
100
AcDbSymbolTableRecord
100
AcDbRegAppTableRecord
  2
ACAD
 70
     0
  0
ENDTAB
  0
TABLE
  2
DIMSTYLE
  5
A
330
0
100
AcDbSymbolTable
 70
     2
100
AcDbDimStyleTable
  0
DIMSTYLE
105
27
330
A
100
AcDbSymbolTableRecord
100
AcDbDimStyleTableRecord
  2
Standard
 70
     0
178
     0
340
11
  0
DIMSTYLE
105
3EE
330
A
100
AcDbSymbolTableRecord
100
AcDbDimStyleTableRecord
  2
ISO-25
 70
     0
 41
2.5
 42
0.625
 43
3.75
 44
1.25
 73
     0
 74
     0
 77
     1
 78
     8
140
2.5
141
2.5
143
0.03937007874016
147
0.625
171
     3
172
     1
178
     0
271
     2
272
     2
274
     3
283
     0
284
     8
340
11
  0
ENDTAB
  0
TABLE
  2
BLOCK_RECORD
  5
1
330
0
100
AcDbSymbolTable
 70
     1
  0
BLOCK_RECORD
  5
1F
330
1
100
AcDbSymbolTableRecord
100
AcDbBlockTableRecord
  2
*Model_Space
340
22
 70
     0
280
     1
281
     0
  0
BLOCK_RECORD
  5
58
330
1
100
AcDbSymbolTableRecord
100
AcDbBlockTableRecord
  2
*Paper_Space
340
59
 70
     0
280
     1
281
     0
  0
BLOCK_RECORD
  5
5D
330
1
100
AcDbSymbolTableRecord
100
AcDbBlockTableRecord
  2
*Paper_Space0
340
5E
 70
     0
280
     1
281
     0
  0
ENDTAB
  0
ENDSEC
  0
SECTION
  2
BLOCKS
  0
BLOCK
  5
20
330
1F
100
AcDbEntity
  8
0
100
AcDbBlockBegin
  2
*Model_Space
 70
     0
 10
0.0
 20
0.0
 30
0.0
  3
*Model_Space
  1

  0
ENDBLK
  5
21
330
1F
100
AcDbEntity
  8
0
100
AcDbBlockEnd
  0
BLOCK
  5
5A
330
58
100
AcDbEntity
 67
     1
  8
0
100
AcDbBlockBegin
  2
*Paper_Space
 70
     0
 10
0.0
 20
0.0
 30
0.0
  3
*Paper_Space
  1

  0
ENDBLK
  5
5B
330
58
100
AcDbEntity
 67
     1
  8
0
100
AcDbBlockEnd
  0
BLOCK
  5
5F
330
5D
100
AcDbEntity
  8
0
100
AcDbBlockBegin
  2
*Paper_Space0
 70
     0
 10
0.0
 20
0.0
 30
0.0
  3
*Paper_Space0
  1

  0
ENDBLK
  5
60
330
5D
100
AcDbEntity
  8
0
100
AcDbBlockEnd
  0
ENDSEC
  0
SECTION
  2
ENTITIES
  0
LINE
  5
15A
330
1F
100
AcDbEntity
  8
0
 62
     3
100
AcDbLine
 10
121.0
 20
127.5347138538081
 30
0.0
 11
185.0
 21
127.5347138538081
 31
0.0
  0
LINE
  5
15B
330
1F
100
AcDbEntity
  8
0
 62
     3
100
AcDbLine
 10
188.0
 20
6.534713853808096
 30
0.0
 11
118.0000000000001
 21
6.534713853808125
 31
0.0
  0
LINE
  5
18D
330
1F
100
AcDbEntity
  8
0
 62
     3
100
AcDbLine
 10
89.0
 20
112.5347138538081
 30
0.0
 11
93.5
 21
112.5347138538081
 31
0.0
  0
LINE
  5
18E
330
1F
100
AcDbEntity
  8
0
 62
     3
100
AcDbLine
 10
93.5
 20
115.5347138538081
 30
0.0
 11
101.0
 21
115.5347138538081
 31
0.0
  0
LINE
  5
192
330
1F
100
AcDbEntity
  8
0
 62
     3
100
AcDbLine
 10
101.0
 20
115.5347138538081
 30
0.0
 11
101.0
 21
12.00000000000005
 31
0.0
  0
LINE
  5
267
330
1F
100
AcDbEntity
  8
0
 62
     7
100
AcDbLine
 10
126.75
 20
110.5347138538082
 30
0.0
 11
126.75
 21
107.5347138538082
 31
0.0
  0
LINE
  5
268
330
1F
100
AcDbEntity
  8
0
 62
     7
100
AcDbLine
 10
134.25
 20
110.5347138538082
 30
0.0
 11
134.25
 21
107.5347138538082
 31
0.0
  0
LINE
  5
269
330
1F
100
AcDbEntity
  8
0
 62
     7
100
AcDbLine
 10
141.75
 20
110.5347138538082
 30
0.0
 11
141.75
 21
107.5347138538082
 31
0.0
  0
LINE
  5
26A
330
1F
100
AcDbEntity
  8
0
 62
     7
100
AcDbLine
 10
149.25
 20
110.5347138538082
 30
0.0
 11
149.25
 21
107.5347138538082
 31
0.0
  0
LINE
  5
26B
330
1F
100
AcDbEntity
  8
0
 62
     7
100
AcDbLine
 10
156.75
 20
110.5347138538082
 30
0.0
 11
156.75
 21
107.5347138538082
 31
0.0
  0
LINE
  5
26C
330
1F
100
AcDbEntity
  8
0
 62
     7
100
AcDbLine
 10
164.25
 20
110.5347138538082
 30
0.0
 11
164.25
 21
107.5347138538081
 31
0.0
  0
LINE
  5
26D
330
1F
100
AcDbEntity
  8
0
 62
     7
100
AcDbLine
 10
171.75
 20
110.5347138538082
 30
0.0
 11
171.75
 21
107.5347138538081
 31
0.0
  0
LINE
  5
26E
330
1F
100
AcDbEntity
  8
0
 62
     7
100
AcDbLine
 10
179.25
 20
110.5347138538081
 30
0.0
 11
179.25
 21
107.5347138538081
 31
0.0
  0
LINE
  5
272
330
1F
100
AcDbEntity
  8
0
 62
     7
100
AcDbLine
 10
179.25
 20
110.5347138538081
 30
0.0
 11
171.75
 21
110.5347138538082
 31
0.0
  0
LINE
  5
273
330
1F
100
AcDbEntity
  8
0
 62
     7
100
AcDbLine
 10
164.25
 20
110.5347138538082
 30
0.0
 11
156.75
 21
110.5347138538082
 31
0.0
  0
LINE
  5
274
330
1F
100
AcDbEntity
  8
0
 62
     7
100
AcDbLine
 10
149.25
 20
110.5347138538082
 30
0.0
 11
141.75
 21
110.5347138538082
 31
0.0
  0
LINE
  5
275
330
1F
100
AcDbEntity
  8
0
 62
     7
100
AcDbLine
 10
134.25
 20
110.5347138538082
 30
0.0
 11
126.75
 21
110.5347138538082
 31
0.0
  0
LINE
  5
277
330
1F
100
AcDbEntity
  8
0
 62
     7
100
AcDbLine
 10
121.0
 20
107.5347138538082
 30
0.0
 11
126.75
 21
107.5347138538082
 31
0.0
  0
LINE
  5
278
330
1F
100
AcDbEntity
  8
0
 62
     7
100
AcDbLine
 10
134.25
 20
107.5347138538082
 30
0.0
 11
141.75
 21
107.5347138538082
 31
0.0
  0
LINE
  5
279
330
1F
100
AcDbEntity
  8
0
 62
     7
100
AcDbLine
 10
149.25
 20
107.5347138538082
 30
0.0
 11
156.75
 21
107.5347138538082
 31
0.0
  0
LINE
  5
27A
330
1F
100
AcDbEntity
  8
0
 62
     7
100
AcDbLine
 10
164.25
 20
107.5347138538081
 30
0.0
 11
171.75
 21
107.5347138538081
 31
0.0
  0
LINE
  5
27B
330
1F
100
AcDbEntity
  8
0
 62
     7
100
AcDbLine
 10
179.25
 20
107.5347138538081
 30
0.0
 11
185.0
 21
107.5347138538081
 31
0.0
  0
LINE
  5
284
330
1F
100
AcDbEntity
  8
0
 62
     3
100
AcDbLine
 10
118.0000000000001
 20
122.5347138538081
 30
0.0
 11
118.0
 21
115.0347138538081
 31
0.0
  0
LINE
  5
285
330
1F
100
AcDbEntity
  8
0
 62
     3
100
AcDbLine
 10
118.0
 20
115.0347138538081
 30
0.0
 11
121.0
 21
115.0347138538081
 31
0.0
  0
LINE
  5
286
330
1F
100
AcDbEntity
  8
0
 62
     3
100
AcDbLine
 10
118.0000000000001
 20
122.5347138538081
 30
0.0
 11
121.0
 21
122.5347138538081
 31
0.0
  0
LINE
  5
287
330
1F
100
AcDbEntity
  8
0
 62
     3
100
AcDbLine
 10
121.0
 20
107.5347138538082
 30
0.0
 11
121.0
 21
115.0347138538081
 31
0.0
  0
LINE
  5
288
330
1F
100
AcDbEntity
  8
0
 62
     3
100
AcDbLine
 10
121.0
 20
122.5347138538081
 30
0.0
 11
121.0
 21
127.5347138538081
 31
0.0
  0
LINE
  5
289
330
1F
100
AcDbEntity
  8
0
 62
     3
100
AcDbLine
 10
188.0
 20
122.5347138538081
 30
0.0
 11
188.0
 21
115.0347138538081
 31
0.0
  0
LINE
  5
28A
330
1F
100
AcDbEntity
  8
0
 62
     3
100
AcDbLine
 10
188.0
 20
115.0347138538081
 30
0.0
 11
185.0
 21
115.0347138538081
 31
0.0
  0
LINE
  5
28B
330
1F
100
AcDbEntity
  8
0
 62
     3
100
AcDbLine
 10
188.0
 20
122.5347138538081
 30
0.0
 11
185.0
 21
122.5347138538081
 31
0.0
  0
LINE
  5
28C
330
1F
100
AcDbEntity
  8
0
 62
     3
100
AcDbLine
 10
185.0
 20
107.5347138538081
 30
0.0
 11
185.0
 21
115.0347138538081
 31
0.0
  0
LINE
  5
28D
330
1F
100
AcDbEntity
  8
0
 62
     3
100
AcDbLine
 10
185.0
 20
122.5347138538081
 30
0.0
 11
185.0
 21
127.5347138538081
 31
0.0
  0
LINE
  5
28F
330
1F
100
AcDbEntity
  8
0
 62
     3
100
AcDbLine
 10
121.0
 20
15.53471385380813
 30
0.0
 11
113.5
 21
15.53471385380813
 31
0.0
  0
LINE
  5
291
330
1F
100
AcDbEntity
  8
0
 62
     3
100
AcDbLine
 10
101.0
 20
110.5347138538081
 30
0.0
 11
101.0
 21
85.53471385380813
 31
0.0
  0
LINE
  5
292
330
1F
100
AcDbEntity
  8
0
 62
     3
100
AcDbLine
 10
108.6571428571428
 20
18.53471385380813
 30
0.0
 11
101.0
 21
85.53471385380813
 31
0.0
  0
LINE
  5
295
330
1F
100
AcDbEntity
  8
0
 62
     3
100
AcDbLine
 10
113.5
 20
18.53471385380813
 30
0.0
 11
108.6571428571428
 21
18.53471385380813
 31
0.0
  0
LINE
  5
29C
330
1F
100
AcDbEntity
  8
0
 62
     3
100
AcDbLine
 10
113.5
 20
107.5347138538081
 30
0.0
 11
106.0
 21
107.5347138538081
 31
0.0
  0
LINE
  5
29D
330
1F
100
AcDbEntity
  8
0
 62
     3
100
AcDbLine
 10
106.0
 20
107.5347138538081
 30
0.0
 11
106.0
 21
110.5347138538081
 31
0.0
  0
LINE
  5
29E
330
1F
100
AcDbEntity
  8
0
 62
     3
100
AcDbLine
 10
113.5
 20
107.5347138538081
 30
0.0
 11
113.5
 21
110.5347138538081
 31
0.0
  0
LINE
  5
29F
330
1F
100
AcDbEntity
  8
0
 62
     3
100
AcDbLine
 10
101.0
 20
110.5347138538081
 30
0.0
 11
106.0
 21
110.5347138538081
 31
0.0
  0
LINE
  5
2A0
330
1F
100
AcDbEntity
  8
0
 62
     3
100
AcDbLine
 10
113.5
 20
110.5347138538081
 30
0.0
 11
121.0
 21
110.5347138538081
 31
0.0
  0
LINE
  5
2A1
330
1F
100
AcDbEntity
  8
0
 62
     7
100
AcDbLine
 10
121.0
 20
21.78471385380813
 30
0.0
 11
121.0
 21
18.5347138538081
 31
0.0
  0
LINE
  5
2A2
330
1F
100
AcDbEntity
  8
0
 62
     7
100
AcDbLine
 10
118.0
 20
104.2847138538081
 30
0.0
 11
118.0
 21
96.78471385380813
 31
0.0
  0
LINE
  5
2A4
330
1F
100
AcDbEntity
  8
0
 62
     7
100
AcDbLine
 10
118.0
 20
21.78471385380813
 30
0.0
 11
121.0
 21
21.78471385380813
 31
0.0
  0
LINE
  5
2A5
330
1F
100
AcDbEntity
  8
0
 62
     7
100
AcDbLine
 10
118.0
 20
29.28471385380813
 30
0.0
 11
121.0
 21
29.28471385380813
 31
0.0
  0
LINE
  5
2A6
330
1F
100
AcDbEntity
  8
0
 62
     7
100
AcDbLine
 10
118.0
 20
36.78471385380813
 30
0.0
 11
121.0
 21
36.78471385380813
 31
0.0
  0
LINE
  5
2A7
330
1F
100
AcDbEntity
  8
0
 62
     7
100
AcDbLine
 10
118.0
 20
44.28471385380813
 30
0.0
 11
121.0
 21
44.28471385380813
 31
0.0
  0
LINE
  5
2A8
330
1F
100
AcDbEntity
  8
0
 62
     7
100
AcDbLine
 10
118.0
 20
51.78471385380813
 30
0.0
 11
121.0
 21
51.78471385380813
 31
0.0
  0
LINE
  5
2A9
330
1F
100
AcDbEntity
  8
0
 62
     7
100
AcDbLine
 10
118.0
 20
59.28471385380813
 30
0.0
 11
121.0
 21
59.28471385380813
 31
0.0
  0
LINE
  5
2AA
330
1F
100
AcDbEntity
  8
0
 62
     7
100
AcDbLine
 10
118.0
 20
66.78471385380813
 30
0.0
 11
121.0
 21
66.78471385380813
 31
0.0
  0
LINE
  5
2AB
330
1F
100
AcDbEntity
  8
0
 62
     7
100
AcDbLine
 10
118.0
 20
74.28471385380813
 30
0.0
 11
121.0
 21
74.28471385380813
 31
0.0
  0
LINE
  5
2AC
330
1F
100
AcDbEntity
  8
0
 62
     7
100
AcDbLine
 10
118.0
 20
81.78471385380813
 30
0.0
 11
121.0
 21
81.78471385380813
 31
0.0
  0
LINE
  5
2AD
330
1F
100
AcDbEntity
  8
0
 62
     7
100
AcDbLine
 10
118.0
 20
89.28471385380813
 30
0.0
 11
121.0
 21
89.28471385380813
 31
0.0
  0
LINE
  5
2AE
330
1F
100
AcDbEntity
  8
0
 62
     7
100
AcDbLine
 10
118.0
 20
96.78471385380813
 30
0.0
 11
121.0
 21
96.78471385380813
 31
0.0
  0
LINE
  5
2AF
330
1F
100
AcDbEntity
  8
0
 62
     7
100
AcDbLine
 10
118.0
 20
104.2847138538081
 30
0.0
 11
121.0
 21
104.2847138538081
 31
0.0
  0
LINE
  5
2B1
330
1F
100
AcDbEntity
  8
0
 62
     7
100
AcDbLine
 10
118.0
 20
89.28471385380813
 30
0.0
 11
118.0
 21
81.78471385380813
 31
0.0
  0
LINE
  5
2B2
330
1F
100
AcDbEntity
  8
0
 62
     7
100
AcDbLine
 10
118.0
 20
74.28471385380813
 30
0.0
 11
118.0
 21
66.78471385380813
 31
0.0
  0
LINE
  5
2B3
330
1F
100
AcDbEntity
  8
0
 62
     7
100
AcDbLine
 10
118.0
 20
59.28471385380813
 30
0.0
 11
118.0
 21
51.78471385380813
 31
0.0
  0
LINE
  5
2B4
330
1F
100
AcDbEntity
  8
0
 62
     7
100
AcDbLine
 10
118.0
 20
44.28471385380813
 30
0.0
 11
118.0
 21
36.78471385380813
 31
0.0
  0
LINE
  5
2B5
330
1F
100
AcDbEntity
  8
0
 62
     7
100
AcDbLine
 10
118.0
 20
29.28471385380813
 30
0.0
 11
118.0
 21
21.78471385380813
 31
0.0
  0
LINE
  5
2B6
330
1F
100
AcDbEntity
  8
0
 62
     7
100
AcDbLine
 10
121.0
 20
29.28471385380813
 30
0.0
 11
121.0
 21
36.78471385380813
 31
0.0
  0
LINE
  5
2B7
330
1F
100
AcDbEntity
  8
0
 62
     7
100
AcDbLine
 10
121.0
 20
44.28471385380813
 30
0.0
 11
121.0
 21
51.78471385380813
 31
0.0
  0
LINE
  5
2B8
330
1F
100
AcDbEntity
  8
0
 62
     7
100
AcDbLine
 10
121.0
 20
59.28471385380813
 30
0.0
 11
121.0
 21
66.78471385380813
 31
0.0
  0
LINE
  5
2B9
330
1F
100
AcDbEntity
  8
0
 62
     7
100
AcDbLine
 10
121.0
 20
74.28471385380813
 30
0.0
 11
121.0
 21
81.78471385380813
 31
0.0
  0
LINE
  5
2BA
330
1F
100
AcDbEntity
  8
0
 62
     7
100
AcDbLine
 10
121.0
 20
89.28471385380813
 30
0.0
 11
121.0
 21
96.78471385380813
 31
0.0
  0
LINE
  5
2BB
330
1F
100
AcDbEntity
  8
0
 62
     7
100
AcDbLine
 10
121.0
 20
104.2847138538081
 30
0.0
 11
121.0
 21
107.5347138538082
 31
0.0
  0
LINE
  5
2BF
330
1F
100
AcDbEntity
  8
0
 62
     3
100
AcDbLine
 10
113.5
 20
18.53471385380813
 30
0.0
 11
113.5
 21
15.53471385380813
 31
0.0
  0
LINE
  5
2C1
330
1F
100
AcDbEntity
  8
0
 62
     7
100
AcDbLine
 10
126.75
 20
15.53471385380812
 30
0.0
 11
126.75
 21
18.53471385380812
 31
0.0
  0
LINE
  5
2C2
330
1F
100
AcDbEntity
  8
0
 62
     7
100
AcDbLine
 10
134.25
 20
15.53471385380812
 30
0.0
 11
134.25
 21
18.53471385380812
 31
0.0
  0
LINE
  5
2C3
330
1F
100
AcDbEntity
  8
0
 62
     7
100
AcDbLine
 10
141.75
 20
15.53471385380812
 30
0.0
 11
141.75
 21
18.53471385380812
 31
0.0
  0
LINE
  5
2C4
330
1F
100
AcDbEntity
  8
0
 62
     7
100
AcDbLine
 10
149.25
 20
15.53471385380811
 30
0.0
 11
149.25
 21
18.53471385380811
 31
0.0
  0
LINE
  5
2C5
330
1F
100
AcDbEntity
  8
0
 62
     7
100
AcDbLine
 10
156.75
 20
15.53471385380811
 30
0.0
 11
156.75
 21
18.53471385380811
 31
0.0
  0
LINE
  5
2C6
330
1F
100
AcDbEntity
  8
0
 62
     7
100
AcDbLine
 10
164.25
 20
15.5347138538081
 30
0.0
 11
164.25
 21
18.53471385380812
 31
0.0
  0
LINE
  5
2C7
330
1F
100
AcDbEntity
  8
0
 62
     7
100
AcDbLine
 10
171.75
 20
15.5347138538081
 30
0.0
 11
171.75
 21
18.53471385380812
 31
0.0
  0
LINE
  5
2C8
330
1F
100
AcDbEntity
  8
0
 62
     7
100
AcDbLine
 10
179.25
 20
15.53471385380812
 30
0.0
 11
179.25
 21
18.53471385380812
 31
0.0
  0
LINE
  5
2C9
330
1F
100
AcDbEntity
  8
0
 62
     7
100
AcDbLine
 10
179.25
 20
15.53471385380812
 30
0.0
 11
171.75
 21
15.5347138538081
 31
0.0
  0
LINE
  5
2CA
330
1F
100
AcDbEntity
  8
0
 62
     7
100
AcDbLine
 10
164.25
 20
15.5347138538081
 30
0.0
 11
156.75
 21
15.53471385380811
 31
0.0
  0
LINE
  5
2CB
330
1F
100
AcDbEntity
  8
0
 62
     7
100
AcDbLine
 10
149.25
 20
15.53471385380811
 30
0.0
 11
141.75
 21
15.53471385380812
 31
0.0
  0
LINE
  5
2CC
330
1F
100
AcDbEntity
  8
0
 62
     7
100
AcDbLine
 10
134.25
 20
15.53471385380812
 30
0.0
 11
126.75
 21
15.53471385380812
 31
0.0
  0
LINE
  5
2CD
330
1F
100
AcDbEntity
  8
0
 62
     7
100
AcDbLine
 10
121.0
 20
18.5347138538081
 30
0.0
 11
126.75
 21
18.53471385380812
 31
0.0
  0
LINE
  5
2CE
330
1F
100
AcDbEntity
  8
0
 62
     7
100
AcDbLine
 10
134.25
 20
18.53471385380812
 30
0.0
 11
141.75
 21
18.53471385380812
 31
0.0
  0
LINE
  5
2CF
330
1F
100
AcDbEntity
  8
0
 62
     7
100
AcDbLine
 10
149.25
 20
18.53471385380811
 30
0.0
 11
156.75
 21
18.53471385380811
 31
0.0
  0
LINE
  5
2D0
330
1F
100
AcDbEntity
  8
0
 62
     7
100
AcDbLine
 10
164.25
 20
18.53471385380812
 30
0.0
 11
171.75
 21
18.53471385380812
 31
0.0
  0
LINE
  5
2D1
330
1F
100
AcDbEntity
  8
0
 62
     7
100
AcDbLine
 10
179.25
 20
18.53471385380812
 30
0.0
 11
185.0
 21
18.53471385380812
 31
0.0
  0
LINE
  5
2D2
330
1F
100
AcDbEntity
  8
0
 62
     3
100
AcDbLine
 10
118.0000000000001
 20
6.534713853808125
 30
0.0
 11
118.0000000000001
 21
11.03471385380815
 31
0.0
  0
LINE
  5
2D3
330
1F
100
AcDbEntity
  8
0
 62
     3
100
AcDbLine
 10
118.0
 20
11.03471385380815
 30
0.0
 11
121.0
 21
11.03471385380815
 31
0.0
  0
LINE
  5
2D5
330
1F
100
AcDbEntity
  8
0
 62
     3
100
AcDbLine
 10
121.0
 20
18.5347138538081
 30
0.0
 11
121.0
 21
11.03471385380815
 31
0.0
  0
LINE
  5
2D7
330
1F
100
AcDbEntity
  8
0
 62
     3
100
AcDbLine
 10
188.0
 20
6.534713853808096
 30
0.0
 11
188.0
 21
11.03471385380812
 31
0.0
  0
LINE
  5
2D8
330
1F
100
AcDbEntity
  8
0
 62
     3
100
AcDbLine
 10
188.0
 20
11.03471385380812
 30
0.0
 11
185.0
 21
11.03471385380812
 31
0.0
  0
LINE
  5
2DA
330
1F
100
AcDbEntity
  8
0
 62
     3
100
AcDbLine
 10
185.0
 20
18.53471385380812
 30
0.0
 11
185.0
 21
11.03471385380812
 31
0.0
  0
LINE
  5
2DC
330
1F
100
AcDbEntity
  8
0
 62
     3
100
AcDbLine
 10
185.0000000000001
 20
15.53471385380809
 30
0.0
 11
192.5
 21
15.53471385380809
 31
0.0
  0
LINE
  5
2DD
330
1F
100
AcDbEntity
  8
0
 62
     3
100
AcDbLine
 10
205.0000000000001
 20
110.5347138538081
 30
0.0
 11
205.0000000000001
 21
85.5347138538081
 31
0.0
  0
LINE
  5
2DE
330
1F
100
AcDbEntity
  8
0
 62
     3
100
AcDbLine
 10
197.3428571428572
 20
18.53471385380809
 30
0.0
 11
205.0000000000001
 21
85.5347138538081
 31
0.0
  0
LINE
  5
2DF
330
1F
100
AcDbEntity
  8
0
 62
     3
100
AcDbLine
 10
192.5
 20
18.53471385380809
 30
0.0
 11
197.3428571428572
 21
18.53471385380809
 31
0.0
  0
LINE
  5
2E1
330
1F
100
AcDbEntity
  8
0
 62
     3
100
AcDbLine
 10
192.5
 20
107.5347138538081
 30
0.0
 11
200.0
 21
107.5347138538081
 31
0.0
  0
LINE
  5
2E2
330
1F
100
AcDbEntity
  8
0
 62
     3
100
AcDbLine
 10
200.0
 20
107.5347138538081
 30
0.0
 11
200.0
 21
110.5347138538081
 31
0.0
  0
LINE
  5
2E3
330
1F
100
AcDbEntity
  8
0
 62
     3
100
AcDbLine
 10
192.5
 20
107.5347138538081
 30
0.0
 11
192.5
 21
110.5347138538081
 31
0.0
  0
LINE
  5
2E4
330
1F
100
AcDbEntity
  8
0
 62
     3
100
AcDbLine
 10
205.0
 20
110.5347138538081
 30
0.0
 11
200.0
 21
110.5347138538081
 31
0.0
  0
LINE
  5
2E5
330
1F
100
AcDbEntity
  8
0
 62
     3
100
AcDbLine
 10
192.5
 20
110.5347138538081
 30
0.0
 11
185.0
 21
110.5347138538081
 31
0.0
  0
LINE
  5
2E6
330
1F
100
AcDbEntity
  8
0
 62
     7
100
AcDbLine
 10
185.0000000000001
 20
21.78471385380809
 30
0.0
 11
185.0
 21
18.53471385380812
 31
0.0
  0
LINE
  5
2E7
330
1F
100
AcDbEntity
  8
0
 62
     7
100
AcDbLine
 10
188.0
 20
104.2847138538081
 30
0.0
 11
188.0
 21
96.78471385380807
 31
0.0
  0
LINE
  5
2E8
330
1F
100
AcDbEntity
  8
0
 62
     7
100
AcDbLine
 10
188.0000000000001
 20
21.78471385380809
 30
0.0
 11
185.0000000000001
 21
21.78471385380809
 31
0.0
  0
LINE
  5
2E9
330
1F
100
AcDbEntity
  8
0
 62
     7
100
AcDbLine
 10
188.0000000000001
 20
29.28471385380809
 30
0.0
 11
185.0000000000001
 21
29.28471385380809
 31
0.0
  0
LINE
  5
2EA
330
1F
100
AcDbEntity
  8
0
 62
     7
100
AcDbLine
 10
188.0000000000001
 20
36.78471385380809
 30
0.0
 11
185.0000000000001
 21
36.78471385380809
 31
0.0
  0
LINE
  5
2EB
330
1F
100
AcDbEntity
  8
0
 62
     7
100
AcDbLine
 10
188.0
 20
44.28471385380809
 30
0.0
 11
185.0
 21
44.28471385380809
 31
0.0
  0
LINE
  5
2EC
330
1F
100
AcDbEntity
  8
0
 62
     7
100
AcDbLine
 10
188.0
 20
51.78471385380809
 30
0.0
 11
185.0
 21
51.78471385380809
 31
0.0
  0
LINE
  5
2ED
330
1F
100
AcDbEntity
  8
0
 62
     7
100
AcDbLine
 10
188.0
 20
59.28471385380809
 30
0.0
 11
185.0
 21
59.28471385380809
 31
0.0
  0
LINE
  5
2EE
330
1F
100
AcDbEntity
  8
0
 62
     7
100
AcDbLine
 10
188.0
 20
66.78471385380809
 30
0.0
 11
185.0
 21
66.78471385380809
 31
0.0
  0
LINE
  5
2EF
330
1F
100
AcDbEntity
  8
0
 62
     7
100
AcDbLine
 10
188.0
 20
74.28471385380809
 30
0.0
 11
185.0
 21
74.28471385380809
 31
0.0
  0
LINE
  5
2F0
330
1F
100
AcDbEntity
  8
0
 62
     7
100
AcDbLine
 10
188.0
 20
81.78471385380807
 30
0.0
 11
185.0
 21
81.78471385380807
 31
0.0
  0
LINE
  5
2F1
330
1F
100
AcDbEntity
  8
0
 62
     7
100
AcDbLine
 10
188.0
 20
89.28471385380807
 30
0.0
 11
185.0
 21
89.28471385380807
 31
0.0
  0
LINE
  5
2F2
330
1F
100
AcDbEntity
  8
0
 62
     7
100
AcDbLine
 10
188.0
 20
96.78471385380807
 30
0.0
 11
185.0
 21
96.78471385380807
 31
0.0
  0
LINE
  5
2F3
330
1F
100
AcDbEntity
  8
0
 62
     7
100
AcDbLine
 10
188.0
 20
104.2847138538081
 30
0.0
 11
185.0
 21
104.2847138538081
 31
0.0
  0
LINE
  5
2F4
330
1F
100
AcDbEntity
  8
0
 62
     7
100
AcDbLine
 10
188.0
 20
89.28471385380807
 30
0.0
 11
188.0
 21
81.78471385380807
 31
0.0
  0
LINE
  5
2F5
330
1F
100
AcDbEntity
  8
0
 62
     7
100
AcDbLine
 10
188.0
 20
74.28471385380809
 30
0.0
 11
188.0
 21
66.78471385380809
 31
0.0
  0
LINE
  5
2F6
330
1F
100
AcDbEntity
  8
0
 62
     7
100
AcDbLine
 10
188.0
 20
59.28471385380809
 30
0.0
 11
188.0
 21
51.78471385380809
 31
0.0
  0
LINE
  5
2F7
330
1F
100
AcDbEntity
  8
0
 62
     7
100
AcDbLine
 10
188.0
 20
44.28471385380809
 30
0.0
 11
188.0000000000001
 21
36.78471385380809
 31
0.0
  0
LINE
  5
2F8
330
1F
100
AcDbEntity
  8
0
 62
     7
100
AcDbLine
 10
188.0000000000001
 20
29.28471385380809
 30
0.0
 11
188.0000000000001
 21
21.78471385380809
 31
0.0
  0
LINE
  5
2F9
330
1F
100
AcDbEntity
  8
0
 62
     7
100
AcDbLine
 10
185.0000000000001
 20
29.28471385380809
 30
0.0
 11
185.0000000000001
 21
36.78471385380809
 31
0.0
  0
LINE
  5
2FA
330
1F
100
AcDbEntity
  8
0
 62
     7
100
AcDbLine
 10
185.0
 20
44.28471385380809
 30
0.0
 11
185.0
 21
51.78471385380809
 31
0.0
  0
LINE
  5
2FB
330
1F
100
AcDbEntity
  8
0
 62
     7
100
AcDbLine
 10
185.0
 20
59.28471385380809
 30
0.0
 11
185.0
 21
66.78471385380809
 31
0.0
  0
LINE
  5
2FC
330
1F
100
AcDbEntity
  8
0
 62
     7
100
AcDbLine
 10
185.0
 20
74.28471385380809
 30
0.0
 11
185.0
 21
81.78471385380807
 31
0.0
  0
LINE
  5
2FD
330
1F
100
AcDbEntity
  8
0
 62
     7
100
AcDbLine
 10
185.0
 20
89.28471385380807
 30
0.0
 11
185.0
 21
96.78471385380807
 31
0.0
  0
LINE
  5
2FE
330
1F
100
AcDbEntity
  8
0
 62
     7
100
AcDbLine
 10
185.0
 20
104.2847138538081
 30
0.0
 11
185.0
 21
107.5347138538081
 31
0.0
  0
LINE
  5
2FF
330
1F
100
AcDbEntity
  8
0
 62
     3
100
AcDbLine
 10
192.5
 20
18.53471385380809
 30
0.0
 11
192.5
 21
15.53471385380809
 31
0.0
  0
LINE
  5
302
330
1F
100
AcDbEntity
  8
0
 62
     7
100
AcDbLine
 10
88.99999999999997
 20
22.51735692690406
 30
0.0
 11
89.0
 21
15.00000000000002
 31
0.0
  0
LINE
  5
303
330
1F
100
AcDbEntity
  8
0
 62
     7
100
AcDbLine
 10
86.00000000000003
 20
105.0173569269041
 30
0.0
 11
86.0
 21
97.51735692690406
 31
0.0
  0
LINE
  5
304
330
1F
100
AcDbEntity
  8
0
 62
     7
100
AcDbLine
 10
85.99999999999997
 20
22.51735692690406
 30
0.0
 11
88.99999999999997
 21
22.51735692690406
 31
0.0
  0
LINE
  5
305
330
1F
100
AcDbEntity
  8
0
 62
     7
100
AcDbLine
 10
86.0
 20
30.01735692690406
 30
0.0
 11
89.0
 21
30.01735692690406
 31
0.0
  0
LINE
  5
306
330
1F
100
AcDbEntity
  8
0
 62
     7
100
AcDbLine
 10
86.0
 20
37.51735692690406
 30
0.0
 11
89.0
 21
37.51735692690406
 31
0.0
  0
LINE
  5
307
330
1F
100
AcDbEntity
  8
0
 62
     7
100
AcDbLine
 10
86.0
 20
45.01735692690406
 30
0.0
 11
89.0
 21
45.01735692690406
 31
0.0
  0
LINE
  5
308
330
1F
100
AcDbEntity
  8
0
 62
     7
100
AcDbLine
 10
86.0
 20
52.51735692690407
 30
0.0
 11
89.0
 21
52.51735692690407
 31
0.0
  0
LINE
  5
309
330
1F
100
AcDbEntity
  8
0
 62
     7
100
AcDbLine
 10
86.0
 20
60.01735692690407
 30
0.0
 11
89.0
 21
60.01735692690407
 31
0.0
  0
LINE
  5
30A
330
1F
100
AcDbEntity
  8
0
 62
     7
100
AcDbLine
 10
86.0
 20
67.51735692690407
 30
0.0
 11
89.0
 21
67.51735692690407
 31
0.0
  0
LINE
  5
30B
330
1F
100
AcDbEntity
  8
0
 62
     7
100
AcDbLine
 10
86.0
 20
75.01735692690407
 30
0.0
 11
89.0
 21
75.01735692690407
 31
0.0
  0
LINE
  5
30C
330
1F
100
AcDbEntity
  8
0
 62
     7
100
AcDbLine
 10
86.0
 20
82.51735692690406
 30
0.0
 11
89.0
 21
82.51735692690406
 31
0.0
  0
LINE
  5
30D
330
1F
100
AcDbEntity
  8
0
 62
     7
100
AcDbLine
 10
86.0
 20
90.01735692690406
 30
0.0
 11
89.0
 21
90.01735692690406
 31
0.0
  0
LINE
  5
30E
330
1F
100
AcDbEntity
  8
0
 62
     7
100
AcDbLine
 10
86.0
 20
97.51735692690406
 30
0.0
 11
89.0
 21
97.51735692690406
 31
0.0
  0
LINE
  5
30F
330
1F
100
AcDbEntity
  8
0
 62
     7
100
AcDbLine
 10
86.00000000000003
 20
105.0173569269041
 30
0.0
 11
89.00000000000003
 21
105.0173569269041
 31
0.0
  0
LINE
  5
310
330
1F
100
AcDbEntity
  8
0
 62
     7
100
AcDbLine
 10
86.0
 20
90.01735692690406
 30
0.0
 11
86.0
 21
82.51735692690406
 31
0.0
  0
LINE
  5
311
330
1F
100
AcDbEntity
  8
0
 62
     7
100
AcDbLine
 10
86.0
 20
75.01735692690407
 30
0.0
 11
86.0
 21
67.51735692690407
 31
0.0
  0
LINE
  5
312
330
1F
100
AcDbEntity
  8
0
 62
     7
100
AcDbLine
 10
86.0
 20
60.01735692690407
 30
0.0
 11
86.0
 21
52.51735692690407
 31
0.0
  0
LINE
  5
313
330
1F
100
AcDbEntity
  8
0
 62
     7
100
AcDbLine
 10
86.0
 20
45.01735692690406
 30
0.0
 11
86.0
 21
37.51735692690406
 31
0.0
  0
LINE
  5
314
330
1F
100
AcDbEntity
  8
0
 62
     7
100
AcDbLine
 10
86.0
 20
30.01735692690406
 30
0.0
 11
85.99999999999997
 21
22.51735692690406
 31
0.0
  0
LINE
  5
315
330
1F
100
AcDbEntity
  8
0
 62
     7
100
AcDbLine
 10
89.0
 20
30.01735692690406
 30
0.0
 11
89.0
 21
37.51735692690406
 31
0.0
  0
LINE
  5
316
330
1F
100
AcDbEntity
  8
0
 62
     7
100
AcDbLine
 10
89.0
 20
45.01735692690406
 30
0.0
 11
89.0
 21
52.51735692690407
 31
0.0
  0
LINE
  5
317
330
1F
100
AcDbEntity
  8
0
 62
     7
100
AcDbLine
 10
89.0
 20
60.01735692690407
 30
0.0
 11
89.0
 21
67.51735692690407
 31
0.0
  0
LINE
  5
318
330
1F
100
AcDbEntity
  8
0
 62
     7
100
AcDbLine
 10
89.0
 20
75.01735692690407
 30
0.0
 11
89.0
 21
82.51735692690406
 31
0.0
  0
LINE
  5
319
330
1F
100
AcDbEntity
  8
0
 62
     7
100
AcDbLine
 10
89.0
 20
90.01735692690406
 30
0.0
 11
89.0
 21
97.51735692690406
 31
0.0
  0
LINE
  5
31A
330
1F
100
AcDbEntity
  8
0
 62
     7
100
AcDbLine
 10
89.00000000000003
 20
105.0173569269041
 30
0.0
 11
89.00000000000003
 21
112.5347138538081
 31
0.0
  0
LINE
  5
31C
330
1F
100
AcDbEntity
  8
0
 62
     3
100
AcDbLine
 10
93.5
 20
112.5347138538081
 30
0.0
 11
93.5
 21
115.5347138538081
 31
0.0
  0
LINE
  5
321
330
1F
100
AcDbEntity
  8
0
 62
     3
100
AcDbLine
 10
89.0
 20
15.00000000000005
 30
0.0
 11
93.5
 21
15.00000000000005
 31
0.0
  0
LINE
  5
322
330
1F
100
AcDbEntity
  8
0
 62
     3
100
AcDbLine
 10
93.5
 20
12.00000000000005
 30
0.0
 11
101.0
 21
12.00000000000005
 31
0.0
  0
LINE
  5
323
330
1F
100
AcDbEntity
  8
0
 62
     3
100
AcDbLine
 10
93.5
 20
15.00000000000005
 30
0.0
 11
93.5
 21
12.00000000000005
 31
0.0
  0
LINE
  5
327
330
1F
100
AcDbEntity
  8
0
 62
     3
100
AcDbLine
 10
12.0
 20
112.5347138538081
 30
0.0
 11
7.5
 21
112.5347138538081
 31
0.0
  0
LINE
  5
328
330
1F
100
AcDbEntity
  8
0
 62
     3
100
AcDbLine
 10
7.5
 20
115.5347138538081
 30
0.0
 11
0.0
 21
115.5347138538081
 31
0.0
  0
LINE
  5
32A
330
1F
100
AcDbEntity
  8
0
 62
     3
100
AcDbLine
 10
0.0
 20
115.5347138538081
 30
0.0
 11
0.0
 21
12.00000000000007
 31
0.0
  0
LINE
  5
32B
330
1F
100
AcDbEntity
  8
0
 62
     7
100
AcDbLine
 10
12.00000000000006
 20
22.51735692690408
 30
0.0
 11
12.0
 21
15.00000000000004
 31
0.0
  0
LINE
  5
32C
330
1F
100
AcDbEntity
  8
0
 62
     7
100
AcDbLine
 10
15.0
 20
105.0173569269041
 30
0.0
 11
15.0
 21
97.51735692690407
 31
0.0
  0
LINE
  5
32D
330
1F
100
AcDbEntity
  8
0
 62
     7
100
AcDbLine
 10
15.00000000000006
 20
22.51735692690409
 30
0.0
 11
12.00000000000006
 21
22.51735692690408
 31
0.0
  0
LINE
  5
32E
330
1F
100
AcDbEntity
  8
0
 62
     7
100
AcDbLine
 10
15.0
 20
30.01735692690409
 30
0.0
 11
12.0
 21
30.01735692690408
 31
0.0
  0
LINE
  5
32F
330
1F
100
AcDbEntity
  8
0
 62
     7
100
AcDbLine
 10
15.0
 20
37.51735692690409
 30
0.0
 11
12.0
 21
37.51735692690409
 31
0.0
  0
LINE
  5
330
330
1F
100
AcDbEntity
  8
0
 62
     7
100
AcDbLine
 10
15.0
 20
45.01735692690409
 30
0.0
 11
12.0
 21
45.01735692690409
 31
0.0
  0
LINE
  5
331
330
1F
100
AcDbEntity
  8
0
 62
     7
100
AcDbLine
 10
15.0
 20
52.51735692690409
 30
0.0
 11
12.0
 21
52.51735692690409
 31
0.0
  0
LINE
  5
332
330
1F
100
AcDbEntity
  8
0
 62
     7
100
AcDbLine
 10
15.0
 20
60.01735692690409
 30
0.0
 11
12.0
 21
60.01735692690409
 31
0.0
  0
LINE
  5
333
330
1F
100
AcDbEntity
  8
0
 62
     7
100
AcDbLine
 10
15.0
 20
67.51735692690409
 30
0.0
 11
12.0
 21
67.51735692690409
 31
0.0
  0
LINE
  5
334
330
1F
100
AcDbEntity
  8
0
 62
     7
100
AcDbLine
 10
15.0
 20
75.01735692690409
 30
0.0
 11
12.0
 21
75.01735692690409
 31
0.0
  0
LINE
  5
335
330
1F
100
AcDbEntity
  8
0
 62
     7
100
AcDbLine
 10
15.0
 20
82.51735692690407
 30
0.0
 11
12.0
 21
82.51735692690407
 31
0.0
  0
LINE
  5
336
330
1F
100
AcDbEntity
  8
0
 62
     7
100
AcDbLine
 10
15.0
 20
90.01735692690407
 30
0.0
 11
12.0
 21
90.01735692690407
 31
0.0
  0
LINE
  5
337
330
1F
100
AcDbEntity
  8
0
 62
     7
100
AcDbLine
 10
15.0
 20
97.51735692690407
 30
0.0
 11
12.0
 21
97.51735692690407
 31
0.0
  0
LINE
  5
338
330
1F
100
AcDbEntity
  8
0
 62
     7
100
AcDbLine
 10
15.0
 20
105.0173569269041
 30
0.0
 11
12.0
 21
105.0173569269041
 31
0.0
  0
LINE
  5
339
330
1F
100
AcDbEntity
  8
0
 62
     7
100
AcDbLine
 10
15.0
 20
90.01735692690407
 30
0.0
 11
15.0
 21
82.51735692690407
 31
0.0
  0
LINE
  5
33A
330
1F
100
AcDbEntity
  8
0
 62
     7
100
AcDbLine
 10
15.0
 20
75.01735692690409
 30
0.0
 11
15.0
 21
67.51735692690409
 31
0.0
  0
LINE
  5
33B
330
1F
100
AcDbEntity
  8
0
 62
     7
100
AcDbLine
 10
15.0
 20
60.01735692690409
 30
0.0
 11
15.0
 21
52.51735692690409
 31
0.0
  0
LINE
  5
33C
330
1F
100
AcDbEntity
  8
0
 62
     7
100
AcDbLine
 10
15.0
 20
45.01735692690409
 30
0.0
 11
15.0
 21
37.51735692690409
 31
0.0
  0
LINE
  5
33D
330
1F
100
AcDbEntity
  8
0
 62
     7
100
AcDbLine
 10
15.0
 20
30.01735692690409
 30
0.0
 11
15.00000000000006
 21
22.51735692690409
 31
0.0
  0
LINE
  5
33E
330
1F
100
AcDbEntity
  8
0
 62
     7
100
AcDbLine
 10
12.0
 20
30.01735692690408
 30
0.0
 11
12.0
 21
37.51735692690409
 31
0.0
  0
LINE
  5
33F
330
1F
100
AcDbEntity
  8
0
 62
     7
100
AcDbLine
 10
12.0
 20
45.01735692690409
 30
0.0
 11
12.0
 21
52.51735692690409
 31
0.0
  0
LINE
  5
340
330
1F
100
AcDbEntity
  8
0
 62
     7
100
AcDbLine
 10
12.0
 20
60.01735692690409
 30
0.0
 11
12.0
 21
67.51735692690409
 31
0.0
  0
LINE
  5
341
330
1F
100
AcDbEntity
  8
0
 62
     7
100
AcDbLine
 10
12.0
 20
75.01735692690409
 30
0.0
 11
12.0
 21
82.51735692690407
 31
0.0
  0
LINE
  5
342
330
1F
100
AcDbEntity
  8
0
 62
     7
100
AcDbLine
 10
12.0
 20
90.01735692690407
 30
0.0
 11
12.0
 21
97.51735692690407
 31
0.0
  0
LINE
  5
343
330
1F
100
AcDbEntity
  8
0
 62
     7
100
AcDbLine
 10
12.0
 20
105.0173569269041
 30
0.0
 11
12.0
 21
112.5347138538081
 31
0.0
  0
LINE
  5
344
330
1F
100
AcDbEntity
  8
0
 62
     3
100
AcDbLine
 10
7.5
 20
112.5347138538081
 30
0.0
 11
7.5
 21
115.5347138538081
 31
0.0
  0
LINE
  5
347
330
1F
100
AcDbEntity
  8
0
 62
     3
100
AcDbLine
 10
12.0
 20
15.00000000000007
 30
0.0
 11
7.5
 21
15.00000000000007
 31
0.0
  0
LINE
  5
348
330
1F
100
AcDbEntity
  8
0
 62
     3
100
AcDbLine
 10
7.5
 20
12.00000000000007
 30
0.0
 11
0.0
 21
12.00000000000007
 31
0.0
  0
LINE
  5
349
330
1F
100
AcDbEntity
  8
0
 62
     3
100
AcDbLine
 10
7.5
 20
15.00000000000007
 30
0.0
 11
7.5
 21
12.00000000000007
 31
0.0
  0
LINE
  5
34C
330
1F
100
AcDbEntity
  8
0
 62
     7
100
AcDbLine
 10
24.25
 20
15.00000000000004
 30
0.0
 11
24.25
 21
12.00000000000004
 31
0.0
  0
LINE
  5
34D
330
1F
100
AcDbEntity
  8
0
 62
     7
100
AcDbLine
 10
31.75
 20
15.00000000000004
 30
0.0
 11
31.75
 21
12.00000000000004
 31
0.0
  0
LINE
  5
34E
330
1F
100
AcDbEntity
  8
0
 62
     7
100
AcDbLine
 10
39.25
 20
15.00000000000004
 30
0.0
 11
39.25
 21
12.00000000000004
 31
0.0
  0
LINE
  5
34F
330
1F
100
AcDbEntity
  8
0
 62
     7
100
AcDbLine
 10
46.75
 20
15.00000000000004
 30
0.0
 11
46.75
 21
12.00000000000004
 31
0.0
  0
LINE
  5
350
330
1F
100
AcDbEntity
  8
0
 62
     7
100
AcDbLine
 10
54.25
 20
15.00000000000004
 30
0.0
 11
54.25
 21
12.00000000000004
 31
0.0
  0
LINE
  5
351
330
1F
100
AcDbEntity
  8
0
 62
     7
100
AcDbLine
 10
61.75
 20
15.00000000000004
 30
0.0
 11
61.75
 21
12.00000000000001
 31
0.0
  0
LINE
  5
352
330
1F
100
AcDbEntity
  8
0
 62
     7
100
AcDbLine
 10
69.25
 20
15.00000000000004
 30
0.0
 11
69.25
 21
12.00000000000001
 31
0.0
  0
LINE
  5
353
330
1F
100
AcDbEntity
  8
0
 62
     7
100
AcDbLine
 10
76.75
 20
15.00000000000001
 30
0.0
 11
76.75
 21
12.00000000000001
 31
0.0
  0
LINE
  5
354
330
1F
100
AcDbEntity
  8
0
 62
     7
100
AcDbLine
 10
76.75
 20
15.00000000000001
 30
0.0
 11
69.25
 21
15.00000000000004
 31
0.0
  0
LINE
  5
355
330
1F
100
AcDbEntity
  8
0
 62
     7
100
AcDbLine
 10
61.75
 20
15.00000000000004
 30
0.0
 11
54.25
 21
15.00000000000004
 31
0.0
  0
LINE
  5
356
330
1F
100
AcDbEntity
  8
0
 62
     7
100
AcDbLine
 10
46.75
 20
15.00000000000004
 30
0.0
 11
39.25
 21
15.00000000000004
 31
0.0
  0
LINE
  5
357
330
1F
100
AcDbEntity
  8
0
 62
     7
100
AcDbLine
 10
31.75
 20
15.00000000000004
 30
0.0
 11
24.25
 21
15.00000000000004
 31
0.0
  0
LINE
  5
358
330
1F
100
AcDbEntity
  8
0
 62
     7
100
AcDbLine
 10
16.75
 20
12.00000000000008
 30
0.0
 11
24.25
 21
12.00000000000004
 31
0.0
  0
LINE
  5
359
330
1F
100
AcDbEntity
  8
0
 62
     7
100
AcDbLine
 10
31.75
 20
12.00000000000004
 30
0.0
 11
39.25
 21
12.00000000000004
 31
0.0
  0
LINE
  5
35A
330
1F
100
AcDbEntity
  8
0
 62
     7
100
AcDbLine
 10
46.75
 20
12.00000000000004
 30
0.0
 11
54.25
 21
12.00000000000004
 31
0.0
  0
LINE
  5
35B
330
1F
100
AcDbEntity
  8
0
 62
     7
100
AcDbLine
 10
61.75
 20
12.00000000000001
 30
0.0
 11
69.25
 21
12.00000000000001
 31
0.0
  0
LINE
  5
363
330
1F
100
AcDbEntity
  8
0
 62
     3
100
AcDbLine
 10
89.0
 20
7.5
 30
0.0
 11
89.0
 21
15.00000000000004
 31
0.0
  0
LINE
  5
364
330
1F
100
AcDbEntity
  8
0
 62
     7
100
AcDbLine
 10
84.25
 20
15.00000000000004
 30
0.0
 11
84.25
 21
12.00000000000001
 31
0.0
  0
LINE
  5
365
330
1F
100
AcDbEntity
  8
0
 62
     7
100
AcDbLine
 10
89.0
 20
15.00000000000002
 30
0.0
 11
84.25
 21
15.00000000000004
 31
0.0
  0
LINE
  5
366
330
1F
100
AcDbEntity
  8
0
 62
     7
100
AcDbLine
 10
76.75
 20
12.00000000000001
 30
0.0
 11
84.25
 21
12.00000000000001
 31
0.0
  0
LINE
  5
3B3
330
1F
100
AcDbEntity
  8
0
 62
     3
100
AcDbLine
 10
86.0
 20
0.0
 30
0.0
 11
15.0
 21
0.0
 31
0.0
  0
LINE
  5
3B4
330
1F
100
AcDbEntity
  8
0
 62
     3
100
AcDbLine
 10
86.0
 20
0.0
 30
0.0
 11
86.0
 21
7.5
 31
0.0
  0
LINE
  5
3B5
330
1F
100
AcDbEntity
  8
0
 62
     3
100
AcDbLine
 10
89.0
 20
7.5
 30
0.0
 11
86.0
 21
7.5
 31
0.0
  0
LINE
  5
3B6
330
1F
100
AcDbEntity
  8
0
 62
     7
100
AcDbLine
 10
16.75
 20
15.00000000000004
 30
0.0
 11
16.75
 21
12.00000000000008
 31
0.0
  0
LINE
  5
3B7
330
1F
100
AcDbEntity
  8
0
 62
     7
100
AcDbLine
 10
12.0
 20
15.00000000000002
 30
0.0
 11
16.75
 21
15.00000000000004
 31
0.0
  0
LINE
  5
3B8
330
1F
100
AcDbEntity
  8
0
 62
     3
100
AcDbLine
 10
12.0
 20
7.5
 30
0.0
 11
12.0
 21
15.00000000000004
 31
0.0
  0
LINE
  5
3B9
330
1F
100
AcDbEntity
  8
0
 62
     3
100
AcDbLine
 10
15.0
 20
0.0
 30
0.0
 11
15.0
 21
7.5
 31
0.0
  0
LINE
  5
3BA
330
1F
100
AcDbEntity
  8
0
 62
     3
100
AcDbLine
 10
12.0
 20
7.5
 30
0.0
 11
15.0
 21
7.5
 31
0.0
  0
LINE
  5
3BB
330
1F
100
AcDbEntity
  8
0
 62
     7
100
AcDbLine
 10
24.25
 20
112.5347138538081
 30
0.0
 11
24.25
 21
115.5347138538081
 31
0.0
  0
LINE
  5
3BC
330
1F
100
AcDbEntity
  8
0
 62
     7
100
AcDbLine
 10
31.75
 20
112.5347138538081
 30
0.0
 11
31.75
 21
115.5347138538081
 31
0.0
  0
LINE
  5
3BD
330
1F
100
AcDbEntity
  8
0
 62
     7
100
AcDbLine
 10
39.25
 20
112.5347138538081
 30
0.0
 11
39.25
 21
115.5347138538081
 31
0.0
  0
LINE
  5
3BE
330
1F
100
AcDbEntity
  8
0
 62
     7
100
AcDbLine
 10
46.75
 20
112.5347138538081
 30
0.0
 11
46.75
 21
115.5347138538081
 31
0.0
  0
LINE
  5
3BF
330
1F
100
AcDbEntity
  8
0
 62
     7
100
AcDbLine
 10
54.25
 20
112.5347138538081
 30
0.0
 11
54.25
 21
115.5347138538081
 31
0.0
  0
LINE
  5
3C0
330
1F
100
AcDbEntity
  8
0
 62
     7
100
AcDbLine
 10
61.75
 20
112.5347138538081
 30
0.0
 11
61.75
 21
115.5347138538081
 31
0.0
  0
LINE
  5
3C1
330
1F
100
AcDbEntity
  8
0
 62
     7
100
AcDbLine
 10
69.25
 20
112.5347138538081
 30
0.0
 11
69.25
 21
115.5347138538081
 31
0.0
  0
LINE
  5
3C2
330
1F
100
AcDbEntity
  8
0
 62
     7
100
AcDbLine
 10
76.75
 20
112.5347138538081
 30
0.0
 11
76.75
 21
115.5347138538081
 31
0.0
  0
LINE
  5
3C3
330
1F
100
AcDbEntity
  8
0
 62
     7
100
AcDbLine
 10
76.75
 20
112.5347138538081
 30
0.0
 11
69.25
 21
112.5347138538081
 31
0.0
  0
LINE
  5
3C4
330
1F
100
AcDbEntity
  8
0
 62
     7
100
AcDbLine
 10
61.75
 20
112.5347138538081
 30
0.0
 11
54.25
 21
112.5347138538081
 31
0.0
  0
LINE
  5
3C5
330
1F
100
AcDbEntity
  8
0
 62
     7
100
AcDbLine
 10
46.75
 20
112.5347138538081
 30
0.0
 11
39.25
 21
112.5347138538081
 31
0.0
  0
LINE
  5
3C6
330
1F
100
AcDbEntity
  8
0
 62
     7
100
AcDbLine
 10
31.75
 20
112.5347138538081
 30
0.0
 11
24.25
 21
112.5347138538081
 31
0.0
  0
LINE
  5
3C7
330
1F
100
AcDbEntity
  8
0
 62
     7
100
AcDbLine
 10
16.75
 20
115.534713853808
 30
0.0
 11
24.25
 21
115.5347138538081
 31
0.0
  0
LINE
  5
3C8
330
1F
100
AcDbEntity
  8
0
 62
     7
100
AcDbLine
 10
31.75
 20
115.5347138538081
 30
0.0
 11
39.25
 21
115.5347138538081
 31
0.0
  0
LINE
  5
3C9
330
1F
100
AcDbEntity
  8
0
 62
     7
100
AcDbLine
 10
46.75
 20
115.5347138538081
 30
0.0
 11
54.25
 21
115.5347138538081
 31
0.0
  0
LINE
  5
3CA
330
1F
100
AcDbEntity
  8
0
 62
     7
100
AcDbLine
 10
61.75
 20
115.5347138538081
 30
0.0
 11
69.25
 21
115.5347138538081
 31
0.0
  0
LINE
  5
3CB
330
1F
100
AcDbEntity
  8
0
 62
     7
100
AcDbLine
 10
84.25
 20
112.5347138538081
 30
0.0
 11
84.25
 21
115.5347138538081
 31
0.0
  0
LINE
  5
3CC
330
1F
100
AcDbEntity
  8
0
 62
     7
100
AcDbLine
 10
89.0
 20
112.5347138538081
 30
0.0
 11
84.25
 21
112.5347138538081
 31
0.0
  0
LINE
  5
3CD
330
1F
100
AcDbEntity
  8
0
 62
     7
100
AcDbLine
 10
76.75
 20
115.5347138538081
 30
0.0
 11
84.25
 21
115.5347138538081
 31
0.0
  0
LINE
  5
3CE
330
1F
100
AcDbEntity
  8
0
 62
     3
100
AcDbLine
 10
89.0
 20
120.0347138538081
 30
0.0
 11
89.0
 21
112.5347138538081
 31
0.0
  0
LINE
  5
3CF
330
1F
100
AcDbEntity
  8
0
 62
     3
100
AcDbLine
 10
86.0
 20
127.5347138538081
 30
0.0
 11
86.0
 21
120.0347138538081
 31
0.0
  0
LINE
  5
3D0
330
1F
100
AcDbEntity
  8
0
 62
     3
100
AcDbLine
 10
89.0
 20
120.0347138538081
 30
0.0
 11
86.0
 21
120.0347138538081
 31
0.0
  0
LINE
  5
3D1
330
1F
100
AcDbEntity
  8
0
 62
     7
100
AcDbLine
 10
16.75
 20
112.5347138538081
 30
0.0
 11
16.75
 21
115.534713853808
 31
0.0
  0
LINE
  5
3D2
330
1F
100
AcDbEntity
  8
0
 62
     7
100
AcDbLine
 10
12.0
 20
112.5347138538081
 30
0.0
 11
16.75
 21
112.5347138538081
 31
0.0
  0
LINE
  5
3D3
330
1F
100
AcDbEntity
  8
0
 62
     3
100
AcDbLine
 10
12.0
 20
120.0347138538081
 30
0.0
 11
12.0
 21
112.5347138538081
 31
0.0
  0
LINE
  5
3D4
330
1F
100
AcDbEntity
  8
0
 62
     3
100
AcDbLine
 10
15.0
 20
127.5347138538081
 30
0.0
 11
15.0
 21
120.0347138538081
 31
0.0
  0
LINE
  5
3D5
330
1F
100
AcDbEntity
  8
0
 62
     3
100
AcDbLine
 10
12.0
 20
120.0347138538081
 30
0.0
 11
15.0
 21
120.0347138538081
 31
0.0
  0
LINE
  5
3D6
330
1F
100
AcDbEntity
  8
0
 62
     3
100
AcDbLine
 10
86.0
 20
127.5347138538081
 30
0.0
 11
58.0
 21
127.5347138538081
 31
0.0
  0
CIRCLE
  5
3DE
330
1F
100
AcDbEntity
  8
0
 62
     1
100
AcDbCircle
 10
95.47288797636506
 20
87.03471385380809
 30
0.0
 40
1.75
  0
CIRCLE
  5
3DF
330
1F
100
AcDbEntity
  8
0
 62
     1
100
AcDbCircle
 10
5.52711202363497
 20
87.0347138538081
 30
0.0
 40
1.75
  0
ARC
  5
3E5
330
1F
100
AcDbEntity
  8
0
 62
     3
100
AcDbCircle
 10
50.5
 20
126.0347138538081
 30
0.0
 40
7.5
100
AcDbArc
 50
180.0
 51
0.0
  0
LINE
  5
3E6
330
1F
100
AcDbEntity
  8
0
 62
     3
100
AcDbLine
 10
58.0
 20
126.0347138538081
 30
0.0
 11
58.0
 21
127.5347138538081
 31
0.0
  0
LINE
  5
3E7
330
1F
100
AcDbEntity
  8
0
 62
     3
100
AcDbLine
 10
43.0
 20
126.0347138538081
 30
0.0
 11
43.0
 21
127.5347138538081
 31
0.0
  0
LINE
  5
3E8
330
1F
100
AcDbEntity
  8
0
 62
     3
100
AcDbLine
 10
43.0
 20
127.5347138538081
 30
0.0
 11
15.0
 21
127.5347138538081
 31
0.0
  0
CIRCLE
  5
3E9
330
1F
100
AcDbEntity
  8
0
 62
     1
100
AcDbCircle
 10
199.527112023635
 20
85.5347138538081
 30
0.0
 40
2.0
  0
CIRCLE
  5
3EA
330
1F
100
AcDbEntity
  8
0
 62
     1
100
AcDbCircle
 10
106.472887976365
 20
85.53471385380813
 30
0.0
 40
2.0
  0
LINE
  5
478
330
1F
100
AcDbEntity
  8
0
 62
     5
100
AcDbLine
 10
38.892796
 20
104.9011047553943
 30
0.0
 11
62.10720399999994
 21
104.9011047553943
 31
0.0
  0
LINE
  5
47C
330
1F
100
AcDbEntity
  8
0
 62
     5
100
AcDbLine
 10
34.93676500000001
 20
100.9450737553943
 30
0.0
 11
34.93676500000001
 21
82.48876042137098
 31
0.0
  0
LINE
  5
47D
330
1F
100
AcDbEntity
  8
0
 62
     5
100
AcDbLine
 10
38.892796
 20
104.0021950453855
 30
0.0
 11
62.10720399999994
 21
104.0021950453855
 31
0.0
  0
ARC
  5
480
330
1F
100
AcDbEntity
  8
0
 62
     5
100
AcDbCircle
 10
38.892796
 20
100.9450737553943
 30
0.0
 40
3.057121289991187
100
AcDbArc
 50
90.0
 51
180.0
  0
ARC
  5
481
330
1F
100
AcDbEntity
  8
0
 62
     5
100
AcDbCircle
 10
38.892796
 20
100.9450737553943
 30
0.0
 40
3.956030999999996
100
AcDbArc
 50
90.0
 51
180.0
  0
LINE
  5
490
330
1F
100
AcDbEntity
  8
0
 62
     5
100
AcDbLine
 10
35.83606857782038
 20
82.43968855353901
 30
0.0
 11
35.83606857782038
 21
92.46285024059026
 31
0.0
  0
ARC
  5
492
330
1F
100
AcDbEntity
  8
0
 62
     5
100
AcDbCircle
 10
38.892796
 20
82.48876042137098
 30
0.0
 40
3.057121289991187
100
AcDbArc
 50
180.0
 51
270.0
  0
ARC
  5
493
330
1F
100
AcDbEntity
  8
0
 62
     5
100
AcDbCircle
 10
38.892796
 20
82.48876042137098
 30
0.0
 40
3.956030999999996
100
AcDbArc
 50
180.0
 51
270.0
  0
LINE
  5
496
330
1F
100
AcDbEntity
  8
0
 62
     5
100
AcDbLine
 10
38.892796
 20
78.53272942137099
 30
0.0
 11
62.10720399999994
 21
78.53272942137099
 31
0.0
  0
LINE
  5
497
330
1F
100
AcDbEntity
  8
0
 62
     5
100
AcDbLine
 10
38.892796
 20
79.4316391313798
 30
0.0
 11
62.10720399999994
 21
79.4316391313798
 31
0.0
  0
ARC
  5
49A
330
1F
100
AcDbEntity
  8
0
 62
     5
100
AcDbCircle
 10
50.49999999999997
 20
97.96655006894676
 30
0.0
 40
1.941122317127622
100
AcDbArc
 50
0.0
 51
180.0
  0
ARC
  5
49B
330
1F
100
AcDbEntity
  8
0
 62
     5
100
AcDbCircle
 10
50.49999999999997
 20
97.96655006894676
 30
0.0
 40
1.008947127304452
100
AcDbArc
 50
0.0
 51
180.0
  0
LINE
  5
49F
330
1F
100
AcDbEntity
  8
0
 62
     5
100
AcDbLine
 10
49.49105287269552
 20
97.96655006894676
 30
0.0
 11
49.49105287269552
 21
85.46728410781853
 31
0.0
  0
LINE
  5
4A0
330
1F
100
AcDbEntity
  8
0
 62
     5
100
AcDbLine
 10
48.55887768287235
 20
97.96655006894676
 30
0.0
 11
48.55887768287235
 21
85.46728410781853
 31
0.0
  0
ARC
  5
4A2
330
1F
100
AcDbEntity
  8
0
 62
     5
100
AcDbCircle
 10
47.5499305555679
 20
85.46728410781853
 30
0.0
 40
1.008947127304452
100
AcDbArc
 50
180.0
 51
0.0
  0
ARC
  5
4A3
330
1F
100
AcDbEntity
  8
0
 62
     5
100
AcDbCircle
 10
47.5499305555679
 20
85.46728410781853
 30
0.0
 40
1.941122317127622
100
AcDbArc
 50
180.0
 51
0.0
  0
LINE
  5
4AB
330
1F
100
AcDbEntity
  8
0
 62
     5
100
AcDbLine
 10
46.54098342826344
 20
85.46728410781853
 30
0.0
 11
46.54098342826344
 21
95.46623380822665
 31
0.0
  0
LINE
  5
4AC
330
1F
100
AcDbEntity
  8
0
 62
     5
100
AcDbLine
 10
45.60880823844028
 20
85.46728410781853
 30
0.0
 11
45.60880823844028
 21
95.46623380822665
 31
0.0
  0
ARC
  5
4AF
330
1F
100
AcDbEntity
  8
0
 62
     5
100
AcDbCircle
 10
41.64821268287236
 20
88.98903790124572
 30
0.0
 40
1.008947127304452
100
AcDbArc
 50
180.0
 51
0.0
  0
ARC
  5
4B0
330
1F
100
AcDbEntity
  8
0
 62
     5
100
AcDbCircle
 10
41.64821268287236
 20
88.98903790124572
 30
0.0
 40
1.941122317127622
100
AcDbArc
 50
180.0
 51
0.0
  0
ARC
  5
4B3
330
1F
100
AcDbEntity
  8
0
 62
     5
100
AcDbCircle
 10
44.59986111113582
 20
95.46623380822665
 30
0.0
 40
1.008947127304452
100
AcDbArc
 50
0.0
 51
180.0
  0
ARC
  5
4B4
330
1F
100
AcDbEntity
  8
0
 62
     5
100
AcDbCircle
 10
44.59986111113582
 20
95.46623380822665
 30
0.0
 40
1.941122317127622
100
AcDbArc
 50
0.0
 51
180.0
  0
LINE
  5
4B7
330
1F
100
AcDbEntity
  8
0
 62
     5
100
AcDbLine
 10
43.59091398383137
 20
88.98903790124572
 30
0.0
 11
43.59091398383137
 21
95.46623380822665
 31
0.0
  0
LINE
  5
4BA
330
1F
100
AcDbEntity
  8
0
 62
     5
100
AcDbLine
 10
42.6587387940082
 20
88.98903790124572
 30
0.0
 11
42.6587387940082
 21
95.46623380822665
 31
0.0
  0
ARC
  5
4BB
330
1F
100
AcDbEntity
  8
0
 62
     5
100
AcDbCircle
 10
38.69814323844028
 20
91.4539031132858
 30
0.0
 40
1.008947127304452
100
AcDbArc
 50
0.0
 51
90.0
  0
ARC
  5
4BC
330
1F
100
AcDbEntity
  8
0
 62
     5
100
AcDbCircle
 10
38.69814323844028
 20
91.4539031132858
 30
0.0
 40
1.941122317127622
100
AcDbArc
 50
0.0
 51
90.0
  0
LINE
  5
4C1
330
1F
100
AcDbEntity
  8
0
 62
     5
100
AcDbLine
 10
35.83606857782038
 20
93.39502543041343
 30
0.0
 11
35.83606857782038
 21
100.9941456232263
 31
0.0
  0
LINE
  5
4CB
330
1F
100
AcDbEntity
  8
0
 62
     5
100
AcDbLine
 10
40.6392655555679
 20
91.4539031132858
 30
0.0
 11
40.6392655555679
 21
88.98903790124572
 31
0.0
  0
LINE
  5
4CC
330
1F
100
AcDbEntity
  8
0
 62
     5
100
AcDbLine
 10
39.70709036574473
 20
91.4539031132858
 30
0.0
 11
39.70709036574473
 21
88.98903790124572
 31
0.0
  0
LINE
  5
4CE
330
1F
100
AcDbEntity
  8
0
 62
     5
100
AcDbLine
 10
35.83606857782038
 20
93.39502543041343
 30
0.0
 11
38.69814323844028
 21
93.39502543041343
 31
0.0
  0
LINE
  5
4CF
330
1F
100
AcDbEntity
  8
0
 62
     5
100
AcDbLine
 10
35.83606857782038
 20
92.46285024059026
 30
0.0
 11
38.69814323844028
 21
92.46285024059026
 31
0.0
  0
ARC
  5
4D7
330
1F
100
AcDbEntity
  8
0
 62
     5
100
AcDbCircle
 10
62.10720399999994
 20
100.9450737553943
 30
0.0
 40
3.057121289991187
100
AcDbArc
 50
0.0
 51
90.0
  0
ARC
  5
4D8
330
1F
100
AcDbEntity
  8
0
 62
     5
100
AcDbCircle
 10
62.10720399999994
 20
100.9450737553943
 30
0.0
 40
3.956030999999996
100
AcDbArc
 50
0.0
 51
90.0
  0
LINE
  5
4D9
330
1F
100
AcDbEntity
  8
0
 62
     5
100
AcDbLine
 10
66.06323499999993
 20
100.9450737553943
 30
0.0
 11
66.06323499999993
 21
82.48876042137098
 31
0.0
  0
ARC
  5
4DA
330
1F
100
AcDbEntity
  8
0
 62
     5
100
AcDbCircle
 10
62.10720399999994
 20
82.48876042137098
 30
0.0
 40
3.057121289991187
100
AcDbArc
 50
270.0
 51
0.0
  0
ARC
  5
4DB
330
1F
100
AcDbEntity
  8
0
 62
     5
100
AcDbCircle
 10
62.10720399999994
 20
82.48876042137098
 30
0.0
 40
3.956030999999996
100
AcDbArc
 50
270.0
 51
0.0
  0
ARC
  5
4DC
330
1F
100
AcDbEntity
  8
0
 62
     5
100
AcDbCircle
 10
53.45006944443205
 20
85.46728410781853
 30
0.0
 40
1.008947127304452
100
AcDbArc
 50
180.0
 51
0.0
  0
ARC
  5
4DD
330
1F
100
AcDbEntity
  8
0
 62
     5
100
AcDbCircle
 10
53.45006944443205
 20
85.46728410781853
 30
0.0
 40
1.941122317127622
100
AcDbArc
 50
180.0
 51
0.0
  0
LINE
  5
4DE
330
1F
100
AcDbEntity
  8
0
 62
     5
100
AcDbLine
 10
51.50894712730442
 20
97.96655006894676
 30
0.0
 11
51.50894712730442
 21
85.46728410781853
 31
0.0
  0
LINE
  5
4DF
330
1F
100
AcDbEntity
  8
0
 62
     5
100
AcDbLine
 10
52.44112231712759
 20
97.96655006894676
 30
0.0
 11
52.44112231712759
 21
85.46728410781853
 31
0.0
  0
ARC
  5
4E0
330
1F
100
AcDbEntity
  8
0
 62
     5
100
AcDbCircle
 10
59.35178731712759
 20
88.98903790124572
 30
0.0
 40
1.008947127304452
100
AcDbArc
 50
180.0
 51
0.0
  0
ARC
  5
4E1
330
1F
100
AcDbEntity
  8
0
 62
     5
100
AcDbCircle
 10
59.35178731712759
 20
88.98903790124572
 30
0.0
 40
1.941122317127622
100
AcDbArc
 50
180.0
 51
0.0
  0
ARC
  5
4E2
330
1F
100
AcDbEntity
  8
0
 62
     5
100
AcDbCircle
 10
56.40013888886412
 20
95.46623380822665
 30
0.0
 40
1.008947127304452
100
AcDbArc
 50
0.0
 51
180.0
  0
ARC
  5
4E3
330
1F
100
AcDbEntity
  8
0
 62
     5
100
AcDbCircle
 10
56.40013888886412
 20
95.46623380822665
 30
0.0
 40
1.941122317127622
100
AcDbArc
 50
0.0
 51
180.0
  0
ARC
  5
4E4
330
1F
100
AcDbEntity
  8
0
 62
     5
100
AcDbCircle
 10
62.30185676155966
 20
91.4539031132858
 30
0.0
 40
1.008947127304452
100
AcDbArc
 50
90.0
 51
180.0
  0
ARC
  5
4E5
330
1F
100
AcDbEntity
  8
0
 62
     5
100
AcDbCircle
 10
62.30185676155966
 20
91.4539031132858
 30
0.0
 40
1.941122317127622
100
AcDbArc
 50
90.0
 51
180.0
  0
LINE
  5
4E6
330
1F
100
AcDbEntity
  8
0
 62
     5
100
AcDbLine
 10
65.16393142217956
 20
93.39502543041343
 30
0.0
 11
65.16393142217956
 21
100.9941456232263
 31
0.0
  0
LINE
  5
4E7
330
1F
100
AcDbEntity
  8
0
 62
     5
100
AcDbLine
 10
65.16393142217956
 20
82.43968855353901
 30
0.0
 11
65.16393142217956
 21
92.46285024059026
 31
0.0
  0
LINE
  5
4E8
330
1F
100
AcDbEntity
  8
0
 62
     5
100
AcDbLine
 10
54.4590165717365
 20
85.46728410781853
 30
0.0
 11
54.4590165717365
 21
95.46623380822665
 31
0.0
  0
LINE
  5
4E9
330
1F
100
AcDbEntity
  8
0
 62
     5
100
AcDbLine
 10
58.34126120599174
 20
88.98903790124572
 30
0.0
 11
58.34126120599174
 21
95.46623380822665
 31
0.0
  0
LINE
  5
4EA
330
1F
100
AcDbEntity
  8
0
 62
     5
100
AcDbLine
 10
57.40908601616857
 20
88.98903790124572
 30
0.0
 11
57.40908601616857
 21
95.46623380822665
 31
0.0
  0
LINE
  5
4EB
330
1F
100
AcDbEntity
  8
0
 62
     5
100
AcDbLine
 10
55.39119176155967
 20
85.46728410781853
 30
0.0
 11
55.39119176155967
 21
95.46623380822665
 31
0.0
  0
LINE
  5
4EC
330
1F
100
AcDbEntity
  8
0
 62
     5
100
AcDbLine
 10
65.16393142217956
 20
92.46285024059026
 30
0.0
 11
62.30185676155966
 21
92.46285024059026
 31
0.0
  0
LINE
  5
4ED
330
1F
100
AcDbEntity
  8
0
 62
     5
100
AcDbLine
 10
65.16393142217956
 20
93.39502543041343
 30
0.0
 11
62.30185676155966
 21
93.39502543041343
 31
0.0
  0
LINE
  5
4EE
330
1F
100
AcDbEntity
  8
0
 62
     5
100
AcDbLine
 10
60.36073444443204
 20
91.4539031132858
 30
0.0
 11
60.36073444443204
 21
88.98903790124572
 31
0.0
  0
LINE
  5
4EF
330
1F
100
AcDbEntity
  8
0
 62
     5
100
AcDbLine
 10
61.29290963425521
 20
91.4539031132858
 30
0.0
 11
61.29290963425521
 21
88.98903790124572
 31
0.0
  0
CIRCLE
  5
4F7
330
1F
100
AcDbEntity
  8
0
 62
     1
100
AcDbCircle
 10
153.0
 20
119.0347138538081
 30
0.0
 40
4.5
  0
ENDSEC
  0
SECTION
  2
OBJECTS
  0
DICTIONARY
  5
C
330
0
100
AcDbDictionary
281
     1
  3
ACAD_COLOR
350
73
  3
ACAD_DETAILVIEWSTYLE
350
122
  3
ACAD_GROUP
350
D
  3
ACAD_IMAGE_VARS
350
DC
  3
ACAD_LAYOUT
350
1A
  3
ACAD_MATERIAL
350
72
  3
ACAD_MLEADERSTYLE
350
B5
  3
ACAD_MLINESTYLE
350
17
  3
ACAD_PLOTSETTINGS
350
19
  3
ACAD_PLOTSTYLENAME
350
E
  3
ACAD_SCALELIST
350
B6
  3
ACAD_SECTIONVIEWSTYLE
350
123
  3
ACAD_TABLESTYLE
350
86
  3
ACAD_VISUALSTYLE
350
99
  3
AcDbVariableDictionary
350
66
  3
ACDB_RECOMPOSE_DATA
350
4FD
  3
APPDATA
350
E1
  0
SUN
  5
ED
330
94
100
AcDbSun
 90
        1
290
     0
 63
     7
421
 16777215
 40
1.0
291
     1
 91
  2455826
 92
 54000000
292
     0
 70
     2
 71
   256
280
     1
  0
DICTIONARY
  5
73
102
{ACAD_REACTORS
330
C
102
}
330
C
100
AcDbDictionary
281
     1
  0
DICTIONARY
  5
122
102
{ACAD_REACTORS
330
C
102
}
330
C
100
AcDbDictionary
281
     1
  0
DICTIONARY
  5
D
102
{ACAD_REACTORS
330
C
102
}
330
C
100
AcDbDictionary
281
     1
  0
RASTERVARIABLES
  5
DC
102
{ACAD_REACTORS
330
C
102
}
330
C
100
AcDbRasterVariables
 90
        0
 70
     1
 71
     1
 72
     5
  0
DICTIONARY
  5
1A
102
{ACAD_REACTORS
330
C
102
}
330
C
100
AcDbDictionary
281
     1
  3
Model
350
22
  3
Sheet1
350
59
  3
Sheet2
350
5E
  0
DICTIONARY
  5
72
102
{ACAD_REACTORS
330
C
102
}
330
C
100
AcDbDictionary
281
     1
  3
ByBlock
350
E2
  3
ByLayer
350
96
  3
Global
350
98
  0
DICTIONARY
  5
B5
102
{ACAD_REACTORS
330
C
102
}
330
C
100
AcDbDictionary
281
     1
  3
Standard
350
124
  0
DICTIONARY
  5
17
102
{ACAD_REACTORS
330
C
102
}
330
C
100
AcDbDictionary
281
     1
  3
Standard
350
18
  0
DICTIONARY
  5
19
102
{ACAD_REACTORS
330
C
102
}
330
C
100
AcDbDictionary
281
     1
  0
ACDBDICTIONARYWDFLT
  5
E
102
{ACAD_REACTORS
330
C
102
}
330
C
100
AcDbDictionary
281
     1
  3
Normal
350
F
100
AcDbDictionaryWithDefault
340
F
  0
DICTIONARY
  5
B6
102
{ACAD_REACTORS
330
C
102
}
330
C
100
AcDbDictionary
281
     1
  3
A0
350
B7
  3
A1
350
B8
  3
A2
350
B9
  3
A3
350
BA
  3
A4
350
BB
  3
A5
350
BC
  3
A6
350
BD
  3
A7
350
BE
  3
A8
350
BF
  3
A9
350
C0
  3
B0
350
C1
  3
B1
350
C2
  3
B2
350
C3
  3
B3
350
C4
  3
B4
350
C5
  3
B5
350
C6
  3
B6
350
C7
  3
B7
350
C8
  3
B8
350
C9
  3
B9
350
CA
  3
C0
350
CB
  3
C1
350
CC
  3
C2
350
CD
  3
C3
350
CE
  3
C4
350
CF
  3
C5
350
D0
  3
C6
350
D1
  3
C7
350
D2
  3
C8
350
D3
  3
C9
350
D4
  3
D0
350
D5
  3
D1
350
D6
  3
D2
350
D7
  0
DICTIONARY
  5
123
102
{ACAD_REACTORS
330
C
102
}
330
C
100
AcDbDictionary
281
     1
  0
DICTIONARY
  5
86
102
{ACAD_REACTORS
330
C
102
}
330
C
100
AcDbDictionary
281
     1
  3
Standard
350
87
  0
DICTIONARY
  5
99
102
{ACAD_REACTORS
330
C
102
}
330
C
100
AcDbDictionary
281
     1
  3
2dWireframe
350
9F
  3
3D Hidden
350
A1
  3
3dWireframe
350
A0
  3
Basic
350
9E
  3
Brighten
350
A5
  3
ColorChange
350
A9
  3
Conceptual
350
A2
  3
Dim
350
A4
  3
EdgeColorOff
350
E7
  3
Facepattern
350
A8
  3
Flat
350
9A
  3
FlatWithEdges
350
9B
  3
Gouraud
350
9C
  3
GouraudWithEdges
350
9D
  3
Hidden
350
E4
  3
JitterOff
350
E5
  3
Linepattern
350
A7
  3
OverhangOff
350
E6
  3
Realistic
350
A3
  3
Shaded
350
EC
  3
Shaded with edges
350
EB
  3
Shades of Gray
350
E8
  3
Sketchy
350
E9
  3
Thicken
350
A6
  3
Wireframe
350
E3
  3
X-Ray
350
EA
  0
DICTIONARY
  5
66
102
{ACAD_REACTORS
330
C
102
}
330
C
100
AcDbDictionary
281
     1
  3
CANNOSCALE
350
D8
  3
CMLEADERSTYLE
350
12D
  3
CTABLESTYLE
350
89
  3
DIMASSOC
350
67
  3
HIDETEXT
350
6B
  3
LIGHTSINBLOCKS
350
DF
  3
XCLIPFRAME
350
E0
  0
XRECORD
  5
4FD
102
{ACAD_REACTORS
330
C
102
}
330
C
100
AcDbXrecord
280
     1
 90
        1
330
87
  0
DICTIONARY
  5
E1
102
{ACAD_REACTORS
330
C
102
}
330
C
100
AcDbDictionary
281
     1
  0
LAYOUT
  5
22
102
{ACAD_REACTORS
330
1A
102
}
330
1A
100
AcDbPlotSettings
  1

  2
none_device
  4
ANSI_A_(8.50_x_11.00_Inches)
  6

 40
6.35
 41
19.05
 42
6.35
 43
19.05
 44
215.9
 45
279.4
 46
11.11250000000003
 47
0.0000000000000142
 48
0.0
 49
0.0
140
0.0
141
0.0
142
1.0
143
1.263157894736842
 70
 11444
 72
     0
 73
     1
 74
     1
  7
monochrome.ctb
 75
     0
 76
     0
 77
     2
 78
   300
147
0.7916666666666665
148
-702.8076765758875
149
-496.2830551296954
100
AcDbLayout
  1
Model
 70
     1
 71
     0
 10
0.0
 20
0.0
 11
12.0
 21
9.0
 12
0.0
 22
0.0
 32
0.0
 14
0.0
 24
0.0
 34
0.0
 15
205.0000000000001
 25
127.5347138538081
 35
0.0
146
0.0
 13
0.0
 23
0.0
 33
0.0
 16
1.0
 26
0.0
 36
0.0
 17
0.0
 27
1.0
 37
0.0
 76
     0
330
1F
331
94
  0
LAYOUT
  5
59
102
{ACAD_REACTORS
330
1A
102
}
330
1A
100
AcDbPlotSettings
  1

  2
None
  4

  6

 40
0.0
 41
0.0
 42
0.0
 43
0.0
 44
0.0
 45
0.0
 46
0.0
 47
0.0
 48
0.0
 49
0.0
140
0.0
141
0.0
142
1.0
143
1.0
 70
   688
 72
     0
 73
     0
 74
     5
  7

 75
    16
 76
     0
 77
     2
 78
   300
147
1.0
148
0.0
149
0.0
100
AcDbLayout
  1
Sheet1
 70
     1
 71
     1
 10
0.0
 20
0.0
 11
12.0
 21
9.0
 12
0.0
 22
0.0
 32
0.0
 14
0.0
 24
0.0
 34
0.0
 15
0.0
 25
0.0
 35
0.0
146
0.0
 13
0.0
 23
0.0
 33
0.0
 16
1.0
 26
0.0
 36
0.0
 17
0.0
 27
1.0
 37
0.0
 76
     0
330
58
  0
LAYOUT
  5
5E
102
{ACAD_REACTORS
330
1A
102
}
330
1A
100
AcDbPlotSettings
  1

  2
None
  4

  6

 40
0.0
 41
0.0
 42
0.0
 43
0.0
 44
0.0
 45
0.0
 46
0.0
 47
0.0
 48
0.0
 49
0.0
140
0.0
141
0.0
142
1.0
143
1.0
 70
   688
 72
     0
 73
     0
 74
     5
  7

 75
    16
 76
     0
 77
     2
 78
   300
147
1.0
148
0.0
149
0.0
100
AcDbLayout
  1
Sheet2
 70
     1
 71
     2
 10
0.0
 20
0.0
 11
12.0
 21
9.0
 12
0.0
 22
0.0
 32
0.0
 14
0.0
 24
0.0
 34
0.0
 15
0.0
 25
0.0
 35
0.0
146
0.0
 13
0.0
 23
0.0
 33
0.0
 16
1.0
 26
0.0
 36
0.0
 17
0.0
 27
1.0
 37
0.0
 76
     0
330
5D
  0
MATERIAL
  5
E2
102
{ACAD_REACTORS
330
72
102
}
330
72
100
AcDbMaterial
  1
ByBlock
 72
     1
 94
      127
  0
MATERIAL
  5
96
102
{ACAD_REACTORS
330
72
102
}
330
72
100
AcDbMaterial
  1
ByLayer
 72
     1
 94
       63
  0
MATERIAL
  5
98
102
{ACAD_REACTORS
330
72
102
}
330
72
100
AcDbMaterial
  1
Global
 72
     1
 94
       63
  0
MLEADERSTYLE
  5
124
102
{ACAD_REACTORS
330
B5
102
}
330
B5
100
AcDbMLeaderStyle
179
     2
170
     2
171
     1
172
     0
 90
        2
 40
0.0
 41
0.0
173
     1
 91
-1056964608
340
14
 92
       -2
290
     1
 42
0.09
291
     1
 43
0.36
  3
Standard
341
0
 44
0.18
300

342
11
174
     1
178
     1
175
     1
176
     0
 93
-1056964608
 45
0.18
292
     0
297
     0
 46
0.18
343
0
 94
-1056964608
 47
1.0
 49
1.0
140
1.0
293
     1
141
0.0
294
     1
177
     0
142
1.0
295
     0
296
     0
143
0.125
271
     0
272
     9
273
     9
298
     0
  0
MLINESTYLE
  5
18
102
{ACAD_REACTORS
330
17
102
}
330
17
100
AcDbMlineStyle
  2
STANDARD
 70
     0
  3

 62
   256
 51
90.0
 52
90.0
 71
     2
 49
0.5
 62
   256
  6
BYLAYER
 49
-0.5
 62
   256
  6
BYLAYER
  0
ACDBPLACEHOLDER
  5
F
102
{ACAD_REACTORS
330
E
102
}
330
E
  0
SCALE
  5
B7
102
{ACAD_REACTORS
330
B6
102
}
330
B6
100
AcDbScale
 70
     0
300
1:1
140
1.0
141
1.0
290
     1
  0
SCALE
  5
B8
102
{ACAD_REACTORS
330
B6
102
}
330
B6
100
AcDbScale
 70
     0
300
1:2
140
1.0
141
2.0
290
     0
  0
SCALE
  5
B9
102
{ACAD_REACTORS
330
B6
102
}
330
B6
100
AcDbScale
 70
     0
300
1:4
140
1.0
141
4.0
290
     0
  0
SCALE
  5
BA
102
{ACAD_REACTORS
330
B6
102
}
330
B6
100
AcDbScale
 70
     0
300
1:5
140
1.0
141
5.0
290
     0
  0
SCALE
  5
BB
102
{ACAD_REACTORS
330
B6
102
}
330
B6
100
AcDbScale
 70
     0
300
1:8
140
1.0
141
8.0
290
     0
  0
SCALE
  5
BC
102
{ACAD_REACTORS
330
B6
102
}
330
B6
100
AcDbScale
 70
     0
300
1:10
140
1.0
141
10.0
290
     0
  0
SCALE
  5
BD
102
{ACAD_REACTORS
330
B6
102
}
330
B6
100
AcDbScale
 70
     0
300
1:16
140
1.0
141
16.0
290
     0
  0
SCALE
  5
BE
102
{ACAD_REACTORS
330
B6
102
}
330
B6
100
AcDbScale
 70
     0
300
1:20
140
1.0
141
20.0
290
     0
  0
SCALE
  5
BF
102
{ACAD_REACTORS
330
B6
102
}
330
B6
100
AcDbScale
 70
     0
300
1:30
140
1.0
141
30.0
290
     0
  0
SCALE
  5
C0
102
{ACAD_REACTORS
330
B6
102
}
330
B6
100
AcDbScale
 70
     0
300
1:40
140
1.0
141
40.0
290
     0
  0
SCALE
  5
C1
102
{ACAD_REACTORS
330
B6
102
}
330
B6
100
AcDbScale
 70
     0
300
1:50
140
1.0
141
50.0
290
     0
  0
SCALE
  5
C2
102
{ACAD_REACTORS
330
B6
102
}
330
B6
100
AcDbScale
 70
     0
300
1:100
140
1.0
141
100.0
290
     0
  0
SCALE
  5
C3
102
{ACAD_REACTORS
330
B6
102
}
330
B6
100
AcDbScale
 70
     0
300
2:1
140
2.0
141
1.0
290
     0
  0
SCALE
  5
C4
102
{ACAD_REACTORS
330
B6
102
}
330
B6
100
AcDbScale
 70
     0
300
4:1
140
4.0
141
1.0
290
     0
  0
SCALE
  5
C5
102
{ACAD_REACTORS
330
B6
102
}
330
B6
100
AcDbScale
 70
     0
300
8:1
140
8.0
141
1.0
290
     0
  0
SCALE
  5
C6
102
{ACAD_REACTORS
330
B6
102
}
330
B6
100
AcDbScale
 70
     0
300
10:1
140
10.0
141
1.0
290
     0
  0
SCALE
  5
C7
102
{ACAD_REACTORS
330
B6
102
}
330
B6
100
AcDbScale
 70
     0
300
100:1
140
100.0
141
1.0
290
     0
  0
SCALE
  5
C8
102
{ACAD_REACTORS
330
B6
102
}
330
B6
100
AcDbScale
 70
     0
300
1/128" = 1'-0"
140
0.0078125
141
12.0
290
     0
  0
SCALE
  5
C9
102
{ACAD_REACTORS
330
B6
102
}
330
B6
100
AcDbScale
 70
     0
300
1/64" = 1'-0"
140
0.015625
141
12.0
290
     0
  0
SCALE
  5
CA
102
{ACAD_REACTORS
330
B6
102
}
330
B6
100
AcDbScale
 70
     0
300
1/32" = 1'-0"
140
0.03125
141
12.0
290
     0
  0
SCALE
  5
CB
102
{ACAD_REACTORS
330
B6
102
}
330
B6
100
AcDbScale
 70
     0
300
1/16" = 1'-0"
140
0.0625
141
12.0
290
     0
  0
SCALE
  5
CC
102
{ACAD_REACTORS
330
B6
102
}
330
B6
100
AcDbScale
 70
     0
300
3/32" = 1'-0"
140
0.09375
141
12.0
290
     0
  0
SCALE
  5
CD
102
{ACAD_REACTORS
330
B6
102
}
330
B6
100
AcDbScale
 70
     0
300
1/8" = 1'-0"
140
0.125
141
12.0
290
     0
  0
SCALE
  5
CE
102
{ACAD_REACTORS
330
B6
102
}
330
B6
100
AcDbScale
 70
     0
300
3/16" = 1'-0"
140
0.1875
141
12.0
290
     0
  0
SCALE
  5
CF
102
{ACAD_REACTORS
330
B6
102
}
330
B6
100
AcDbScale
 70
     0
300
1/4" = 1'-0"
140
0.25
141
12.0
290
     0
  0
SCALE
  5
D0
102
{ACAD_REACTORS
330
B6
102
}
330
B6
100
AcDbScale
 70
     0
300
3/8" = 1'-0"
140
0.375
141
12.0
290
     0
  0
SCALE
  5
D1
102
{ACAD_REACTORS
330
B6
102
}
330
B6
100
AcDbScale
 70
     0
300
1/2" = 1'-0"
140
0.5
141
12.0
290
     0
  0
SCALE
  5
D2
102
{ACAD_REACTORS
330
B6
102
}
330
B6
100
AcDbScale
 70
     0
300
3/4" = 1'-0"
140
0.75
141
12.0
290
     0
  0
SCALE
  5
D3
102
{ACAD_REACTORS
330
B6
102
}
330
B6
100
AcDbScale
 70
     0
300
1" = 1'-0"
140
1.0
141
12.0
290
     0
  0
SCALE
  5
D4
102
{ACAD_REACTORS
330
B6
102
}
330
B6
100
AcDbScale
 70
     0
300
1-1/2" = 1'-0"
140
1.5
141
12.0
290
     0
  0
SCALE
  5
D5
102
{ACAD_REACTORS
330
B6
102
}
330
B6
100
AcDbScale
 70
     0
300
3" = 1'-0"
140
3.0
141
12.0
290
     0
  0
SCALE
  5
D6
102
{ACAD_REACTORS
330
B6
102
}
330
B6
100
AcDbScale
 70
     0
300
6" = 1'-0"
140
6.0
141
12.0
290
     0
  0
SCALE
  5
D7
102
{ACAD_REACTORS
330
B6
102
}
330
B6
100
AcDbScale
 70
     0
300
1'-0" = 1'-0"
140
12.0
141
12.0
290
     0
  0
TABLESTYLE
  5
87
102
{ACAD_REACTORS
330
86
102
}
102
{ACAD_XDICTIONARY
360
4FB
102
}
330
86
100
AcDbTableStyle
  3
Standard
 70
     0
 71
     0
 40
0.06
 41
0.06
280
     0
281
     0
  7
Standard
140
0.18
170
     2
 62
     0
 63
   257
283
     0
 90
      512
 91
        0
  1

274
    -2
284
     1
 64
     0
275
    -2
285
     1
 65
     0
276
    -2
286
     1
 66
     0
277
    -2
287
     1
 67
     0
278
    -2
288
     1
 68
     0
279
    -2
289
     1
 69
     0
  7
Standard
140
0.25
170
     5
 62
     0
 63
   257
283
     0
 90
      512
 91
        0
  1

274
    -2
284
     1
 64
     0
275
    -2
285
     1
 65
     0
276
    -2
286
     1
 66
     0
277
    -2
287
     1
 67
     0
278
    -2
288
     1
 68
     0
279
    -2
289
     1
 69
     0
  7
Standard
140
0.18
170
     5
 62
     0
 63
   257
283
     0
 90
      512
 91
        0
  1

274
    -2
284
     1
 64
     0
275
    -2
285
     1
 65
     0
276
    -2
286
     1
 66
     0
277
    -2
287
     1
 67
     0
278
    -2
288
     1
 68
     0
279
    -2
289
     1
 69
     0
  0
VISUALSTYLE
  5
9F
102
{ACAD_REACTORS
330
99
102
}
330
99
100
AcDbVisualStyle
  2
2dWireframe
 70
     4
177
     3
291
     0
 70
    58
 90
        0
176
     1
 90
        2
176
     1
 90
        1
176
     1
 90
        0
176
     1
 40
-0.6
176
     1
 40
-30.0
176
     1
 62
     7
420
 16777215
176
     1
 90
        1
176
     1
 90
        4
176
     1
 62
     7
176
     1
 62
   257
176
     1
 90
        1
176
     1
 90
        1
176
     1
 40
1.0
176
     1
 90
        0
176
     1
 62
   257
176
     1
 40
1.0
176
     1
 90
        1
176
     1
 90
        6
176
     1
 90
        2
176
     1
 62
     7
176
     1
 90
        5
176
     1
 90
        0
176
     1
 90
        0
176
     1
290
     0
176
     1
 90
        1
176
     1
 40
0.0
176
     1
 90
        0
176
     1
290
     1
176
     1
290
     1
176
     1
290
     0
176
     1
290
     0
176
     1
290
     0
176
     1
290
     0
176
     1
290
     0
176
     1
290
     0
176
     1
290
     0
176
     1
 90
       50
176
     1
 40
0.0
176
     1
 40
1.0
176
     1
 90
        0
176
     1
 62
   178
420
        0
176
     1
 90
       50
176
     1
 90
        3
176
     1
 62
     5
420
      255
176
     1
290
     0
176
     1
 90
       50
176
     1
 90
       50
176
     1
 90
       50
176
     1
290
     0
176
     1
 90
       50
176
     1
 62
   256
176
     0
 40
1.0
176
     0
 90
        2
176
     1
  1
strokes_ogs.tif
176
     1
290
     0
176
     1
 40
1.0
176
     1
 40
1.0
176
     1
  0
VISUALSTYLE
  5
A1
102
{ACAD_REACTORS
330
99
102
}
330
99
100
AcDbVisualStyle
  2
3D Hidden
 70
     6
177
     3
291
     0
 70
    58
 90
        1
176
     1
 90
        2
176
     1
 90
        2
176
     1
 90
        0
176
     1
 40
-0.6
176
     1
 40
-30.0
176
     1
 62
     7
420
 16777215
176
     1
 90
        2
176
     1
 90
        2
176
     1
 62
     7
176
     1
 62
   257
176
     1
 90
        2
176
     1
 90
        1
176
     1
 40
40.0
176
     1
 90
        0
176
     1
 62
   257
176
     1
 40
1.0
176
     1
 90
        1
176
     1
 90
        6
176
     1
 90
        2
176
     1
 62
     7
176
     1
 90
        3
176
     1
 90
        0
176
     1
 90
        0
176
     1
290
     0
176
     1
 90
        1
176
     1
 40
0.0
176
     1
 90
        0
176
     1
290
     0
176
     1
290
     1
176
     1
290
     1
176
     1
290
     0
176
     1
290
     0
176
     1
290
     0
176
     1
290
     0
176
     1
290
     0
176
     1
290
     0
176
     1
 90
       50
176
     1
 40
0.0
176
     1
 40
1.0
176
     1
 90
        0
176
     1
 62
   178
420
        0
176
     1
 90
       50
176
     1
 90
        3
176
     1
 62
     5
420
      255
176
     1
290
     0
176
     1
 90
       50
176
     1
 90
       50
176
     1
 90
       50
176
     1
290
     0
176
     1
 90
       50
176
     1
 62
   256
176
     0
 40
1.0
176
     0
 90
        2
176
     1
  1
strokes_ogs.tif
176
     1
290
     0
176
     1
 40
1.0
176
     1
 40
1.0
176
     1
  0
VISUALSTYLE
  5
A0
102
{ACAD_REACTORS
330
99
102
}
330
99
100
AcDbVisualStyle
  2
3dWireframe
 70
     5
177
     3
291
     0
 70
    58
 90
        0
176
     1
 90
        2
176
     1
 90
        1
176
     1
 90
        0
176
     1
 40
-0.6
176
     1
 40
-30.0
176
     1
 62
     7
420
 16777215
176
     1
 90
        1
176
     1
 90
        4
176
     1
 62
     7
176
     1
 62
   257
176
     1
 90
        1
176
     1
 90
        1
176
     1
 40
1.0
176
     1
 90
        0
176
     1
 62
   257
176
     1
 40
1.0
176
     1
 90
        1
176
     1
 90
        6
176
     1
 90
        2
176
     1
 62
     7
176
     1
 90
        5
176
     1
 90
        0
176
     1
 90
        0
176
     1
290
     0
176
     1
 90
        1
176
     1
 40
0.0
176
     1
 90
        0
176
     1
290
     0
176
     1
290
     1
176
     1
290
     1
176
     1
290
     0
176
     1
290
     0
176
     1
290
     0
176
     1
290
     0
176
     1
290
     0
176
     1
290
     0
176
     1
 90
       50
176
     1
 40
0.0
176
     1
 40
1.0
176
     1
 90
        0
176
     1
 62
   178
420
        0
176
     1
 90
       50
176
     1
 90
        3
176
     1
 62
     5
420
      255
176
     1
290
     0
176
     1
 90
       50
176
     1
 90
       50
176
     1
 90
       50
176
     1
290
     0
176
     1
 90
       50
176
     1
 62
   256
176
     0
 40
1.0
176
     0
 90
        2
176
     1
  1
strokes_ogs.tif
176
     1
290
     0
176
     1
 40
1.0
176
     1
 40
1.0
176
     1
  0
VISUALSTYLE
  5
9E
102
{ACAD_REACTORS
330
99
102
}
330
99
100
AcDbVisualStyle
  2
Basic
 70
     7
177
     3
291
     1
 70
    58
 90
        1
176
     1
 90
        0
176
     1
 90
        1
176
     1
 90
        0
176
     1
 40
-0.6
176
     1
 40
-30.0
176
     1
 62
     7
420
 16777215
176
     1
 90
        0
176
     1
 90
        4
176
     1
 62
     7
176
     1
 62
   257
176
     1
 90
        1
176
     1
 90
        1
176
     1
 40
1.0
176
     1
 90
        8
176
     1
 62
     7
176
     1
 40
1.0
176
     1
 90
        1
176
     1
 90
        6
176
     1
 90
        2
176
     1
 62
     7
176
     1
 90
        5
176
     1
 90
        0
176
     1
 90
        0
176
     1
290
     0
176
     1
 90
        1
176
     1
 40
0.0
176
     1
 90
        0
176
     1
290
     0
176
     1
290
     1
176
     1
290
     1
176
     1
290
     0
176
     1
290
     0
176
     1
290
     0
176
     1
290
     0
176
     1
290
     0
176
     1
290
     0
176
     1
 90
       50
176
     1
 40
0.0
176
     1
 40
1.0
176
     1
 90
        0
176
     1
 62
   178
420
        0
176
     1
 90
       50
176
     1
 90
        3
176
     1
 62
     5
420
      255
176
     1
290
     0
176
     1
 90
       50
176
     1
 90
       50
176
     1
 90
       50
176
     1
290
     0
176
     1
 90
       50
176
     1
 62
   256
176
     0
 40
1.0
176
     0
 90
        2
176
     1
  1
strokes_ogs.tif
176
     1
290
     0
176
     1
 40
1.0
176
     1
 40
1.0
176
     1
  0
VISUALSTYLE
  5
A5
102
{ACAD_REACTORS
330
99
102
}
330
99
100
AcDbVisualStyle
  2
Brighten
 70
    12
177
     3
291
     1
 70
    58
 90
        2
176
     1
 90
        2
176
     1
 90
        1
176
     1
 90
        0
176
     1
 40
-0.6
176
     1
 40
-30.0
176
     1
 62
     7
420
 16777215
176
     1
 90
        1
176
     1
 90
        4
176
     1
 62
     7
176
     1
 62
   257
176
     1
 90
        1
176
     1
 90
        1
176
     1
 40
1.0
176
     1
 90
        8
176
     1
 62
     7
176
     1
 40
1.0
176
     1
 90
        1
176
     1
 90
        6
176
     1
 90
        2
176
     1
 62
     7
176
     1
 90
        5
176
     1
 90
        0
176
     1
 90
        0
176
     1
290
     0
176
     1
 90
        1
176
     1
 40
50.0
176
     1
 90
        0
176
     1
290
     0
176
     1
290
     1
176
     1
290
     1
176
     1
290
     0
176
     1
290
     0
176
     1
290
     0
176
     1
290
     0
176
     1
290
     0
176
     1
290
     0
176
     1
 90
       50
176
     1
 40
0.0
176
     1
 40
1.0
176
     1
 90
        0
176
     1
 62
   178
420
        0
176
     1
 90
       50
176
     1
 90
        3
176
     1
 62
     5
420
      255
176
     1
290
     0
176
     1
 90
       50
176
     1
 90
       50
176
     1
 90
       50
176
     1
290
     0
176
     1
 90
       50
176
     1
 62
   256
176
     0
 40
1.0
176
     0
 90
        2
176
     1
  1
strokes_ogs.tif
176
     1
290
     0
176
     1
 40
1.0
176
     1
 40
1.0
176
     1
  0
VISUALSTYLE
  5
A9
102
{ACAD_REACTORS
330
99
102
}
330
99
100
AcDbVisualStyle
  2
ColorChange
 70
    16
177
     3
291
     1
 70
    58
 90
        2
176
     1
 90
        2
176
     1
 90
        3
176
     1
 90
        0
176
     1
 40
-0.6
176
     1
 40
-30.0
176
     1
 62
     8
420
  8421504
176
     1
 90
        1
176
     1
 90
        4
176
     1
 62
     7
176
     1
 62
   257
176
     1
 90
        1
176
     1
 90
        1
176
     1
 40
1.0
176
     1
 90
        8
176
     1
 62
     8
420
  8421504
176
     1
 40
1.0
176
     1
 90
        1
176
     1
 90
        6
176
     1
 90
        2
176
     1
 62
     7
176
     1
 90
        5
176
     1
 90
        0
176
     1
 90
        0
176
     1
290
     0
176
     1
 90
        1
176
     1
 40
0.0
176
     1
 90
        0
176
     1
290
     0
176
     1
290
     1
176
     1
290
     1
176
     1
290
     0
176
     1
290
     0
176
     1
290
     0
176
     1
290
     0
176
     1
290
     0
176
     1
290
     0
176
     1
 90
       50
176
     1
 40
0.0
176
     1
 40
1.0
176
     1
 90
        0
176
     1
 62
   178
420
        0
176
     1
 90
       50
176
     1
 90
        3
176
     1
 62
     5
420
      255
176
     1
290
     0
176
     1
 90
       50
176
     1
 90
       50
176
     1
 90
       50
176
     1
290
     0
176
     1
 90
       50
176
     1
 62
   256
176
     0
 40
1.0
176
     0
 90
        2
176
     1
  1
strokes_ogs.tif
176
     1
290
     0
176
     1
 40
1.0
176
     1
 40
1.0
176
     1
  0
VISUALSTYLE
  5
A2
102
{ACAD_REACTORS
330
99
102
}
330
99
100
AcDbVisualStyle
  2
Conceptual
 70
     9
177
     3
291
     0
 70
    58
 90
        3
176
     1
 90
        2
176
     1
 90
        1
176
     1
 90
        0
176
     1
 40
-0.6
176
     1
 40
-30.0
176
     1
 62
     7
420
 16777215
176
     1
 90
        2
176
     1
 90
        2
176
     1
 62
     7
176
     1
 62
   257
176
     1
 90
        1
176
     1
 90
        1
176
     1
 40
40.0
176
     1
 90
        8
176
     1
 62
     7
176
     1
 40
1.0
176
     1
 90
        1
176
     1
 90
        6
176
     1
 90
        2
176
     1
 62
     7
176
     1
 90
        3
176
     1
 90
        0
176
     1
 90
        0
176
     1
290
     0
176
     1
 90
        1
176
     1
 40
0.0
176
     1
 90
        0
176
     1
290
     0
176
     1
290
     1
176
     1
290
     1
176
     1
290
     0
176
     1
290
     0
176
     1
290
     0
176
     1
290
     0
176
     1
290
     0
176
     1
290
     0
176
     1
 90
       50
176
     1
 40
0.0
176
     1
 40
1.0
176
     1
 90
        0
176
     1
 62
   178
420
        0
176
     1
 90
       50
176
     1
 90
        3
176
     1
 62
     5
420
      255
176
     1
290
     0
176
     1
 90
       50
176
     1
 90
       50
176
     1
 90
       50
176
     1
290
     0
176
     1
 90
       50
176
     1
 62
   256
176
     0
 40
1.0
176
     0
 90
        2
176
     1
  1
strokes_ogs.tif
176
     1
290
     0
176
     1
 40
1.0
176
     1
 40
1.0
176
     1
  0
VISUALSTYLE
  5
A4
102
{ACAD_REACTORS
330
99
102
}
330
99
100
AcDbVisualStyle
  2
Dim
 70
    11
177
     3
291
     1
 70
    58
 90
        2
176
     1
 90
        2
176
     1
 90
        1
176
     1
 90
        0
176
     1
 40
-0.6
176
     1
 40
-30.0
176
     1
 62
     7
420
 16777215
176
     1
 90
        1
176
     1
 90
        4
176
     1
 62
     7
176
     1
 62
   257
176
     1
 90
        1
176
     1
 90
        1
176
     1
 40
1.0
176
     1
 90
        8
176
     1
 62
     7
176
     1
 40
1.0
176
     1
 90
        1
176
     1
 90
        6
176
     1
 90
        2
176
     1
 62
     7
176
     1
 90
        5
176
     1
 90
        0
176
     1
 90
        0
176
     1
290
     0
176
     1
 90
        1
176
     1
 40
-50.0
176
     1
 90
        0
176
     1
290
     0
176
     1
290
     1
176
     1
290
     1
176
     1
290
     0
176
     1
290
     0
176
     1
290
     0
176
     1
290
     0
176
     1
290
     0
176
     1
290
     0
176
     1
 90
       50
176
     1
 40
0.0
176
     1
 40
1.0
176
     1
 90
        0
176
     1
 62
   178
420
        0
176
     1
 90
       50
176
     1
 90
        3
176
     1
 62
     5
420
      255
176
     1
290
     0
176
     1
 90
       50
176
     1
 90
       50
176
     1
 90
       50
176
     1
290
     0
176
     1
 90
       50
176
     1
 62
   256
176
     0
 40
1.0
176
     0
 90
        2
176
     1
  1
strokes_ogs.tif
176
     1
290
     0
176
     1
 40
1.0
176
     1
 40
1.0
176
     1
  0
VISUALSTYLE
  5
E7
102
{ACAD_REACTORS
330
99
102
}
330
99
100
AcDbVisualStyle
  2
EdgeColorOff
 70
    22
177
     3
291
     1
 70
    58
 90
        2
176
     0
 90
        2
176
     0
 90
        0
176
     0
 90
        0
176
     0
 40
0.6
176
     0
 40
30.0
176
     0
 62
     7
420
 16777215
176
     0
 90
        1
176
     0
 90
        4
176
     0
 62
     7
176
     0
 62
   257
176
     0
 90
        1
176
     0
 90
        1
176
     0
 40
1.0
176
     0
 90
        8
176
     2
 62
     7
176
     0
 40
1.0
176
     0
 90
        1
176
     0
 90
        6
176
     0
 90
        2
176
     0
 62
     7
176
     0
 90
        5
176
     0
 90
        0
176
     0
 90
        0
176
     0
290
     0
176
     0
 90
        1
176
     0
 40
0.0
176
     0
 90
        0
176
     0
290
     0
176
     0
290
     1
176
     0
290
     1
176
     0
290
     0
176
     0
290
     0
176
     0
290
     0
176
     0
290
     0
176
     0
290
     0
176
     0
290
     0
176
     0
 90
       50
176
     0
 40
0.0
176
     0
 40
1.0
176
     0
 90
        0
176
     0
 62
   178
420
        0
176
     0
 90
       50
176
     0
 90
        3
176
     0
 62
     5
420
      255
176
     0
290
     0
176
     0
 90
       50
176
     0
 90
       50
176
     0
 90
       50
176
     0
290
     0
176
     0
 90
       50
176
     0
 62
   256
176
     0
 40
1.0
176
     0
 90
        2
176
     0
  1
strokes_ogs.tif
176
     0
290
     0
176
     0
 40
1.0
176
     0
 40
1.0
176
     0
  0
VISUALSTYLE
  5
A8
102
{ACAD_REACTORS
330
99
102
}
330
99
100
AcDbVisualStyle
  2
Facepattern
 70
    15
177
     3
291
     1
 70
    58
 90
        2
176
     1
 90
        2
176
     1
 90
        1
176
     1
 90
        0
176
     1
 40
-0.6
176
     1
 40
-30.0
176
     1
 62
     7
420
 16777215
176
     1
 90
        1
176
     1
 90
        4
176
     1
 62
     7
176
     1
 62
   257
176
     1
 90
        1
176
     1
 90
        1
176
     1
 40
1.0
176
     1
 90
        8
176
     1
 62
     7
176
     1
 40
1.0
176
     1
 90
        1
176
     1
 90
        6
176
     1
 90
        2
176
     1
 62
     7
176
     1
 90
        5
176
     1
 90
        0
176
     1
 90
        0
176
     1
290
     0
176
     1
 90
        1
176
     1
 40
0.0
176
     1
 90
        0
176
     1
290
     0
176
     1
290
     1
176
     1
290
     1
176
     1
290
     0
176
     1
290
     0
176
     1
290
     0
176
     1
290
     0
176
     1
290
     0
176
     1
290
     0
176
     1
 90
       50
176
     1
 40
0.0
176
     1
 40
1.0
176
     1
 90
        0
176
     1
 62
   178
420
        0
176
     1
 90
       50
176
     1
 90
        3
176
     1
 62
     5
420
      255
176
     1
290
     0
176
     1
 90
       50
176
     1
 90
       50
176
     1
 90
       50
176
     1
290
     0
176
     1
 90
       50
176
     1
 62
   256
176
     0
 40
1.0
176
     0
 90
        2
176
     1
  1
strokes_ogs.tif
176
     1
290
     0
176
     1
 40
1.0
176
     1
 40
1.0
176
     1
  0
VISUALSTYLE
  5
9A
102
{ACAD_REACTORS
330
99
102
}
330
99
100
AcDbVisualStyle
  2
Flat
 70
     0
177
     3
291
     1
 70
    58
 90
        2
176
     1
 90
        1
176
     1
 90
        1
176
     1
 90
        2
176
     1
 40
-0.6
176
     1
 40
30.0
176
     1
 62
     7
420
 16777215
176
     1
 90
        0
176
     1
 90
        4
176
     1
 62
     7
176
     1
 62
   257
176
     1
 90
        1
176
     1
 90
        1
176
     1
 40
1.0
176
     1
 90
        8
176
     1
 62
     7
176
     1
 40
1.0
176
     1
 90
        1
176
     1
 90
        6
176
     1
 90
        2
176
     1
 62
     7
176
     1
 90
        5
176
     1
 90
        0
176
     1
 90
        0
176
     1
290
     0
176
     1
 90
        1
176
     1
 40
0.0
176
     1
 90
        0
176
     1
290
     0
176
     1
290
     1
176
     1
290
     1
176
     1
290
     0
176
     1
290
     0
176
     1
290
     0
176
     1
290
     0
176
     1
290
     0
176
     1
290
     0
176
     1
 90
       50
176
     1
 40
0.0
176
     1
 40
1.0
176
     1
 90
        0
176
     1
 62
   178
420
        0
176
     1
 90
       50
176
     1
 90
        3
176
     1
 62
     5
420
      255
176
     1
290
     0
176
     1
 90
       50
176
     1
 90
       50
176
     1
 90
       50
176
     1
290
     0
176
     1
 90
       50
176
     1
 62
   256
176
     0
 40
1.0
176
     0
 90
        2
176
     1
  1
strokes_ogs.tif
176
     1
290
     0
176
     1
 40
1.0
176
     1
 40
1.0
176
     1
  0
VISUALSTYLE
  5
9B
102
{ACAD_REACTORS
330
99
102
}
330
99
100
AcDbVisualStyle
  2
FlatWithEdges
 70
     1
177
     3
291
     1
 70
    58
 90
        2
176
     1
 90
        1
176
     1
 90
        1
176
     1
 90
        2
176
     1
 40
-0.6
176
     1
 40
30.0
176
     1
 62
     7
420
 16777215
176
     1
 90
        1
176
     1
 90
        4
176
     1
 62
     7
176
     1
 62
   257
176
     1
 90
        1
176
     1
 90
        1
176
     1
 40
1.0
176
     1
 90
        0
176
     1
 62
   257
176
     1
 40
1.0
176
     1
 90
        1
176
     1
 90
        6
176
     1
 90
        2
176
     1
 62
     7
176
     1
 90
        5
176
     1
 90
        0
176
     1
 90
        0
176
     1
290
     0
176
     1
 90
        1
176
     1
 40
0.0
176
     1
 90
        0
176
     1
290
     0
176
     1
290
     1
176
     1
290
     1
176
     1
290
     0
176
     1
290
     0
176
     1
290
     0
176
     1
290
     0
176
     1
290
     0
176
     1
290
     0
176
     1
 90
       50
176
     1
 40
0.0
176
     1
 40
1.0
176
     1
 90
        0
176
     1
 62
   178
420
        0
176
     1
 90
       50
176
     1
 90
        3
176
     1
 62
     5
420
      255
176
     1
290
     0
176
     1
 90
       50
176
     1
 90
       50
176
     1
 90
       50
176
     1
290
     0
176
     1
 90
       50
176
     1
 62
   256
176
     0
 40
1.0
176
     0
 90
        2
176
     1
  1
strokes_ogs.tif
176
     1
290
     0
176
     1
 40
1.0
176
     1
 40
1.0
176
     1
  0
VISUALSTYLE
  5
9C
102
{ACAD_REACTORS
330
99
102
}
330
99
100
AcDbVisualStyle
  2
Gouraud
 70
     2
177
     3
291
     1
 70
    58
 90
        2
176
     1
 90
        2
176
     1
 90
        1
176
     1
 90
        2
176
     1
 40
-0.6
176
     1
 40
30.0
176
     1
 62
     7
420
 16777215
176
     1
 90
        0
176
     1
 90
        4
176
     1
 62
     7
176
     1
 62
   257
176
     1
 90
        1
176
     1
 90
        1
176
     1
 40
1.0
176
     1
 90
        0
176
     1
 62
     7
176
     1
 40
1.0
176
     1
 90
        1
176
     1
 90
        6
176
     1
 90
        2
176
     1
 62
     7
176
     1
 90
        5
176
     1
 90
        0
176
     1
 90
        0
176
     1
290
     0
176
     1
 90
        1
176
     1
 40
0.0
176
     1
 90
        0
176
     1
290
     0
176
     1
290
     1
176
     1
290
     1
176
     1
290
     0
176
     1
290
     0
176
     1
290
     0
176
     1
290
     0
176
     1
290
     0
176
     1
290
     0
176
     1
 90
       50
176
     1
 40
0.0
176
     1
 40
1.0
176
     1
 90
        0
176
     1
 62
   178
420
        0
176
     1
 90
       50
176
     1
 90
        3
176
     1
 62
     5
420
      255
176
     1
290
     0
176
     1
 90
       50
176
     1
 90
       50
176
     1
 90
       50
176
     1
290
     0
176
     1
 90
       50
176
     1
 62
   256
176
     0
 40
1.0
176
     0
 90
        2
176
     1
  1
strokes_ogs.tif
176
     1
290
     0
176
     1
 40
1.0
176
     1
 40
1.0
176
     1
  0
VISUALSTYLE
  5
9D
102
{ACAD_REACTORS
330
99
102
}
330
99
100
AcDbVisualStyle
  2
GouraudWithEdges
 70
     3
177
     3
291
     1
 70
    58
 90
        2
176
     1
 90
        2
176
     1
 90
        1
176
     1
 90
        2
176
     1
 40
-0.6
176
     1
 40
30.0
176
     1
 62
     7
420
 16777215
176
     1
 90
        1
176
     1
 90
        4
176
     1
 62
     7
176
     1
 62
   257
176
     1
 90
        1
176
     1
 90
        1
176
     1
 40
1.0
176
     1
 90
        0
176
     1
 62
   257
176
     1
 40
1.0
176
     1
 90
        1
176
     1
 90
        6
176
     1
 90
        2
176
     1
 62
     7
176
     1
 90
        5
176
     1
 90
        0
176
     1
 90
        0
176
     1
290
     0
176
     1
 90
        1
176
     1
 40
0.0
176
     1
 90
        0
176
     1
290
     0
176
     1
290
     1
176
     1
290
     1
176
     1
290
     0
176
     1
290
     0
176
     1
290
     0
176
     1
290
     0
176
     1
290
     0
176
     1
290
     0
176
     1
 90
       50
176
     1
 40
0.0
176
     1
 40
1.0
176
     1
 90
        0
176
     1
 62
   178
420
        0
176
     1
 90
       50
176
     1
 90
        3
176
     1
 62
     5
420
      255
176
     1
290
     0
176
     1
 90
       50
176
     1
 90
       50
176
     1
 90
       50
176
     1
290
     0
176
     1
 90
       50
176
     1
 62
   256
176
     0
 40
1.0
176
     0
 90
        2
176
     1
  1
strokes_ogs.tif
176
     1
290
     0
176
     1
 40
1.0
176
     1
 40
1.0
176
     1
  0
VISUALSTYLE
  5
E4
102
{ACAD_REACTORS
330
99
102
}
330
99
100
AcDbVisualStyle
  2
Hidden
 70
     6
177
     3
291
     0
 70
    58
 90
        1
176
     1
 90
        2
176
     1
 90
        2
176
     1
 90
        0
176
     1
 40
0.6
176
     1
 40
30.0
176
     1
 62
     7
420
 16777215
176
     1
 90
        2
176
     1
 90
        2
176
     1
 62
     7
176
     1
 62
   257
176
     1
 90
        2
176
     1
 90
        1
176
     1
 40
40.0
176
     1
 90
        0
176
     1
 62
   257
176
     1
 40
1.0
176
     1
 90
        1
176
     1
 90
        6
176
     1
 90
        2
176
     1
 62
     7
176
     1
 90
        3
176
     1
 90
        0
176
     1
 90
        0
176
     1
290
     0
176
     1
 90
        1
176
     1
 40
0.0
176
     1
 90
        0
176
     1
290
     0
176
     1
290
     1
176
     1
290
     1
176
     1
290
     0
176
     1
290
     0
176
     1
290
     0
176
     1
290
     0
176
     1
290
     0
176
     1
290
     0
176
     1
 90
       50
176
     1
 40
0.0
176
     1
 40
1.0
176
     1
 90
        0
176
     1
 62
   178
420
        0
176
     1
 90
       50
176
     1
 90
        3
176
     1
 62
     5
420
      255
176
     1
290
     0
176
     1
 90
       50
176
     1
 90
       50
176
     1
 90
       50
176
     1
290
     0
176
     1
 90
       50
176
     1
 62
   256
176
     0
 40
1.0
176
     0
 90
        2
176
     1
  1
strokes_ogs.tif
176
     1
290
     0
176
     1
 40
1.0
176
     1
 40
1.0
176
     1
  0
VISUALSTYLE
  5
E5
102
{ACAD_REACTORS
330
99
102
}
330
99
100
AcDbVisualStyle
  2
JitterOff
 70
    20
177
     3
291
     1
 70
    58
 90
        2
176
     0
 90
        2
176
     0
 90
        0
176
     0
 90
        0
176
     0
 40
0.6
176
     0
 40
30.0
176
     0
 62
     7
420
 16777215
176
     0
 90
        1
176
     0
 90
        4
176
     0
 62
     7
176
     0
 62
   257
176
     0
 90
        1
176
     0
 90
        1
176
     0
 40
1.0
176
     0
 90
       10
176
     2
 62
     7
176
     0
 40
1.0
176
     0
 90
        1
176
     0
 90
        6
176
     0
 90
        2
176
     0
 62
     7
176
     0
 90
        5
176
     0
 90
        0
176
     0
 90
        0
176
     0
290
     0
176
     0
 90
        1
176
     0
 40
0.0
176
     0
 90
        0
176
     0
290
     0
176
     0
290
     1
176
     0
290
     1
176
     0
290
     0
176
     0
290
     0
176
     0
290
     0
176
     0
290
     0
176
     0
290
     0
176
     0
290
     0
176
     0
 90
       50
176
     0
 40
0.0
176
     0
 40
1.0
176
     0
 90
        0
176
     0
 62
   178
420
        0
176
     0
 90
       50
176
     0
 90
        3
176
     0
 62
     5
420
      255
176
     0
290
     0
176
     0
 90
       50
176
     0
 90
       50
176
     0
 90
       50
176
     0
290
     0
176
     0
 90
       50
176
     0
 62
   256
176
     0
 40
1.0
176
     0
 90
        2
176
     0
  1
strokes_ogs.tif
176
     0
290
     0
176
     0
 40
1.0
176
     0
 40
1.0
176
     0
  0
VISUALSTYLE
  5
A7
102
{ACAD_REACTORS
330
99
102
}
330
99
100
AcDbVisualStyle
  2
Linepattern
 70
    14
177
     3
291
     1
 70
    58
 90
        2
176
     1
 90
        2
176
     1
 90
        1
176
     1
 90
        0
176
     1
 40
-0.6
176
     1
 40
-30.0
176
     1
 62
     7
420
 16777215
176
     1
 90
        1
176
     1
 90
        4
176
     1
 62
     7
176
     1
 62
   257
176
     1
 90
        7
176
     1
 90
        7
176
     1
 40
1.0
176
     1
 90
        8
176
     1
 62
     7
176
     1
 40
1.0
176
     1
 90
        1
176
     1
 90
        6
176
     1
 90
        2
176
     1
 62
     7
176
     1
 90
        5
176
     1
 90
        0
176
     1
 90
        0
176
     1
290
     0
176
     1
 90
        1
176
     1
 40
0.0
176
     1
 90
        0
176
     1
290
     0
176
     1
290
     1
176
     1
290
     1
176
     1
290
     0
176
     1
290
     0
176
     1
290
     0
176
     1
290
     0
176
     1
290
     0
176
     1
290
     0
176
     1
 90
       50
176
     1
 40
0.0
176
     1
 40
1.0
176
     1
 90
        0
176
     1
 62
   178
420
        0
176
     1
 90
       50
176
     1
 90
        3
176
     1
 62
     5
420
      255
176
     1
290
     0
176
     1
 90
       50
176
     1
 90
       50
176
     1
 90
       50
176
     1
290
     0
176
     1
 90
       50
176
     1
 62
   256
176
     0
 40
1.0
176
     0
 90
        2
176
     1
  1
strokes_ogs.tif
176
     1
290
     0
176
     1
 40
1.0
176
     1
 40
1.0
176
     1
  0
VISUALSTYLE
  5
E6
102
{ACAD_REACTORS
330
99
102
}
330
99
100
AcDbVisualStyle
  2
OverhangOff
 70
    21
177
     3
291
     1
 70
    58
 90
        2
176
     0
 90
        2
176
     0
 90
        0
176
     0
 90
        0
176
     0
 40
0.6
176
     0
 40
30.0
176
     0
 62
     7
420
 16777215
176
     0
 90
        1
176
     0
 90
        4
176
     0
 62
     7
176
     0
 62
   257
176
     0
 90
        1
176
     0
 90
        1
176
     0
 40
1.0
176
     0
 90
        9
176
     2
 62
     7
176
     0
 40
1.0
176
     0
 90
        1
176
     0
 90
        6
176
     0
 90
        2
176
     0
 62
     7
176
     0
 90
        5
176
     0
 90
        0
176
     0
 90
        0
176
     0
290
     0
176
     0
 90
        1
176
     0
 40
0.0
176
     0
 90
        0
176
     0
290
     0
176
     0
290
     1
176
     0
290
     1
176
     0
290
     0
176
     0
290
     0
176
     0
290
     0
176
     0
290
     0
176
     0
290
     0
176
     0
290
     0
176
     0
 90
       50
176
     0
 40
0.0
176
     0
 40
1.0
176
     0
 90
        0
176
     0
 62
   178
420
        0
176
     0
 90
       50
176
     0
 90
        3
176
     0
 62
     5
420
      255
176
     0
290
     0
176
     0
 90
       50
176
     0
 90
       50
176
     0
 90
       50
176
     0
290
     0
176
     0
 90
       50
176
     0
 62
   256
176
     0
 40
1.0
176
     0
 90
        2
176
     0
  1
strokes_ogs.tif
176
     0
290
     0
176
     0
 40
1.0
176
     0
 40
1.0
176
     0
  0
VISUALSTYLE
  5
A3
102
{ACAD_REACTORS
330
99
102
}
330
99
100
AcDbVisualStyle
  2
Realistic
 70
     8
177
     3
291
     0
 70
    58
 90
        2
176
     1
 90
        2
176
     1
 90
        1
176
     1
 90
        0
176
     1
 40
-0.6
176
     1
 40
-30.0
176
     1
 62
     7
420
 16777215
176
     1
 90
        1
176
     1
 90
        0
176
     1
 62
     7
176
     1
 62
   257
176
     1
 90
        1
176
     1
 90
        1
176
     1
 40
1.0
176
     1
 90
        8
176
     1
 62
     8
420
  7895160
176
     1
 40
1.0
176
     1
 90
        1
176
     1
 90
        6
176
     1
 90
        2
176
     1
 62
     7
176
     1
 90
        5
176
     1
 90
        0
176
     1
 90
        0
176
     1
290
     0
176
     1
 90
       13
176
     1
 40
0.0
176
     1
 90
        0
176
     1
290
     0
176
     1
290
     1
176
     1
290
     1
176
     1
290
     0
176
     1
290
     0
176
     1
290
     0
176
     1
290
     0
176
     1
290
     0
176
     1
290
     0
176
     1
 90
       50
176
     1
 40
0.0
176
     1
 40
1.0
176
     1
 90
        0
176
     1
 62
   178
420
        0
176
     1
 90
       50
176
     1
 90
        3
176
     1
 62
     5
420
      255
176
     1
290
     0
176
     1
 90
       50
176
     1
 90
       50
176
     1
 90
       50
176
     1
290
     0
176
     1
 90
       50
176
     1
 62
   256
176
     0
 40
1.0
176
     0
 90
        2
176
     1
  1
strokes_ogs.tif
176
     1
290
     0
176
     1
 40
1.0
176
     1
 40
1.0
176
     1
  0
VISUALSTYLE
  5
EC
102
{ACAD_REACTORS
330
99
102
}
330
99
100
AcDbVisualStyle
  2
Shaded
 70
    27
177
     3
291
     0
 70
    58
 90
        2
176
     1
 90
        2
176
     1
 90
        1
176
     1
 90
        2
176
     1
 40
0.6
176
     1
 40
30.0
176
     1
 62
     7
420
 16777215
176
     1
 90
        0
176
     1
 90
        4
176
     1
 62
     7
176
     1
 62
   257
176
     1
 90
        1
176
     1
 90
        1
176
     1
 40
1.0
176
     1
 90
        8
176
     1
 62
   257
176
     1
 40
1.0
176
     1
 90
        1
176
     1
 90
        6
176
     1
 90
        2
176
     1
 62
     8
420
  7895160
176
     1
 90
        3
176
     1
 90
        0
176
     1
 90
        0
176
     1
290
     0
176
     1
 90
        5
176
     1
 40
0.0
176
     1
 90
        0
176
     1
290
     0
176
     1
290
     1
176
     1
290
     1
176
     1
290
     0
176
     1
290
     0
176
     1
290
     0
176
     1
290
     0
176
     1
290
     0
176
     1
290
     0
176
     1
 90
       50
176
     1
 40
0.0
176
     1
 40
1.0
176
     1
 90
        0
176
     1
 62
   178
420
        0
176
     1
 90
       50
176
     1
 90
        3
176
     1
 62
     5
420
      255
176
     1
290
     0
176
     1
 90
       50
176
     1
 90
       50
176
     1
 90
       50
176
     1
290
     0
176
     1
 90
       50
176
     1
 62
   256
176
     0
 40
1.0
176
     0
 90
        2
176
     1
  1
strokes_ogs.tif
176
     1
290
     0
176
     1
 40
1.0
176
     1
 40
1.0
176
     1
  0
VISUALSTYLE
  5
EB
102
{ACAD_REACTORS
330
99
102
}
330
99
100
AcDbVisualStyle
  2
Shaded with edges
 70
    26
177
     3
291
     0
 70
    58
 90
        2
176
     1
 90
        2
176
     1
 90
        1
176
     1
 90
        2
176
     1
 40
0.6
176
     1
 40
30.0
176
     1
 62
     7
420
 16777215
176
     1
 90
        1
176
     1
 90
       10
176
     1
 62
     7
176
     1
 62
   257
176
     1
 90
        2
176
     1
 90
        1
176
     1
 40
1.0
176
     1
 90
        8
176
     1
 62
   257
176
     1
 40
1.0
176
     1
 90
        1
176
     1
 90
        6
176
     1
 90
        2
176
     1
 62
     7
176
     1
 90
        3
176
     1
 90
        0
176
     1
 90
        0
176
     1
290
     0
176
     1
 90
        5
176
     1
 40
0.0
176
     1
 90
        0
176
     1
290
     0
176
     1
290
     1
176
     1
290
     1
176
     1
290
     0
176
     1
290
     0
176
     1
290
     0
176
     1
290
     0
176
     1
290
     0
176
     1
290
     0
176
     1
 90
       50
176
     1
 40
0.0
176
     1
 40
1.0
176
     1
 90
        0
176
     1
 62
   178
420
        0
176
     1
 90
       50
176
     1
 90
        3
176
     1
 62
     5
420
      255
176
     1
290
     0
176
     1
 90
       50
176
     1
 90
       50
176
     1
 90
       50
176
     1
290
     0
176
     1
 90
       50
176
     1
 62
   256
176
     0
 40
1.0
176
     0
 90
        2
176
     1
  1
strokes_ogs.tif
176
     1
290
     0
176
     1
 40
1.0
176
     1
 40
1.0
176
     1
  0
VISUALSTYLE
  5
E8
102
{ACAD_REACTORS
330
99
102
}
330
99
100
AcDbVisualStyle
  2
Shades of Gray
 70
    23
177
     3
291
     0
 70
    58
 90
        2
176
     1
 90
        2
176
     1
 90
        3
176
     1
 90
        0
176
     1
 40
0.6
176
     1
 40
30.0
176
     1
 62
     7
420
 16777215
176
     1
 90
        2
176
     1
 90
        2
176
     1
 62
     7
176
     1
 62
     7
176
     1
 90
        1
176
     1
 90
        1
176
     1
 40
40.0
176
     1
 90
        8
176
     1
 62
     7
176
     1
 40
1.0
176
     1
 90
        1
176
     1
 90
        6
176
     1
 90
        2
176
     1
 62
     7
176
     1
 90
        3
176
     1
 90
        0
176
     1
 90
        0
176
     1
290
     0
176
     1
 90
        1
176
     1
 40
0.0
176
     1
 90
        0
176
     1
290
     0
176
     1
290
     1
176
     1
290
     1
176
     1
290
     0
176
     1
290
     0
176
     1
290
     0
176
     1
290
     0
176
     1
290
     0
176
     1
290
     0
176
     1
 90
       50
176
     1
 40
0.0
176
     1
 40
1.0
176
     1
 90
        0
176
     1
 62
   178
420
        0
176
     1
 90
       50
176
     1
 90
        3
176
     1
 62
     5
420
      255
176
     1
290
     0
176
     1
 90
       50
176
     1
 90
       50
176
     1
 90
       50
176
     1
290
     0
176
     1
 90
       50
176
     1
 62
   256
176
     0
 40
1.0
176
     0
 90
        2
176
     1
  1
strokes_ogs.tif
176
     1
290
     0
176
     1
 40
1.0
176
     1
 40
1.0
176
     1
  0
VISUALSTYLE
  5
E9
102
{ACAD_REACTORS
330
99
102
}
330
99
100
AcDbVisualStyle
  2
Sketchy
 70
    24
177
     3
291
     0
 70
    58
 90
        1
176
     1
 90
        2
176
     1
 90
        2
176
     1
 90
        0
176
     1
 40
0.6
176
     1
 40
30.0
176
     1
 62
     7
420
 16777215
176
     1
 90
        2
176
     1
 90
        2
176
     1
 62
     7
176
     1
 62
     7
176
     1
 90
        1
176
     1
 90
        1
176
     1
 40
40.0
176
     1
 90
       11
176
     1
 62
     7
176
     1
 40
1.0
176
     1
 90
        1
176
     1
 90
        6
176
     1
 90
        2
176
     1
 62
     7
176
     1
 90
        6
176
     1
 90
        0
176
     1
 90
        0
176
     1
290
     0
176
     1
 90
        1
176
     1
 40
0.0
176
     1
 90
        0
176
     1
290
     0
176
     1
290
     1
176
     1
290
     1
176
     1
290
     0
176
     1
290
     0
176
     1
290
     0
176
     1
290
     0
176
     1
290
     0
176
     1
290
     0
176
     1
 90
       50
176
     1
 40
0.0
176
     1
 40
1.0
176
     1
 90
        0
176
     1
 62
   178
420
        0
176
     1
 90
       50
176
     1
 90
        3
176
     1
 62
     5
420
      255
176
     1
290
     0
176
     1
 90
       50
176
     1
 90
       50
176
     1
 90
       50
176
     1
290
     0
176
     1
 90
       50
176
     1
 62
   256
176
     0
 40
1.0
176
     0
 90
        2
176
     1
  1
strokes_ogs.tif
176
     1
290
     0
176
     1
 40
1.0
176
     1
 40
1.0
176
     1
  0
VISUALSTYLE
  5
A6
102
{ACAD_REACTORS
330
99
102
}
330
99
100
AcDbVisualStyle
  2
Thicken
 70
    13
177
     3
291
     1
 70
    58
 90
        2
176
     1
 90
        2
176
     1
 90
        1
176
     1
 90
        0
176
     1
 40
-0.6
176
     1
 40
-30.0
176
     1
 62
     7
420
 16777215
176
     1
 90
        1
176
     1
 90
        4
176
     1
 62
     7
176
     1
 62
   257
176
     1
 90
        1
176
     1
 90
        1
176
     1
 40
1.0
176
     1
 90
       12
176
     1
 62
     7
176
     1
 40
1.0
176
     1
 90
        1
176
     1
 90
        6
176
     1
 90
        2
176
     1
 62
     7
176
     1
 90
        5
176
     1
 90
        0
176
     1
 90
        0
176
     1
290
     0
176
     1
 90
        1
176
     1
 40
0.0
176
     1
 90
        0
176
     1
290
     0
176
     1
290
     1
176
     1
290
     1
176
     1
290
     0
176
     1
290
     0
176
     1
290
     0
176
     1
290
     0
176
     1
290
     0
176
     1
290
     0
176
     1
 90
       50
176
     1
 40
0.0
176
     1
 40
1.0
176
     1
 90
        0
176
     1
 62
   178
420
        0
176
     1
 90
       50
176
     1
 90
        3
176
     1
 62
     5
420
      255
176
     1
290
     0
176
     1
 90
       50
176
     1
 90
       50
176
     1
 90
       50
176
     1
290
     0
176
     1
 90
       50
176
     1
 62
   256
176
     0
 40
1.0
176
     0
 90
        2
176
     1
  1
strokes_ogs.tif
176
     1
290
     0
176
     1
 40
1.0
176
     1
 40
1.0
176
     1
  0
VISUALSTYLE
  5
E3
102
{ACAD_REACTORS
330
99
102
}
330
99
100
AcDbVisualStyle
  2
Wireframe
 70
     5
177
     3
291
     0
 70
    58
 90
        0
176
     1
 90
        2
176
     1
 90
        0
176
     1
 90
        0
176
     1
 40
0.6
176
     1
 40
30.0
176
     1
 62
     7
420
 16777215
176
     1
 90
        1
176
     1
 90
        4
176
     1
 62
     7
176
     1
 62
   257
176
     1
 90
        1
176
     1
 90
        1
176
     1
 40
1.0
176
     1
 90
        0
176
     1
 62
   257
176
     1
 40
1.0
176
     1
 90
        1
176
     1
 90
        6
176
     1
 90
        2
176
     1
 62
     7
176
     1
 90
        3
176
     1
 90
        0
176
     1
 90
        0
176
     1
290
     0
176
     1
 90
        1
176
     1
 40
0.0
176
     1
 90
        0
176
     1
290
     0
176
     1
290
     1
176
     1
290
     1
176
     1
290
     0
176
     1
290
     0
176
     1
290
     0
176
     1
290
     0
176
     1
290
     0
176
     1
290
     0
176
     1
 90
       50
176
     1
 40
0.0
176
     1
 40
1.0
176
     1
 90
        0
176
     1
 62
   178
420
        0
176
     1
 90
       50
176
     1
 90
        3
176
     1
 62
     5
420
      255
176
     1
290
     0
176
     1
 90
       50
176
     1
 90
       50
176
     1
 90
       50
176
     1
290
     0
176
     1
 90
       50
176
     1
 62
   256
176
     0
 40
1.0
176
     0
 90
        2
176
     1
  1
strokes_ogs.tif
176
     1
290
     0
176
     1
 40
1.0
176
     1
 40
1.0
176
     1
  0
VISUALSTYLE
  5
EA
102
{ACAD_REACTORS
330
99
102
}
330
99
100
AcDbVisualStyle
  2
X-Ray
 70
    25
177
     3
291
     0
 70
    58
 90
        2
176
     1
 90
        2
176
     1
 90
        1
176
     1
 90
        1
176
     1
 40
0.5
176
     1
 40
30.0
176
     1
 62
     7
420
 16777215
176
     1
 90
        1
176
     1
 90
        0
176
     1
 62
     7
176
     1
 62
   257
176
     1
 90
        1
176
     1
 90
        1
176
     1
 40
1.0
176
     1
 90
        8
176
     1
 62
     7
176
     1
 40
1.0
176
     1
 90
        1
176
     1
 90
        6
176
     1
 90
        2
176
     1
 62
     7
176
     1
 90
        3
176
     1
 90
        0
176
     1
 90
        0
176
     1
290
     0
176
     1
 90
       13
176
     1
 40
0.0
176
     1
 90
        0
176
     1
290
     0
176
     1
290
     1
176
     1
290
     1
176
     1
290
     0
176
     1
290
     0
176
     1
290
     0
176
     1
290
     0
176
     1
290
     0
176
     1
290
     0
176
     1
 90
       50
176
     1
 40
0.0
176
     1
 40
1.0
176
     1
 90
        0
176
     1
 62
   178
420
        0
176
     1
 90
       50
176
     1
 90
        3
176
     1
 62
     5
420
      255
176
     1
290
     0
176
     1
 90
       50
176
     1
 90
       50
176
     1
 90
       50
176
     1
290
     0
176
     1
 90
       50
176
     1
 62
   256
176
     0
 40
1.0
176
     0
 90
        2
176
     1
  1
strokes_ogs.tif
176
     1
290
     0
176
     1
 40
1.0
176
     1
 40
1.0
176
     1
  0
DICTIONARYVAR
  5
D8
102
{ACAD_REACTORS
330
66
102
}
330
66
100
DictionaryVariables
280
     0
  1
1:1
  0
DICTIONARYVAR
  5
12D
102
{ACAD_REACTORS
330
66
102
}
330
66
100
DictionaryVariables
280
     0
  1
Standard
  0
DICTIONARYVAR
  5
89
102
{ACAD_REACTORS
330
66
102
}
330
66
100
DictionaryVariables
280
     0
  1
Standard
  0
DICTIONARYVAR
  5
67
102
{ACAD_REACTORS
330
66
102
}
330
66
100
DictionaryVariables
280
     0
  1
2
  0
DICTIONARYVAR
  5
6B
102
{ACAD_REACTORS
330
66
102
}
330
66
100
DictionaryVariables
280
     0
  1
1
  0
DICTIONARYVAR
  5
DF
102
{ACAD_REACTORS
330
66
102
}
330
66
100
DictionaryVariables
280
     0
  1
0
  0
DICTIONARYVAR
  5
E0
102
{ACAD_REACTORS
330
66
102
}
330
66
100
DictionaryVariables
280
     0
  1
0
  0
DICTIONARY
  5
4FB
330
87
100
AcDbDictionary
280
     1
281
     1
  3
ACAD_ROUNDTRIP_2008_TABLESTYLE_CELLSTYLEMAP
360
4FC
  0
CELLSTYLEMAP
  5
4FC
102
{ACAD_REACTORS
330
4FB
102
}
330
4FB
100
AcDbCellStyleMap
 90
        3
300
CELLSTYLE
  1
TABLEFORMAT_BEGIN
 90
        5
170
     1
 91
        0
 92
    32768
 62
   257
 93
        1
300
CONTENTFORMAT
  1
CONTENTFORMAT_BEGIN
 90
        0
 91
        0
 92
      512
 93
        0
300

 40
0.0
140
1.0
 94
        5
 62
     0
340
11
144
0.25
309
CONTENTFORMAT_END
171
     0
 94
        6
 95
        1
302
GRIDFORMAT
  1
GRIDFORMAT_BEGIN
 90
        0
 91
        1
 62
     0
 92
       -2
340
0
 93
        0
 40
0.045
309
GRIDFORMAT_END
 95
        2
302
GRIDFORMAT
  1
GRIDFORMAT_BEGIN
 90
        0
 91
        1
 62
     0
 92
       -2
340
0
 93
        0
 40
0.045
309
GRIDFORMAT_END
 95
        4
302
GRIDFORMAT
  1
GRIDFORMAT_BEGIN
 90
        0
 91
        1
 62
     0
 92
       -2
340
0
 93
        0
 40
0.045
309
GRIDFORMAT_END
 95
        8
302
GRIDFORMAT
  1
GRIDFORMAT_BEGIN
 90
        0
 91
        1
 62
     0
 92
       -2
340
0
 93
        0
 40
0.045
309
GRIDFORMAT_END
 95
       16
302
GRIDFORMAT
  1
GRIDFORMAT_BEGIN
 90
        0
 91
        1
 62
     0
 92
       -2
340
0
 93
        0
 40
0.045
309
GRIDFORMAT_END
 95
       32
302
GRIDFORMAT
  1
GRIDFORMAT_BEGIN
 90
        0
 91
        1
 62
     0
 92
       -2
340
0
 93
        0
 40
0.045
309
GRIDFORMAT_END
309
TABLEFORMAT_END
  1
CELLSTYLE_BEGIN
 90
        1
 91
        1
300
_TITLE
309
CELLSTYLE_END
300
CELLSTYLE
  1
TABLEFORMAT_BEGIN
 90
        5
170
     1
 91
        0
 92
        0
 62
   257
 93
        1
300
CONTENTFORMAT
  1
CONTENTFORMAT_BEGIN
 90
        0
 91
        0
 92
      512
 93
        0
300

 40
0.0
140
1.0
 94
        5
 62
     0
340
11
144
0.18
309
CONTENTFORMAT_END
171
     0
 94
        6
 95
        1
302
GRIDFORMAT
  1
GRIDFORMAT_BEGIN
 90
        0
 91
        1
 62
     0
 92
       -2
340
0
 93
        0
 40
0.045
309
GRIDFORMAT_END
 95
        2
302
GRIDFORMAT
  1
GRIDFORMAT_BEGIN
 90
        0
 91
        1
 62
     0
 92
       -2
340
0
 93
        0
 40
0.045
309
GRIDFORMAT_END
 95
        4
302
GRIDFORMAT
  1
GRIDFORMAT_BEGIN
 90
        0
 91
        1
 62
     0
 92
       -2
340
0
 93
        0
 40
0.045
309
GRIDFORMAT_END
 95
        8
302
GRIDFORMAT
  1
GRIDFORMAT_BEGIN
 90
        0
 91
        1
 62
     0
 92
       -2
340
0
 93
        0
 40
0.045
309
GRIDFORMAT_END
 95
       16
302
GRIDFORMAT
  1
GRIDFORMAT_BEGIN
 90
        0
 91
        1
 62
     0
 92
       -2
340
0
 93
        0
 40
0.045
309
GRIDFORMAT_END
 95
       32
302
GRIDFORMAT
  1
GRIDFORMAT_BEGIN
 90
        0
 91
        1
 62
     0
 92
       -2
340
0
 93
        0
 40
0.045
309
GRIDFORMAT_END
309
TABLEFORMAT_END
  1
CELLSTYLE_BEGIN
 90
        2
 91
        1
300
_HEADER
309
CELLSTYLE_END
300
CELLSTYLE
  1
TABLEFORMAT_BEGIN
 90
        5
170
     1
 91
        0
 92
        0
 62
   257
 93
        1
300
CONTENTFORMAT
  1
CONTENTFORMAT_BEGIN
 90
        0
 91
        0
 92
      512
 93
        0
300

 40
0.0
140
1.0
 94
        2
 62
     0
340
11
144
0.18
309
CONTENTFORMAT_END
171
     0
 94
        6
 95
        1
302
GRIDFORMAT
  1
GRIDFORMAT_BEGIN
 90
        0
 91
        1
 62
     0
 92
       -2
340
0
 93
        0
 40
0.045
309
GRIDFORMAT_END
 95
        2
302
GRIDFORMAT
  1
GRIDFORMAT_BEGIN
 90
        0
 91
        1
 62
     0
 92
       -2
340
0
 93
        0
 40
0.045
309
GRIDFORMAT_END
 95
        4
302
GRIDFORMAT
  1
GRIDFORMAT_BEGIN
 90
        0
 91
        1
 62
     0
 92
       -2
340
0
 93
        0
 40
0.045
309
GRIDFORMAT_END
 95
        8
302
GRIDFORMAT
  1
GRIDFORMAT_BEGIN
 90
        0
 91
        1
 62
     0
 92
       -2
340
0
 93
        0
 40
0.045
309
GRIDFORMAT_END
 95
       16
302
GRIDFORMAT
  1
GRIDFORMAT_BEGIN
 90
        0
 91
        1
 62
     0
 92
       -2
340
0
 93
        0
 40
0.045
309
GRIDFORMAT_END
 95
       32
302
GRIDFORMAT
  1
GRIDFORMAT_BEGIN
 90
        0
 91
        1
 62
     0
 92
       -2
340
0
 93
        0
 40
0.045
309
GRIDFORMAT_END
309
TABLEFORMAT_END
  1
CELLSTYLE_BEGIN
 90
        3
 91
        2
300
_DATA
309
CELLSTYLE_END
  0
ENDSEC
  0
EOF
