  0
SECTION
  2
HEADER
  9
$ACADVER
  1
AC1032
  9
$ACADMAINTVER
 90
        4
  9
$DWGCODEPAGE
  3
ANSI_1252
  9
$LASTSAVEDBY
  1
ulfstahmer
  9
$REQUIREDVERSIONS
160
                 0
  9
$INSBASE
 10
0.0
 20
0.0
 30
0.0
  9
$EXTMIN
 10
0.0
 20
-0.0000000000001208
 30
0.0
  9
$EXTMAX
 10
258.0000000000002
 20
130.5347138538081
 30
0.0
  9
$LIMMIN
 10
0.0
 20
0.0
  9
$LIMMAX
 10
12.0
 20
9.0
  9
$ORTHOMODE
 70
     0
  9
$REGENMODE
 70
     1
  9
$FILLMODE
 70
     1
  9
$QTEXTMODE
 70
     0
  9
$MIRRTEXT
 70
     0
  9
$LTSCALE
 40
1.0
  9
$ATTMODE
 70
     1
  9
$TEXTSIZE
 40
5.0
  9
$TRACEWID
 40
0.05
  9
$TEXTSTYLE
  7
Standard
  9
$CLAYER
  8
0
  9
$CELTYPE
  6
ByLayer
  9
$CECOLOR
 62
   256
  9
$CELTSCALE
 40
1.0
  9
$DISPSILH
 70
     0
  9
$DIMSCALE
 40
1.0
  9
$DIMASZ
 40
0.18
  9
$DIMEXO
 40
0.0625
  9
$DIMDLI
 40
0.38
  9
$DIMRND
 40
0.0
  9
$DIMDLE
 40
0.0
  9
$DIMEXE
 40
0.18
  9
$DIMTP
 40
0.0
  9
$DIMTM
 40
0.0
  9
$DIMTXT
 40
0.18
  9
$DIMCEN
 40
0.09
  9
$DIMTSZ
 40
0.0
  9
$DIMTOL
 70
     0
  9
$DIMLIM
 70
     0
  9
$DIMTIH
 70
     1
  9
$DIMTOH
 70
     1
  9
$DIMSE1
 70
     0
  9
$DIMSE2
 70
     0
  9
$DIMTAD
 70
     0
  9
$DIMZIN
 70
     0
  9
$DIMBLK
  1

  9
$DIMASO
 70
     1
  9
$DIMSHO
 70
     1
  9
$DIMPOST
  1

  9
$DIMAPOST
  1

  9
$DIMALT
 70
     0
  9
$DIMALTD
 70
     2
  9
$DIMALTF
 40
25.4
  9
$DIMLFAC
 40
1.0
  9
$DIMTOFL
 70
     0
  9
$DIMTVP
 40
0.0
  9
$DIMTIX
 70
     0
  9
$DIMSOXD
 70
     0
  9
$DIMSAH
 70
     0
  9
$DIMBLK1
  1

  9
$DIMBLK2
  1

  9
$DIMSTYLE
  2
Standard
  9
$DIMCLRD
 70
     0
  9
$DIMCLRE
 70
     0
  9
$DIMCLRT
 70
     0
  9
$DIMTFAC
 40
1.0
  9
$DIMGAP
 40
0.09
  9
$DIMJUST
 70
     0
  9
$DIMSD1
 70
     0
  9
$DIMSD2
 70
     0
  9
$DIMTOLJ
 70
     1
  9
$DIMTZIN
 70
     0
  9
$DIMALTZ
 70
     0
  9
$DIMALTTZ
 70
     0
  9
$DIMUPT
 70
     0
  9
$DIMDEC
 70
     4
  9
$DIMTDEC
 70
     4
  9
$DIMALTU
 70
     2
  9
$DIMALTTD
 70
     2
  9
$DIMTXSTY
  7
Standard
  9
$DIMAUNIT
 70
     0
  9
$DIMADEC
 70
     0
  9
$DIMALTRND
 40
0.0
  9
$DIMAZIN
 70
     0
  9
$DIMDSEP
 70
    46
  9
$DIMATFIT
 70
     3
  9
$DIMFRAC
 70
     0
  9
$DIMLDRBLK
  1

  9
$DIMLUNIT
 70
     2
  9
$DIMLWD
 70
    -2
  9
$DIMLWE
 70
    -2
  9
$DIMTMOVE
 70
     0
  9
$DIMFXL
 40
1.0
  9
$DIMFXLON
 70
     0
  9
$DIMJOGANG
 40
0.7853981633974483
  9
$DIMTFILL
 70
     0
  9
$DIMTFILLCLR
 70
     0
  9
$DIMARCSYM
 70
     0
  9
$DIMLTYPE
  6

  9
$DIMLTEX1
  6

  9
$DIMLTEX2
  6

  9
$DIMTXTDIRECTION
 70
     0
  9
$LUNITS
 70
     2
  9
$LUPREC
 70
     4
  9
$SKETCHINC
 40
0.1
  9
$FILLETRAD
 40
5.0
  9
$AUNITS
 70
     0
  9
$AUPREC
 70
     0
  9
$MENU
  1
.
  9
$ELEVATION
 40
0.0
  9
$PELEVATION
 40
0.0
  9
$THICKNESS
 40
0.0
  9
$LIMCHECK
 70
     0
  9
$CHAMFERA
 40
0.0
  9
$CHAMFERB
 40
0.0
  9
$CHAMFERC
 40
0.0
  9
$CHAMFERD
 40
0.0
  9
$SKPOLY
 70
     0
  9
$TDCREATE
 40
2452642.855050937
  9
$TDUCREATE
 40
2452643.063384271
  9
$TDUPDATE
 40
2458770.320710069
  9
$TDUUPDATE
 40
2458770.529043403
  9
$TDINDWG
 40
0.0000001736
  9
$TDUSRTIMER
 40
0.0042990509
  9
$USRTIMER
 70
     1
  9
$ANGBASE
 50
0.0
  9
$ANGDIR
 70
     0
  9
$PDMODE
 70
     0
  9
$PDSIZE
 40
0.0
  9
$PLINEWID
 40
0.0
  9
$SPLFRAME
 70
     0
  9
$SPLINETYPE
 70
     6
  9
$SPLINESEGS
 70
     8
  9
$HANDSEED
  5
92F
  9
$SURFTAB1
 70
     6
  9
$SURFTAB2
 70
     6
  9
$SURFTYPE
 70
     6
  9
$SURFU
 70
     6
  9
$SURFV
 70
     6
  9
$UCSBASE
  2

  9
$UCSNAME
  2

  9
$UCSORG
 10
0.0
 20
0.0
 30
0.0
  9
$UCSXDIR
 10
1.0
 20
0.0
 30
0.0
  9
$UCSYDIR
 10
0.0
 20
1.0
 30
0.0
  9
$UCSORTHOREF
  2

  9
$UCSORTHOVIEW
 70
     0
  9
$UCSORGTOP
 10
0.0
 20
0.0
 30
0.0
  9
$UCSORGBOTTOM
 10
0.0
 20
0.0
 30
0.0
  9
$UCSORGLEFT
 10
0.0
 20
0.0
 30
0.0
  9
$UCSORGRIGHT
 10
0.0
 20
0.0
 30
0.0
  9
$UCSORGFRONT
 10
0.0
 20
0.0
 30
0.0
  9
$UCSORGBACK
 10
0.0
 20
0.0
 30
0.0
  9
$PUCSBASE
  2

  9
$PUCSNAME
  2

  9
$PUCSORG
 10
0.0
 20
0.0
 30
0.0
  9
$PUCSXDIR
 10
1.0
 20
0.0
 30
0.0
  9
$PUCSYDIR
 10
0.0
 20
1.0
 30
0.0
  9
$PUCSORTHOREF
  2

  9
$PUCSORTHOVIEW
 70
     0
  9
$PUCSORGTOP
 10
0.0
 20
0.0
 30
0.0
  9
$PUCSORGBOTTOM
 10
0.0
 20
0.0
 30
0.0
  9
$PUCSORGLEFT
 10
0.0
 20
0.0
 30
0.0
  9
$PUCSORGRIGHT
 10
0.0
 20
0.0
 30
0.0
  9
$PUCSORGFRONT
 10
0.0
 20
0.0
 30
0.0
  9
$PUCSORGBACK
 10
0.0
 20
0.0
 30
0.0
  9
$USERI1
 70
     0
  9
$USERI2
 70
     0
  9
$USERI3
 70
     0
  9
$USERI4
 70
     0
  9
$USERI5
 70
     0
  9
$USERR1
 40
0.0
  9
$USERR2
 40
0.0
  9
$USERR3
 40
0.0
  9
$USERR4
 40
0.0
  9
$USERR5
 40
0.0
  9
$WORLDVIEW
 70
     1
  9
$SHADEDGE
 70
     3
  9
$SHADEDIF
 70
    70
  9
$TILEMODE
 70
     1
  9
$MAXACTVP
 70
    64
  9
$PINSBASE
 10
0.0
 20
0.0
 30
0.0
  9
$PLIMCHECK
 70
     0
  9
$PEXTMIN
 10
0.0
 20
0.0
 30
0.0
  9
$PEXTMAX
 10
0.0
 20
0.0
 30
0.0
  9
$PLIMMIN
 10
0.0
 20
0.0
  9
$PLIMMAX
 10
0.0
 20
0.0
  9
$UNITMODE
 70
     0
  9
$VISRETAIN
 70
     1
  9
$PLINEGEN
 70
     0
  9
$PSLTSCALE
 70
     1
  9
$TREEDEPTH
 70
  3020
  9
$CMLSTYLE
  2
Standard
  9
$CMLJUST
 70
     0
  9
$CMLSCALE
 40
1.0
  9
$PROXYGRAPHICS
 70
     1
  9
$MEASUREMENT
 70
     0
  9
$CELWEIGHT
370
    -1
  9
$ENDCAPS
280
     0
  9
$JOINSTYLE
280
     0
  9
$LWDISPLAY
290
     0
  9
$INSUNITS
 70
     1
  9
$HYPERLINKBASE
  1

  9
$STYLESHEET
  1

  9
$XEDIT
290
     1
  9
$CEPSNTYPE
380
     0
  9
$PSTYLEMODE
290
     1
  9
$FINGERPRINTGUID
  2
{FDEAD576-A652-11D2-9A35-0060089B3A3F}
  9
$VERSIONGUID
  2
{FBC2AE19-5C5C-49EC-81BC-71B1A3362A02}
  9
$EXTNAMES
290
     1
  9
$PSVPSCALE
 40
0.0
  9
$OLESTARTUP
290
     0
  9
$SORTENTS
280
   127
  9
$INDEXCTL
280
     0
  9
$HIDETEXT
280
     1
  9
$XCLIPFRAME
280
     0
  9
$HALOGAP
280
     0
  9
$OBSCOLOR
 70
   257
  9
$OBSLTYPE
280
     0
  9
$INTERSECTIONDISPLAY
280
     0
  9
$INTERSECTIONCOLOR
 70
   257
  9
$DIMASSOC
280
     2
  9
$PROJECTNAME
  1

  9
$CAMERADISPLAY
290
     0
  9
$LENSLENGTH
 40
50.0
  9
$CAMERAHEIGHT
 40
0.0
  9
$STEPSPERSEC
 40
2.0
  9
$STEPSIZE
 40
6.0
  9
$3DDWFPREC
 40
2.0
  9
$PSOLWIDTH
 40
0.25
  9
$PSOLHEIGHT
 40
4.0
  9
$LOFTANG1
 40
1.570796326794897
  9
$LOFTANG2
 40
1.570796326794897
  9
$LOFTMAG1
 40
0.0
  9
$LOFTMAG2
 40
0.0
  9
$LOFTPARAM
 70
     7
  9
$LOFTNORMALS
280
     1
  9
$LATITUDE
 40
37.795
  9
$LONGITUDE
 40
-122.394
  9
$NORTHDIRECTION
 40
0.0
  9
$TIMEZONE
 70
 -8000
  9
$LIGHTGLYPHDISPLAY
280
     1
  9
$TILEMODELIGHTSYNCH
280
     1
  9
$CMATERIAL
347
96
  9
$SOLIDHIST
280
     1
  9
$SHOWHIST
280
     1
  9
$DWFFRAME
280
     2
  9
$DGNFRAME
280
     0
  9
$REALWORLDSCALE
290
     1
  9
$INTERFERECOLOR
 62
     1
  9
$CSHADOW
280
     0
  9
$SHADOWPLANELOCATION
 40
0.0
  0
ENDSEC
  0
SECTION
  2
CLASSES
  0
CLASS
  1
ACDBDICTIONARYWDFLT
  2
AcDbDictionaryWithDefault
  3
ObjectDBX Classes
 90
        0
 91
        3
280
     0
281
     0
  0
CLASS
  1
ACDBPLACEHOLDER
  2
AcDbPlaceHolder
  3
ObjectDBX Classes
 90
        0
 91
        1
280
     0
281
     0
  0
CLASS
  1
LAYOUT
  2
AcDbLayout
  3
ObjectDBX Classes
 90
        0
 91
        1
280
     0
281
     0
  0
CLASS
  1
DICTIONARYVAR
  2
AcDbDictionaryVar
  3
ObjectDBX Classes
 90
        0
 91
        3
280
     0
281
     0
  0
CLASS
  1
TABLESTYLE
  2
AcDbTableStyle
  3
ObjectDBX Classes
 90
     4095
 91
        3
280
     0
281
     0
  0
CLASS
  1
MATERIAL
  2
AcDbMaterial
  3
ObjectDBX Classes
 90
     1153
 91
        3
280
     0
281
     0
  0
CLASS
  1
VISUALSTYLE
  2
AcDbVisualStyle
  3
ObjectDBX Classes
 90
     4095
 91
        3
280
     0
281
     0
  0
CLASS
  1
SCALE
  2
AcDbScale
  3
ObjectDBX Classes
 90
     1153
 91
        3
280
     0
281
     0
  0
CLASS
  1
CELLSTYLEMAP
  2
AcDbCellStyleMap
  3
ObjectDBX Classes
 90
     1152
 91
        3
280
     0
281
     0
  0
CLASS
  1
RASTERVARIABLES
  2
AcDbRasterVariables
  3
ISM
 90
        0
 91
        3
280
     0
281
     0
  0
CLASS
  1
SUN
  2
AcDbSun
  3
SCENEOE
 90
     1153
 91
        3
280
     0
281
     0
  0
CLASS
  1
MLEADERSTYLE
  2
AcDbMLeaderStyle
  3
ACDB_MLEADERSTYLE_CLASS
 90
     4095
 91
        3
280
     0
281
     0
  0
ENDSEC
  0
SECTION
  2
TABLES
  0
TABLE
  2
VPORT
  5
8
330
0
100
AcDbSymbolTable
 70
     1
  0
VPORT
  5
94
330
8
100
AcDbSymbolTableRecord
100
AcDbViewportTableRecord
  2
*Active
 70
     0
 10
0.0
 20
0.0
 11
1.0
 21
1.0
 12
164.0122394792275
 22
81.42043195150661
 13
0.0
 23
0.0
 14
0.5
 24
0.5
 15
0.5
 25
0.5
 16
0.0
 26
0.0
 36
1.0
 17
-27.66959356597988
 27
-19.53870295786203
 37
0.0
 40
168.0752013088943
 41
1.692541856925418
 42
50.0
 43
0.0
 44
0.0
 50
0.0
 51
0.0
 71
    16
 72
  1000
 73
     1
 74
     3
 75
     0
 76
     0
 77
     0
 78
     0
281
     0
 65
     1
110
0.0
120
0.0
130
0.0
111
1.0
121
0.0
131
0.0
112
0.0
122
1.0
132
0.0
 79
     0
146
0.0
348
9F
 60
     2
 61
     5
292
     1
282
     1
141
0.0
142
0.0
 63
   250
421
  3355443
361
ED
  0
ENDTAB
  0
TABLE
  2
LTYPE
  5
5
330
0
100
AcDbSymbolTable
 70
     1
  0
LTYPE
  5
14
330
5
100
AcDbSymbolTableRecord
100
AcDbLinetypeTableRecord
  2
ByBlock
 70
     0
  3

 72
    65
 73
     0
 40
0.0
  0
LTYPE
  5
15
330
5
100
AcDbSymbolTableRecord
100
AcDbLinetypeTableRecord
  2
ByLayer
 70
     0
  3

 72
    65
 73
     0
 40
0.0
  0
LTYPE
  5
16
330
5
100
AcDbSymbolTableRecord
100
AcDbLinetypeTableRecord
  2
Continuous
 70
     0
  3
Solid line
 72
    65
 73
     0
 40
0.0
  0
ENDTAB
  0
TABLE
  2
LAYER
  5
2
330
0
100
AcDbSymbolTable
 70
     2
  0
LAYER
  5
10
330
2
100
AcDbSymbolTableRecord
100
AcDbLayerTableRecord
  2
0
 70
     0
 62
     7
  6
Continuous
370
    -3
390
F
347
98
348
0
  0
LAYER
  5
3EC
330
2
100
AcDbSymbolTableRecord
100
AcDbLayerTableRecord
  2
Imprimir
 70
     0
 62
     7
  6
Continuous
370
    -3
390
F
347
98
348
0
  0
ENDTAB
  0
TABLE
  2
STYLE
  5
3
330
0
100
AcDbSymbolTable
 70
     1
  0
STYLE
  5
11
330
3
100
AcDbSymbolTableRecord
100
AcDbTextStyleTableRecord
  2
Standard
 70
     0
 40
0.0
 41
1.0
 50
0.0
 71
     0
 42
5.0
  3
arial.ttf
  4

1001
ACAD
1000
Arial
1071
        0
  0
ENDTAB
  0
TABLE
  2
VIEW
  5
6
330
0
100
AcDbSymbolTable
 70
     0
  0
ENDTAB
  0
TABLE
  2
UCS
  5
7
330
0
100
AcDbSymbolTable
 70
     0
  0
ENDTAB
  0
TABLE
  2
APPID
  5
9
330
0
100
AcDbSymbolTable
 70
     1
  0
APPID
  5
12
330
9
100
AcDbSymbolTableRecord
100
AcDbRegAppTableRecord
  2
ACAD
 70
     0
  0
ENDTAB
  0
TABLE
  2
DIMSTYLE
  5
A
330
0
100
AcDbSymbolTable
 70
     2
100
AcDbDimStyleTable
  0
DIMSTYLE
105
27
330
A
100
AcDbSymbolTableRecord
100
AcDbDimStyleTableRecord
  2
Standard
 70
     0
178
     0
340
11
  0
DIMSTYLE
105
3EE
330
A
100
AcDbSymbolTableRecord
100
AcDbDimStyleTableRecord
  2
ISO-25
 70
     0
 41
2.5
 42
0.625
 43
3.75
 44
1.25
 73
     0
 74
     0
 77
     1
 78
     8
140
2.5
141
2.5
143
0.03937007874016
147
0.625
171
     3
172
     1
178
     0
271
     2
272
     2
274
     3
283
     0
284
     8
340
11
  0
ENDTAB
  0
TABLE
  2
BLOCK_RECORD
  5
1
330
0
100
AcDbSymbolTable
 70
     1
  0
BLOCK_RECORD
  5
1F
330
1
100
AcDbSymbolTableRecord
100
AcDbBlockTableRecord
  2
*Model_Space
340
22
 70
     0
280
     1
281
     0
  0
BLOCK_RECORD
  5
58
330
1
100
AcDbSymbolTableRecord
100
AcDbBlockTableRecord
  2
*Paper_Space
340
59
 70
     0
280
     1
281
     0
  0
BLOCK_RECORD
  5
5D
330
1
100
AcDbSymbolTableRecord
100
AcDbBlockTableRecord
  2
*Paper_Space0
340
5E
 70
     0
280
     1
281
     0
  0
ENDTAB
  0
ENDSEC
  0
SECTION
  2
BLOCKS
  0
BLOCK
  5
20
330
1F
100
AcDbEntity
  8
0
100
AcDbBlockBegin
  2
*Model_Space
 70
     0
 10
0.0
 20
0.0
 30
0.0
  3
*Model_Space
  1

  0
ENDBLK
  5
21
330
1F
100
AcDbEntity
  8
0
100
AcDbBlockEnd
  0
BLOCK
  5
5A
330
58
100
AcDbEntity
 67
     1
  8
0
100
AcDbBlockBegin
  2
*Paper_Space
 70
     0
 10
0.0
 20
0.0
 30
0.0
  3
*Paper_Space
  1

  0
ENDBLK
  5
5B
330
58
100
AcDbEntity
 67
     1
  8
0
100
AcDbBlockEnd
  0
BLOCK
  5
5F
330
5D
100
AcDbEntity
  8
0
100
AcDbBlockBegin
  2
*Paper_Space0
 70
     0
 10
0.0
 20
0.0
 30
0.0
  3
*Paper_Space0
  1

  0
ENDBLK
  5
60
330
5D
100
AcDbEntity
  8
0
100
AcDbBlockEnd
  0
ENDSEC
  0
SECTION
  2
ENTITIES
  0
LINE
  5
32B
330
1F
100
AcDbEntity
  8
0
 62
     7
100
AcDbLine
 10
27.00000000000014
 20
10.517356926904
 30
0.0
 11
27.00000000000009
 21
2.999999999999957
 31
0.0
  0
LINE
  5
32C
330
1F
100
AcDbEntity
  8
0
 62
     7
100
AcDbLine
 10
30.00000000000009
 20
93.01735692690399
 30
0.0
 11
30.00000000000009
 21
85.51735692690399
 31
0.0
  0
LINE
  5
32D
330
1F
100
AcDbEntity
  8
0
 62
     7
100
AcDbLine
 10
30.00000000000014
 20
10.517356926904
 30
0.0
 11
27.00000000000014
 21
10.517356926904
 31
0.0
  0
LINE
  5
32E
330
1F
100
AcDbEntity
  8
0
 62
     7
100
AcDbLine
 10
30.00000000000009
 20
18.017356926904
 30
0.0
 11
27.00000000000009
 21
18.017356926904
 31
0.0
  0
LINE
  5
32F
330
1F
100
AcDbEntity
  8
0
 62
     7
100
AcDbLine
 10
30.00000000000009
 20
25.517356926904
 30
0.0
 11
27.00000000000009
 21
25.517356926904
 31
0.0
  0
LINE
  5
330
330
1F
100
AcDbEntity
  8
0
 62
     7
100
AcDbLine
 10
30.00000000000009
 20
33.017356926904
 30
0.0
 11
27.00000000000009
 21
33.017356926904
 31
0.0
  0
LINE
  5
331
330
1F
100
AcDbEntity
  8
0
 62
     7
100
AcDbLine
 10
30.00000000000009
 20
40.517356926904
 30
0.0
 11
27.00000000000009
 21
40.517356926904
 31
0.0
  0
LINE
  5
332
330
1F
100
AcDbEntity
  8
0
 62
     7
100
AcDbLine
 10
30.00000000000009
 20
48.017356926904
 30
0.0
 11
27.00000000000009
 21
48.017356926904
 31
0.0
  0
LINE
  5
333
330
1F
100
AcDbEntity
  8
0
 62
     7
100
AcDbLine
 10
30.00000000000009
 20
55.517356926904
 30
0.0
 11
27.00000000000009
 21
55.517356926904
 31
0.0
  0
LINE
  5
334
330
1F
100
AcDbEntity
  8
0
 62
     7
100
AcDbLine
 10
30.00000000000009
 20
63.017356926904
 30
0.0
 11
27.00000000000009
 21
63.017356926904
 31
0.0
  0
LINE
  5
335
330
1F
100
AcDbEntity
  8
0
 62
     7
100
AcDbLine
 10
30.00000000000009
 20
70.51735692690399
 30
0.0
 11
27.00000000000009
 21
70.51735692690399
 31
0.0
  0
LINE
  5
336
330
1F
100
AcDbEntity
  8
0
 62
     7
100
AcDbLine
 10
30.00000000000009
 20
78.01735692690399
 30
0.0
 11
27.00000000000009
 21
78.01735692690399
 31
0.0
  0
LINE
  5
337
330
1F
100
AcDbEntity
  8
0
 62
     7
100
AcDbLine
 10
30.00000000000009
 20
85.51735692690399
 30
0.0
 11
27.00000000000009
 21
85.51735692690399
 31
0.0
  0
LINE
  5
338
330
1F
100
AcDbEntity
  8
0
 62
     7
100
AcDbLine
 10
30.00000000000009
 20
93.01735692690399
 30
0.0
 11
27.00000000000009
 21
93.01735692690399
 31
0.0
  0
LINE
  5
339
330
1F
100
AcDbEntity
  8
0
 62
     7
100
AcDbLine
 10
30.00000000000009
 20
78.01735692690399
 30
0.0
 11
30.00000000000009
 21
70.51735692690399
 31
0.0
  0
LINE
  5
33A
330
1F
100
AcDbEntity
  8
0
 62
     7
100
AcDbLine
 10
30.00000000000009
 20
63.017356926904
 30
0.0
 11
30.00000000000009
 21
55.517356926904
 31
0.0
  0
LINE
  5
33B
330
1F
100
AcDbEntity
  8
0
 62
     7
100
AcDbLine
 10
30.00000000000009
 20
48.017356926904
 30
0.0
 11
30.00000000000009
 21
40.517356926904
 31
0.0
  0
LINE
  5
33C
330
1F
100
AcDbEntity
  8
0
 62
     7
100
AcDbLine
 10
30.00000000000009
 20
33.017356926904
 30
0.0
 11
30.00000000000009
 21
25.517356926904
 31
0.0
  0
LINE
  5
33D
330
1F
100
AcDbEntity
  8
0
 62
     7
100
AcDbLine
 10
30.00000000000009
 20
18.017356926904
 30
0.0
 11
30.00000000000014
 21
10.517356926904
 31
0.0
  0
LINE
  5
33E
330
1F
100
AcDbEntity
  8
0
 62
     7
100
AcDbLine
 10
27.00000000000009
 20
18.017356926904
 30
0.0
 11
27.00000000000009
 21
25.517356926904
 31
0.0
  0
LINE
  5
33F
330
1F
100
AcDbEntity
  8
0
 62
     7
100
AcDbLine
 10
27.00000000000009
 20
33.017356926904
 30
0.0
 11
27.00000000000009
 21
40.517356926904
 31
0.0
  0
LINE
  5
340
330
1F
100
AcDbEntity
  8
0
 62
     7
100
AcDbLine
 10
27.00000000000009
 20
48.017356926904
 30
0.0
 11
27.00000000000009
 21
55.517356926904
 31
0.0
  0
LINE
  5
341
330
1F
100
AcDbEntity
  8
0
 62
     7
100
AcDbLine
 10
27.00000000000009
 20
63.017356926904
 30
0.0
 11
27.00000000000009
 21
70.51735692690399
 31
0.0
  0
LINE
  5
342
330
1F
100
AcDbEntity
  8
0
 62
     7
100
AcDbLine
 10
27.00000000000009
 20
78.01735692690399
 30
0.0
 11
27.00000000000009
 21
85.51735692690399
 31
0.0
  0
LINE
  5
343
330
1F
100
AcDbEntity
  8
0
 62
     7
100
AcDbLine
 10
27.00000000000009
 20
93.01735692690399
 30
0.0
 11
27.00000000000009
 21
100.534713853808
 31
0.0
  0
LINE
  5
478
330
1F
100
AcDbEntity
  8
0
 62
     5
100
AcDbLine
 10
130.8927960000001
 20
92.9011047553942
 30
0.0
 11
154.107204
 21
92.9011047553942
 31
0.0
  0
LINE
  5
47C
330
1F
100
AcDbEntity
  8
0
 62
     5
100
AcDbLine
 10
126.9367650000001
 20
88.9450737553942
 30
0.0
 11
126.9367650000001
 21
70.48876042137088
 31
0.0
  0
LINE
  5
47D
330
1F
100
AcDbEntity
  8
0
 62
     5
100
AcDbLine
 10
130.8927960000001
 20
92.00219504538539
 30
0.0
 11
154.107204
 21
92.00219504538539
 31
0.0
  0
ARC
  5
480
330
1F
100
AcDbEntity
  8
0
 62
     5
100
AcDbCircle
 10
130.8927960000001
 20
88.9450737553942
 30
0.0
 40
3.057121289991187
100
AcDbArc
 50
90.0
 51
180.0
  0
ARC
  5
481
330
1F
100
AcDbEntity
  8
0
 62
     5
100
AcDbCircle
 10
130.8927960000001
 20
88.9450737553942
 30
0.0
 40
3.956030999999996
100
AcDbArc
 50
90.0
 51
180.0
  0
LINE
  5
490
330
1F
100
AcDbEntity
  8
0
 62
     5
100
AcDbLine
 10
127.8360685778205
 20
70.43968855353891
 30
0.0
 11
127.8360685778205
 21
80.46285024059016
 31
0.0
  0
ARC
  5
492
330
1F
100
AcDbEntity
  8
0
 62
     5
100
AcDbCircle
 10
130.8927960000001
 20
70.48876042137088
 30
0.0
 40
3.057121289991187
100
AcDbArc
 50
180.0
 51
270.0
  0
ARC
  5
493
330
1F
100
AcDbEntity
  8
0
 62
     5
100
AcDbCircle
 10
130.8927960000001
 20
70.48876042137088
 30
0.0
 40
3.956030999999996
100
AcDbArc
 50
180.0
 51
270.0
  0
LINE
  5
496
330
1F
100
AcDbEntity
  8
0
 62
     5
100
AcDbLine
 10
130.8927960000001
 20
66.53272942137089
 30
0.0
 11
154.107204
 21
66.53272942137089
 31
0.0
  0
LINE
  5
497
330
1F
100
AcDbEntity
  8
0
 62
     5
100
AcDbLine
 10
130.8927960000001
 20
67.4316391313797
 30
0.0
 11
154.107204
 21
67.4316391313797
 31
0.0
  0
ARC
  5
49A
330
1F
100
AcDbEntity
  8
0
 62
     5
100
AcDbCircle
 10
142.5000000000001
 20
85.96655006894666
 30
0.0
 40
1.941122317127622
100
AcDbArc
 50
0.0
 51
180.0
  0
ARC
  5
49B
330
1F
100
AcDbEntity
  8
0
 62
     5
100
AcDbCircle
 10
142.5000000000001
 20
85.96655006894666
 30
0.0
 40
1.008947127304452
100
AcDbArc
 50
0.0
 51
180.0
  0
LINE
  5
49F
330
1F
100
AcDbEntity
  8
0
 62
     5
100
AcDbLine
 10
141.4910528726956
 20
85.96655006894666
 30
0.0
 11
141.4910528726956
 21
73.46728410781843
 31
0.0
  0
LINE
  5
4A0
330
1F
100
AcDbEntity
  8
0
 62
     5
100
AcDbLine
 10
140.5588776828724
 20
85.96655006894666
 30
0.0
 11
140.5588776828724
 21
73.46728410781843
 31
0.0
  0
ARC
  5
4A2
330
1F
100
AcDbEntity
  8
0
 62
     5
100
AcDbCircle
 10
139.549930555568
 20
73.46728410781843
 30
0.0
 40
1.008947127304452
100
AcDbArc
 50
180.0
 51
0.0
  0
ARC
  5
4A3
330
1F
100
AcDbEntity
  8
0
 62
     5
100
AcDbCircle
 10
139.549930555568
 20
73.46728410781843
 30
0.0
 40
1.941122317127622
100
AcDbArc
 50
180.0
 51
0.0
  0
LINE
  5
4AB
330
1F
100
AcDbEntity
  8
0
 62
     5
100
AcDbLine
 10
138.5409834282635
 20
73.46728410781843
 30
0.0
 11
138.5409834282635
 21
83.46623380822655
 31
0.0
  0
LINE
  5
4AC
330
1F
100
AcDbEntity
  8
0
 62
     5
100
AcDbLine
 10
137.6088082384404
 20
73.46728410781843
 30
0.0
 11
137.6088082384404
 21
83.46623380822655
 31
0.0
  0
ARC
  5
4AF
330
1F
100
AcDbEntity
  8
0
 62
     5
100
AcDbCircle
 10
133.6482126828724
 20
76.98903790124562
 30
0.0
 40
1.008947127304452
100
AcDbArc
 50
180.0
 51
0.0
  0
ARC
  5
4B0
330
1F
100
AcDbEntity
  8
0
 62
     5
100
AcDbCircle
 10
133.6482126828724
 20
76.98903790124562
 30
0.0
 40
1.941122317127622
100
AcDbArc
 50
180.0
 51
0.0
  0
ARC
  5
4B3
330
1F
100
AcDbEntity
  8
0
 62
     5
100
AcDbCircle
 10
136.5998611111359
 20
83.46623380822655
 30
0.0
 40
1.008947127304452
100
AcDbArc
 50
0.0
 51
180.0
  0
ARC
  5
4B4
330
1F
100
AcDbEntity
  8
0
 62
     5
100
AcDbCircle
 10
136.5998611111359
 20
83.46623380822655
 30
0.0
 40
1.941122317127622
100
AcDbArc
 50
0.0
 51
180.0
  0
LINE
  5
4B7
330
1F
100
AcDbEntity
  8
0
 62
     5
100
AcDbLine
 10
135.5909139838315
 20
76.98903790124562
 30
0.0
 11
135.5909139838315
 21
83.46623380822655
 31
0.0
  0
LINE
  5
4BA
330
1F
100
AcDbEntity
  8
0
 62
     5
100
AcDbLine
 10
134.6587387940083
 20
76.98903790124562
 30
0.0
 11
134.6587387940083
 21
83.46623380822655
 31
0.0
  0
ARC
  5
4BB
330
1F
100
AcDbEntity
  8
0
 62
     5
100
AcDbCircle
 10
130.6981432384404
 20
79.4539031132857
 30
0.0
 40
1.008947127304452
100
AcDbArc
 50
0.0
 51
90.0
  0
ARC
  5
4BC
330
1F
100
AcDbEntity
  8
0
 62
     5
100
AcDbCircle
 10
130.6981432384404
 20
79.4539031132857
 30
0.0
 40
1.941122317127622
100
AcDbArc
 50
0.0
 51
90.0
  0
LINE
  5
4C1
330
1F
100
AcDbEntity
  8
0
 62
     5
100
AcDbLine
 10
127.8360685778205
 20
81.39502543041333
 30
0.0
 11
127.8360685778205
 21
88.99414562322616
 31
0.0
  0
LINE
  5
4CB
330
1F
100
AcDbEntity
  8
0
 62
     5
100
AcDbLine
 10
132.639265555568
 20
79.4539031132857
 30
0.0
 11
132.639265555568
 21
76.98903790124562
 31
0.0
  0
LINE
  5
4CC
330
1F
100
AcDbEntity
  8
0
 62
     5
100
AcDbLine
 10
131.7070903657448
 20
79.4539031132857
 30
0.0
 11
131.7070903657448
 21
76.98903790124562
 31
0.0
  0
LINE
  5
4CE
330
1F
100
AcDbEntity
  8
0
 62
     5
100
AcDbLine
 10
127.8360685778205
 20
81.39502543041333
 30
0.0
 11
130.6981432384404
 21
81.39502543041333
 31
0.0
  0
LINE
  5
4CF
330
1F
100
AcDbEntity
  8
0
 62
     5
100
AcDbLine
 10
127.8360685778205
 20
80.46285024059016
 30
0.0
 11
130.6981432384404
 21
80.46285024059016
 31
0.0
  0
ARC
  5
4D7
330
1F
100
AcDbEntity
  8
0
 62
     5
100
AcDbCircle
 10
154.107204
 20
88.9450737553942
 30
0.0
 40
3.057121289991187
100
AcDbArc
 50
0.0
 51
90.0
  0
ARC
  5
4D8
330
1F
100
AcDbEntity
  8
0
 62
     5
100
AcDbCircle
 10
154.107204
 20
88.9450737553942
 30
0.0
 40
3.956030999999996
100
AcDbArc
 50
0.0
 51
90.0
  0
LINE
  5
4D9
330
1F
100
AcDbEntity
  8
0
 62
     5
100
AcDbLine
 10
158.063235
 20
88.9450737553942
 30
0.0
 11
158.063235
 21
70.48876042137088
 31
0.0
  0
ARC
  5
4DA
330
1F
100
AcDbEntity
  8
0
 62
     5
100
AcDbCircle
 10
154.107204
 20
70.48876042137088
 30
0.0
 40
3.057121289991187
100
AcDbArc
 50
270.0
 51
0.0
  0
ARC
  5
4DB
330
1F
100
AcDbEntity
  8
0
 62
     5
100
AcDbCircle
 10
154.107204
 20
70.48876042137088
 30
0.0
 40
3.956030999999996
100
AcDbArc
 50
270.0
 51
0.0
  0
ARC
  5
4DC
330
1F
100
AcDbEntity
  8
0
 62
     5
100
AcDbCircle
 10
145.4500694444321
 20
73.46728410781843
 30
0.0
 40
1.008947127304452
100
AcDbArc
 50
180.0
 51
0.0
  0
ARC
  5
4DD
330
1F
100
AcDbEntity
  8
0
 62
     5
100
AcDbCircle
 10
145.4500694444321
 20
73.46728410781843
 30
0.0
 40
1.941122317127622
100
AcDbArc
 50
180.0
 51
0.0
  0
LINE
  5
4DE
330
1F
100
AcDbEntity
  8
0
 62
     5
100
AcDbLine
 10
143.5089471273045
 20
85.96655006894666
 30
0.0
 11
143.5089471273045
 21
73.46728410781843
 31
0.0
  0
LINE
  5
4DF
330
1F
100
AcDbEntity
  8
0
 62
     5
100
AcDbLine
 10
144.4411223171277
 20
85.96655006894666
 30
0.0
 11
144.4411223171277
 21
73.46728410781843
 31
0.0
  0
ARC
  5
4E0
330
1F
100
AcDbEntity
  8
0
 62
     5
100
AcDbCircle
 10
151.3517873171277
 20
76.98903790124562
 30
0.0
 40
1.008947127304452
100
AcDbArc
 50
180.0
 51
0.0
  0
ARC
  5
4E1
330
1F
100
AcDbEntity
  8
0
 62
     5
100
AcDbCircle
 10
151.3517873171277
 20
76.98903790124562
 30
0.0
 40
1.941122317127622
100
AcDbArc
 50
180.0
 51
0.0
  0
ARC
  5
4E2
330
1F
100
AcDbEntity
  8
0
 62
     5
100
AcDbCircle
 10
148.4001388888642
 20
83.46623380822655
 30
0.0
 40
1.008947127304452
100
AcDbArc
 50
0.0
 51
180.0
  0
ARC
  5
4E3
330
1F
100
AcDbEntity
  8
0
 62
     5
100
AcDbCircle
 10
148.4001388888642
 20
83.46623380822655
 30
0.0
 40
1.941122317127622
100
AcDbArc
 50
0.0
 51
180.0
  0
ARC
  5
4E4
330
1F
100
AcDbEntity
  8
0
 62
     5
100
AcDbCircle
 10
154.3018567615597
 20
79.4539031132857
 30
0.0
 40
1.008947127304452
100
AcDbArc
 50
90.0
 51
180.0
  0
ARC
  5
4E5
330
1F
100
AcDbEntity
  8
0
 62
     5
100
AcDbCircle
 10
154.3018567615597
 20
79.4539031132857
 30
0.0
 40
1.941122317127622
100
AcDbArc
 50
90.0
 51
180.0
  0
LINE
  5
4E6
330
1F
100
AcDbEntity
  8
0
 62
     5
100
AcDbLine
 10
157.1639314221796
 20
81.39502543041333
 30
0.0
 11
157.1639314221796
 21
88.99414562322616
 31
0.0
  0
LINE
  5
4E7
330
1F
100
AcDbEntity
  8
0
 62
     5
100
AcDbLine
 10
157.1639314221796
 20
70.43968855353891
 30
0.0
 11
157.1639314221796
 21
80.46285024059016
 31
0.0
  0
LINE
  5
4E8
330
1F
100
AcDbEntity
  8
0
 62
     5
100
AcDbLine
 10
146.4590165717366
 20
73.46728410781843
 30
0.0
 11
146.4590165717366
 21
83.46623380822655
 31
0.0
  0
LINE
  5
4E9
330
1F
100
AcDbEntity
  8
0
 62
     5
100
AcDbLine
 10
150.3412612059918
 20
76.98903790124562
 30
0.0
 11
150.3412612059918
 21
83.46623380822655
 31
0.0
  0
LINE
  5
4EA
330
1F
100
AcDbEntity
  8
0
 62
     5
100
AcDbLine
 10
149.4090860161687
 20
76.98903790124562
 30
0.0
 11
149.4090860161687
 21
83.46623380822655
 31
0.0
  0
LINE
  5
4EB
330
1F
100
AcDbEntity
  8
0
 62
     5
100
AcDbLine
 10
147.3911917615598
 20
73.46728410781843
 30
0.0
 11
147.3911917615598
 21
83.46623380822655
 31
0.0
  0
LINE
  5
4EC
330
1F
100
AcDbEntity
  8
0
 62
     5
100
AcDbLine
 10
157.1639314221796
 20
80.46285024059016
 30
0.0
 11
154.3018567615597
 21
80.46285024059016
 31
0.0
  0
LINE
  5
4ED
330
1F
100
AcDbEntity
  8
0
 62
     5
100
AcDbLine
 10
157.1639314221796
 20
81.39502543041333
 30
0.0
 11
154.3018567615597
 21
81.39502543041333
 31
0.0
  0
LINE
  5
4EE
330
1F
100
AcDbEntity
  8
0
 62
     5
100
AcDbLine
 10
152.3607344444321
 20
79.4539031132857
 30
0.0
 11
152.3607344444321
 21
76.98903790124562
 31
0.0
  0
LINE
  5
4EF
330
1F
100
AcDbEntity
  8
0
 62
     5
100
AcDbLine
 10
153.2929096342553
 20
79.4539031132857
 30
0.0
 11
153.2929096342553
 21
76.98903790124562
 31
0.0
  0
LINE
  5
541
330
1F
100
AcDbEntity
  8
0
 62
     7
100
AcDbLine
 10
146.2500000000001
 20
100.534713853808
 30
0.0
 11
146.2500000000001
 21
103.534713853808
 31
0.0
  0
LINE
  5
542
330
1F
100
AcDbEntity
  8
0
 62
     7
100
AcDbLine
 10
153.7500000000001
 20
100.534713853808
 30
0.0
 11
153.7500000000001
 21
103.5347138538081
 31
0.0
  0
LINE
  5
543
330
1F
100
AcDbEntity
  8
0
 62
     7
100
AcDbLine
 10
161.2500000000001
 20
100.534713853808
 30
0.0
 11
161.2500000000001
 21
103.5347138538081
 31
0.0
  0
LINE
  5
544
330
1F
100
AcDbEntity
  8
0
 62
     7
100
AcDbLine
 10
168.7500000000001
 20
100.534713853808
 30
0.0
 11
168.7500000000001
 21
103.5347138538081
 31
0.0
  0
LINE
  5
545
330
1F
100
AcDbEntity
  8
0
 62
     7
100
AcDbLine
 10
168.7500000000001
 20
100.534713853808
 30
0.0
 11
161.2500000000001
 21
100.534713853808
 31
0.0
  0
LINE
  5
546
330
1F
100
AcDbEntity
  8
0
 62
     7
100
AcDbLine
 10
153.7500000000001
 20
100.534713853808
 30
0.0
 11
146.2500000000001
 21
100.534713853808
 31
0.0
  0
LINE
  5
54B
330
1F
100
AcDbEntity
  8
0
 62
     7
100
AcDbLine
 10
138.7500000000001
 20
103.534713853808
 30
0.0
 11
146.2500000000001
 21
103.534713853808
 31
0.0
  0
LINE
  5
54C
330
1F
100
AcDbEntity
  8
0
 62
     7
100
AcDbLine
 10
153.7500000000001
 20
103.5347138538081
 30
0.0
 11
161.2500000000001
 21
103.5347138538081
 31
0.0
  0
LINE
  5
54F
330
1F
100
AcDbEntity
  8
0
 62
     7
100
AcDbLine
 10
168.7500000000001
 20
103.5347138538081
 30
0.0
 11
176.2500000000001
 21
103.5347138538081
 31
0.0
  0
LINE
  5
58A
330
1F
100
AcDbEntity
  8
0
 62
     3
100
AcDbLine
 10
258.0000000000001
 20
10.51735692690403
 30
0.0
 11
258.0000000000001
 21
2.999999999999982
 31
0.0
  0
LINE
  5
58B
330
1F
100
AcDbEntity
  8
0
 62
     3
100
AcDbLine
 10
255.0000000000001
 20
93.01735692690401
 30
0.0
 11
255.0000000000001
 21
85.51735692690401
 31
0.0
  0
LINE
  5
58C
330
1F
100
AcDbEntity
  8
0
 62
     3
100
AcDbLine
 10
255.0000000000001
 20
10.51735692690403
 30
0.0
 11
258.0000000000001
 21
10.51735692690403
 31
0.0
  0
LINE
  5
58D
330
1F
100
AcDbEntity
  8
0
 62
     3
100
AcDbLine
 10
255.0000000000001
 20
18.01735692690403
 30
0.0
 11
258.0000000000001
 21
18.01735692690403
 31
0.0
  0
LINE
  5
58E
330
1F
100
AcDbEntity
  8
0
 62
     3
100
AcDbLine
 10
255.0000000000001
 20
25.51735692690403
 30
0.0
 11
258.0000000000001
 21
25.51735692690403
 31
0.0
  0
LINE
  5
58F
330
1F
100
AcDbEntity
  8
0
 62
     3
100
AcDbLine
 10
255.0000000000001
 20
33.01735692690403
 30
0.0
 11
258.0000000000001
 21
33.01735692690403
 31
0.0
  0
LINE
  5
590
330
1F
100
AcDbEntity
  8
0
 62
     3
100
AcDbLine
 10
255.0000000000001
 20
40.51735692690403
 30
0.0
 11
258.0000000000001
 21
40.51735692690403
 31
0.0
  0
LINE
  5
591
330
1F
100
AcDbEntity
  8
0
 62
     3
100
AcDbLine
 10
255.0000000000001
 20
48.01735692690403
 30
0.0
 11
258.0000000000001
 21
48.01735692690403
 31
0.0
  0
LINE
  5
592
330
1F
100
AcDbEntity
  8
0
 62
     3
100
AcDbLine
 10
255.0000000000001
 20
55.51735692690403
 30
0.0
 11
258.0000000000001
 21
55.51735692690403
 31
0.0
  0
LINE
  5
593
330
1F
100
AcDbEntity
  8
0
 62
     3
100
AcDbLine
 10
255.0000000000001
 20
63.01735692690403
 30
0.0
 11
258.0000000000001
 21
63.01735692690403
 31
0.0
  0
LINE
  5
594
330
1F
100
AcDbEntity
  8
0
 62
     3
100
AcDbLine
 10
255.0000000000001
 20
70.51735692690401
 30
0.0
 11
258.0000000000001
 21
70.51735692690401
 31
0.0
  0
LINE
  5
595
330
1F
100
AcDbEntity
  8
0
 62
     3
100
AcDbLine
 10
255.0000000000001
 20
78.01735692690401
 30
0.0
 11
258.0000000000001
 21
78.01735692690401
 31
0.0
  0
LINE
  5
596
330
1F
100
AcDbEntity
  8
0
 62
     3
100
AcDbLine
 10
255.0000000000001
 20
85.51735692690401
 30
0.0
 11
258.0000000000001
 21
85.51735692690401
 31
0.0
  0
LINE
  5
597
330
1F
100
AcDbEntity
  8
0
 62
     3
100
AcDbLine
 10
255.0000000000001
 20
93.01735692690401
 30
0.0
 11
258.0000000000001
 21
93.01735692690401
 31
0.0
  0
LINE
  5
598
330
1F
100
AcDbEntity
  8
0
 62
     3
100
AcDbLine
 10
255.0000000000001
 20
78.01735692690401
 30
0.0
 11
255.0000000000001
 21
70.51735692690401
 31
0.0
  0
LINE
  5
599
330
1F
100
AcDbEntity
  8
0
 62
     3
100
AcDbLine
 10
255.0000000000001
 20
63.01735692690403
 30
0.0
 11
255.0000000000001
 21
55.51735692690403
 31
0.0
  0
LINE
  5
59A
330
1F
100
AcDbEntity
  8
0
 62
     3
100
AcDbLine
 10
255.0000000000001
 20
48.01735692690403
 30
0.0
 11
255.0000000000001
 21
40.51735692690403
 31
0.0
  0
LINE
  5
59B
330
1F
100
AcDbEntity
  8
0
 62
     3
100
AcDbLine
 10
255.0000000000001
 20
33.01735692690403
 30
0.0
 11
255.0000000000001
 21
25.51735692690403
 31
0.0
  0
LINE
  5
59C
330
1F
100
AcDbEntity
  8
0
 62
     3
100
AcDbLine
 10
255.0000000000001
 20
18.01735692690403
 30
0.0
 11
255.0000000000001
 21
10.51735692690403
 31
0.0
  0
LINE
  5
59D
330
1F
100
AcDbEntity
  8
0
 62
     3
100
AcDbLine
 10
258.0000000000001
 20
18.01735692690403
 30
0.0
 11
258.0000000000001
 21
25.51735692690403
 31
0.0
  0
LINE
  5
59E
330
1F
100
AcDbEntity
  8
0
 62
     3
100
AcDbLine
 10
258.0000000000001
 20
33.01735692690403
 30
0.0
 11
258.0000000000001
 21
40.51735692690403
 31
0.0
  0
LINE
  5
59F
330
1F
100
AcDbEntity
  8
0
 62
     3
100
AcDbLine
 10
258.0000000000001
 20
48.01735692690403
 30
0.0
 11
258.0000000000001
 21
55.51735692690403
 31
0.0
  0
LINE
  5
5A0
330
1F
100
AcDbEntity
  8
0
 62
     3
100
AcDbLine
 10
258.0000000000001
 20
63.01735692690403
 30
0.0
 11
258.0000000000001
 21
70.51735692690401
 31
0.0
  0
LINE
  5
5A1
330
1F
100
AcDbEntity
  8
0
 62
     3
100
AcDbLine
 10
258.0000000000001
 20
78.01735692690401
 30
0.0
 11
258.0000000000001
 21
85.51735692690401
 31
0.0
  0
LINE
  5
5A2
330
1F
100
AcDbEntity
  8
0
 62
     3
100
AcDbLine
 10
258.0000000000001
 20
93.01735692690401
 30
0.0
 11
258.0000000000001
 21
100.534713853808
 31
0.0
  0
LINE
  5
5E2
330
1F
100
AcDbEntity
  8
0
 62
     7
100
AcDbLine
 10
258.0000000000001
 20
100.5347138538081
 30
0.0
 11
251.2500000000001
 21
100.5347138538081
 31
0.0
  0
CIRCLE
  5
62C
330
1F
100
AcDbEntity
  8
0
 62
     1
100
AcDbCircle
 10
65.50000000000006
 20
34.76636471068549
 30
0.0
 40
6.0
  0
CIRCLE
  5
62D
330
1F
100
AcDbEntity
  8
0
 62
     1
100
AcDbCircle
 10
142.5000000000001
 20
34.76636471068548
 30
0.0
 40
6.0
  0
CIRCLE
  5
62E
330
1F
100
AcDbEntity
  8
0
 62
     1
100
AcDbCircle
 10
219.5000000000001
 20
34.76636471068548
 30
0.0
 40
6.0
  0
LINE
  5
654
330
1F
100
AcDbEntity
  8
0
 62
     3
100
AcDbLine
 10
258.0000000000001
 20
119.284713853808
 30
0.0
 11
258.0000000000001
 21
130.5347138538081
 31
0.0
  0
LINE
  5
658
330
1F
100
AcDbEntity
  8
0
 62
     3
100
AcDbLine
 10
255.0000000000001
 20
111.784713853808
 30
0.0
 11
255.0000000000001
 21
119.284713853808
 31
0.0
  0
LINE
  5
659
330
1F
100
AcDbEntity
  8
0
 62
     3
100
AcDbLine
 10
258.0000000000002
 20
111.784713853808
 30
0.0
 11
258.0000000000001
 21
100.5347138538081
 31
0.0
  0
LINE
  5
65D
330
1F
100
AcDbEntity
  8
0
 62
     7
100
AcDbLine
 10
176.2500000000001
 20
100.534713853808
 30
0.0
 11
176.2500000000001
 21
103.5347138538081
 31
0.0
  0
LINE
  5
65E
330
1F
100
AcDbEntity
  8
0
 62
     7
100
AcDbLine
 10
183.7500000000001
 20
100.534713853808
 30
0.0
 11
183.7500000000001
 21
103.5347138538081
 31
0.0
  0
LINE
  5
65F
330
1F
100
AcDbEntity
  8
0
 62
     7
100
AcDbLine
 10
191.2500000000001
 20
100.534713853808
 30
0.0
 11
191.2500000000001
 21
103.5347138538081
 31
0.0
  0
LINE
  5
660
330
1F
100
AcDbEntity
  8
0
 62
     7
100
AcDbLine
 10
198.7500000000001
 20
100.534713853808
 30
0.0
 11
198.7500000000001
 21
103.5347138538081
 31
0.0
  0
LINE
  5
661
330
1F
100
AcDbEntity
  8
0
 62
     7
100
AcDbLine
 10
206.2500000000001
 20
100.5347138538081
 30
0.0
 11
206.2500000000001
 21
103.5347138538081
 31
0.0
  0
LINE
  5
662
330
1F
100
AcDbEntity
  8
0
 62
     7
100
AcDbLine
 10
213.7500000000001
 20
100.5347138538081
 30
0.0
 11
213.7500000000001
 21
103.5347138538081
 31
0.0
  0
LINE
  5
663
330
1F
100
AcDbEntity
  8
0
 62
     7
100
AcDbLine
 10
221.2500000000001
 20
100.5347138538081
 30
0.0
 11
221.2500000000001
 21
103.5347138538081
 31
0.0
  0
LINE
  5
664
330
1F
100
AcDbEntity
  8
0
 62
     7
100
AcDbLine
 10
228.7500000000001
 20
100.5347138538081
 30
0.0
 11
228.7500000000001
 21
103.5347138538081
 31
0.0
  0
LINE
  5
665
330
1F
100
AcDbEntity
  8
0
 62
     7
100
AcDbLine
 10
228.7500000000001
 20
100.5347138538081
 30
0.0
 11
221.2500000000001
 21
100.5347138538081
 31
0.0
  0
LINE
  5
666
330
1F
100
AcDbEntity
  8
0
 62
     7
100
AcDbLine
 10
213.7500000000001
 20
100.5347138538081
 30
0.0
 11
206.2500000000001
 21
100.5347138538081
 31
0.0
  0
LINE
  5
667
330
1F
100
AcDbEntity
  8
0
 62
     7
100
AcDbLine
 10
198.7500000000001
 20
100.534713853808
 30
0.0
 11
191.2500000000001
 21
100.534713853808
 31
0.0
  0
LINE
  5
668
330
1F
100
AcDbEntity
  8
0
 62
     7
100
AcDbLine
 10
183.7500000000001
 20
100.534713853808
 30
0.0
 11
176.2500000000001
 21
100.534713853808
 31
0.0
  0
LINE
  5
669
330
1F
100
AcDbEntity
  8
0
 62
     7
100
AcDbLine
 10
183.7500000000001
 20
103.5347138538081
 30
0.0
 11
191.2500000000001
 21
103.5347138538081
 31
0.0
  0
LINE
  5
66A
330
1F
100
AcDbEntity
  8
0
 62
     7
100
AcDbLine
 10
198.7500000000001
 20
103.5347138538081
 30
0.0
 11
206.2500000000001
 21
103.5347138538081
 31
0.0
  0
LINE
  5
66B
330
1F
100
AcDbEntity
  8
0
 62
     7
100
AcDbLine
 10
213.7500000000001
 20
103.5347138538081
 30
0.0
 11
221.2500000000001
 21
103.5347138538081
 31
0.0
  0
LINE
  5
66C
330
1F
100
AcDbEntity
  8
0
 62
     7
100
AcDbLine
 10
228.7500000000001
 20
103.5347138538081
 30
0.0
 11
236.2500000000001
 21
103.5347138538081
 31
0.0
  0
LINE
  5
66D
330
1F
100
AcDbEntity
  8
0
 62
     7
100
AcDbLine
 10
236.2500000000001
 20
100.5347138538081
 30
0.0
 11
236.2500000000001
 21
103.5347138538081
 31
0.0
  0
LINE
  5
66E
330
1F
100
AcDbEntity
  8
0
 62
     7
100
AcDbLine
 10
243.7500000000001
 20
100.5347138538081
 30
0.0
 11
243.7500000000001
 21
103.5347138538081
 31
0.0
  0
LINE
  5
66F
330
1F
100
AcDbEntity
  8
0
 62
     7
100
AcDbLine
 10
251.2500000000001
 20
100.5347138538081
 30
0.0
 11
251.2500000000001
 21
103.5347138538081
 31
0.0
  0
LINE
  5
671
330
1F
100
AcDbEntity
  8
0
 62
     3
100
AcDbLine
 10
258.0000000000001
 20
111.784713853808
 30
0.0
 11
255.0000000000001
 21
111.784713853808
 31
0.0
  0
LINE
  5
672
330
1F
100
AcDbEntity
  8
0
 62
     3
100
AcDbLine
 10
258.0000000000001
 20
119.284713853808
 30
0.0
 11
255.0
 21
119.284713853808
 31
0.0
  0
LINE
  5
678
330
1F
100
AcDbEntity
  8
0
 62
     7
100
AcDbLine
 10
243.7500000000001
 20
100.5347138538081
 30
0.0
 11
236.2500000000001
 21
100.5347138538081
 31
0.0
  0
LINE
  5
679
330
1F
100
AcDbEntity
  8
0
 62
     7
100
AcDbLine
 10
243.7500000000001
 20
103.5347138538081
 30
0.0
 11
251.2500000000001
 21
103.5347138538081
 31
0.0
  0
CIRCLE
  5
67E
330
1F
100
AcDbEntity
  8
0
 62
     1
100
AcDbCircle
 10
65.50000000000006
 20
115.5347138538081
 30
0.0
 40
7.5
  0
CIRCLE
  5
685
330
1F
100
AcDbEntity
  8
0
 62
     1
100
AcDbCircle
 10
76.50000000000006
 20
115.5347138538081
 30
0.0
 40
1.0
  0
CIRCLE
  5
686
330
1F
100
AcDbEntity
  8
0
 62
     1
100
AcDbCircle
 10
54.50000000000006
 20
115.5347138538081
 30
0.0
 40
1.0
  0
CIRCLE
  5
687
330
1F
100
AcDbEntity
  8
0
 62
     1
100
AcDbCircle
 10
96.16982422988224
 20
115.5347138538081
 30
0.0
 40
4.75
  0
LINE
  5
697
330
1F
100
AcDbEntity
  8
0
 62
     7
100
AcDbLine
 10
138.7500000000001
 20
100.534713853808
 30
0.0
 11
138.7500000000001
 21
103.534713853808
 31
0.0
  0
LINE
  5
698
330
1F
100
AcDbEntity
  8
0
 62
     7
100
AcDbLine
 10
131.2500000000001
 20
100.534713853808
 30
0.0
 11
131.2500000000001
 21
103.5347138538081
 31
0.0
  0
LINE
  5
699
330
1F
100
AcDbEntity
  8
0
 62
     7
100
AcDbLine
 10
123.7500000000001
 20
100.534713853808
 30
0.0
 11
123.7500000000001
 21
103.5347138538081
 31
0.0
  0
LINE
  5
69A
330
1F
100
AcDbEntity
  8
0
 62
     7
100
AcDbLine
 10
116.2500000000001
 20
100.534713853808
 30
0.0
 11
116.2500000000001
 21
103.5347138538081
 31
0.0
  0
LINE
  5
69B
330
1F
100
AcDbEntity
  8
0
 62
     7
100
AcDbLine
 10
116.2500000000001
 20
100.534713853808
 30
0.0
 11
123.7500000000001
 21
100.534713853808
 31
0.0
  0
LINE
  5
69C
330
1F
100
AcDbEntity
  8
0
 62
     7
100
AcDbLine
 10
131.2500000000001
 20
100.534713853808
 30
0.0
 11
138.7500000000001
 21
100.534713853808
 31
0.0
  0
LINE
  5
69D
330
1F
100
AcDbEntity
  8
0
 62
     7
100
AcDbLine
 10
131.2500000000001
 20
103.5347138538081
 30
0.0
 11
123.7500000000001
 21
103.5347138538081
 31
0.0
  0
LINE
  5
69E
330
1F
100
AcDbEntity
  8
0
 62
     7
100
AcDbLine
 10
116.2500000000001
 20
103.5347138538081
 30
0.0
 11
108.7500000000001
 21
103.5347138538081
 31
0.0
  0
LINE
  5
69F
330
1F
100
AcDbEntity
  8
0
 62
     7
100
AcDbLine
 10
27.00000000000009
 20
100.5347138538081
 30
0.0
 11
33.75000000000009
 21
100.5347138538081
 31
0.0
  0
LINE
  5
6A0
330
1F
100
AcDbEntity
  8
0
 62
     3
100
AcDbLine
 10
27.00000000000006
 20
119.284713853808
 30
0.0
 11
27.00000000000006
 21
130.5347138538081
 31
0.0
  0
LINE
  5
6A1
330
1F
100
AcDbEntity
  8
0
 62
     3
100
AcDbLine
 10
11.25000000000006
 20
103.5347138538081
 30
0.0
 11
11.25000000000006
 21
100.5347138538081
 31
0.0
  0
LINE
  5
6A2
330
1F
100
AcDbEntity
  8
0
 62
     3
100
AcDbLine
 10
18.75000000000006
 20
103.534713853808
 30
0.0
 11
18.75000000000006
 21
100.534713853808
 31
0.0
  0
LINE
  5
6A3
330
1F
100
AcDbEntity
  8
0
 62
     3
100
AcDbLine
 10
30.00000000000006
 20
111.784713853808
 30
0.0
 11
30.00000000000006
 21
119.284713853808
 31
0.0
  0
LINE
  5
6A4
330
1F
100
AcDbEntity
  8
0
 62
     3
100
AcDbLine
 10
27.00000000000006
 20
111.784713853808
 30
0.0
 11
27.00000000000006
 21
100.5347138538081
 31
0.0
  0
LINE
  5
6A5
330
1F
100
AcDbEntity
  8
0
 62
     7
100
AcDbLine
 10
108.7500000000001
 20
100.534713853808
 30
0.0
 11
108.7500000000001
 21
103.5347138538081
 31
0.0
  0
LINE
  5
6A6
330
1F
100
AcDbEntity
  8
0
 62
     7
100
AcDbLine
 10
101.2500000000001
 20
100.534713853808
 30
0.0
 11
101.2500000000001
 21
103.5347138538081
 31
0.0
  0
LINE
  5
6A7
330
1F
100
AcDbEntity
  8
0
 62
     7
100
AcDbLine
 10
93.75000000000009
 20
100.534713853808
 30
0.0
 11
93.75000000000009
 21
103.5347138538081
 31
0.0
  0
LINE
  5
6A8
330
1F
100
AcDbEntity
  8
0
 62
     7
100
AcDbLine
 10
86.25000000000009
 20
100.534713853808
 30
0.0
 11
86.25000000000009
 21
103.5347138538081
 31
0.0
  0
LINE
  5
6A9
330
1F
100
AcDbEntity
  8
0
 62
     7
100
AcDbLine
 10
78.75000000000009
 20
100.5347138538081
 30
0.0
 11
78.75000000000009
 21
103.5347138538081
 31
0.0
  0
LINE
  5
6AA
330
1F
100
AcDbEntity
  8
0
 62
     7
100
AcDbLine
 10
71.25000000000009
 20
100.5347138538081
 30
0.0
 11
71.25000000000009
 21
103.5347138538081
 31
0.0
  0
LINE
  5
6AB
330
1F
100
AcDbEntity
  8
0
 62
     7
100
AcDbLine
 10
63.75000000000009
 20
100.5347138538081
 30
0.0
 11
63.75000000000009
 21
103.5347138538081
 31
0.0
  0
LINE
  5
6AC
330
1F
100
AcDbEntity
  8
0
 62
     7
100
AcDbLine
 10
56.25000000000009
 20
100.5347138538081
 30
0.0
 11
56.25000000000009
 21
103.5347138538081
 31
0.0
  0
LINE
  5
6AD
330
1F
100
AcDbEntity
  8
0
 62
     7
100
AcDbLine
 10
56.25000000000009
 20
100.5347138538081
 30
0.0
 11
63.75000000000009
 21
100.5347138538081
 31
0.0
  0
LINE
  5
6AE
330
1F
100
AcDbEntity
  8
0
 62
     7
100
AcDbLine
 10
71.25000000000009
 20
100.5347138538081
 30
0.0
 11
78.75000000000009
 21
100.5347138538081
 31
0.0
  0
LINE
  5
6AF
330
1F
100
AcDbEntity
  8
0
 62
     7
100
AcDbLine
 10
86.25000000000009
 20
100.534713853808
 30
0.0
 11
93.75000000000009
 21
100.534713853808
 31
0.0
  0
LINE
  5
6B0
330
1F
100
AcDbEntity
  8
0
 62
     7
100
AcDbLine
 10
101.2500000000001
 20
100.534713853808
 30
0.0
 11
108.7500000000001
 21
100.534713853808
 31
0.0
  0
LINE
  5
6B1
330
1F
100
AcDbEntity
  8
0
 62
     7
100
AcDbLine
 10
101.2500000000001
 20
103.5347138538081
 30
0.0
 11
93.75000000000009
 21
103.5347138538081
 31
0.0
  0
LINE
  5
6B2
330
1F
100
AcDbEntity
  8
0
 62
     7
100
AcDbLine
 10
86.25000000000009
 20
103.5347138538081
 30
0.0
 11
78.75000000000009
 21
103.5347138538081
 31
0.0
  0
LINE
  5
6B3
330
1F
100
AcDbEntity
  8
0
 62
     7
100
AcDbLine
 10
71.25000000000009
 20
103.5347138538081
 30
0.0
 11
63.75000000000009
 21
103.5347138538081
 31
0.0
  0
LINE
  5
6B4
330
1F
100
AcDbEntity
  8
0
 62
     7
100
AcDbLine
 10
56.25000000000009
 20
103.5347138538081
 30
0.0
 11
48.75000000000009
 21
103.5347138538081
 31
0.0
  0
LINE
  5
6B5
330
1F
100
AcDbEntity
  8
0
 62
     7
100
AcDbLine
 10
48.75000000000009
 20
100.5347138538081
 30
0.0
 11
48.75000000000009
 21
103.5347138538081
 31
0.0
  0
LINE
  5
6B6
330
1F
100
AcDbEntity
  8
0
 62
     7
100
AcDbLine
 10
41.25000000000009
 20
100.5347138538081
 30
0.0
 11
41.25000000000009
 21
103.5347138538081
 31
0.0
  0
LINE
  5
6B7
330
1F
100
AcDbEntity
  8
0
 62
     7
100
AcDbLine
 10
33.75000000000009
 20
100.5347138538081
 30
0.0
 11
33.75000000000009
 21
103.5347138538081
 31
0.0
  0
LINE
  5
6B8
330
1F
100
AcDbEntity
  8
0
 62
     3
100
AcDbLine
 10
27.00000000000011
 20
111.784713853808
 30
0.0
 11
30.00000000000011
 21
111.784713853808
 31
0.0
  0
LINE
  5
6B9
330
1F
100
AcDbEntity
  8
0
 62
     3
100
AcDbLine
 10
27.00000000000011
 20
119.284713853808
 30
0.0
 11
30.00000000000014
 21
119.284713853808
 31
0.0
  0
LINE
  5
6BA
330
1F
100
AcDbEntity
  8
0
 62
     7
100
AcDbLine
 10
41.25000000000009
 20
100.5347138538081
 30
0.0
 11
48.75000000000009
 21
100.5347138538081
 31
0.0
  0
LINE
  5
6BB
330
1F
100
AcDbEntity
  8
0
 62
     7
100
AcDbLine
 10
41.25000000000009
 20
103.5347138538081
 30
0.0
 11
33.75000000000009
 21
103.5347138538081
 31
0.0
  0
LINE
  5
6BD
330
1F
100
AcDbEntity
  8
0
 62
     3
100
AcDbLine
 10
27.00000000000006
 20
100.534713853808
 30
0.0
 11
18.75000000000006
 21
100.534713853808
 31
0.0
  0
LINE
  5
6BE
330
1F
100
AcDbEntity
  8
0
 62
     3
100
AcDbLine
 10
18.75000000000006
 20
103.534713853808
 30
0.0
 11
11.25000000000006
 21
103.5347138538081
 31
0.0
  0
LINE
  5
6BF
330
1F
100
AcDbEntity
  8
0
 62
     3
100
AcDbLine
 10
11.25000000000006
 20
100.5347138538081
 30
0.0
 11
3.000000000000057
 21
100.534713853808
 31
0.0
  0
LINE
  5
6C0
330
1F
100
AcDbEntity
  8
0
 62
     3
100
AcDbLine
 10
146.2500000000001
 20
130.5347138538081
 30
0.0
 11
146.2500000000001
 21
127.5347138538081
 31
0.0
  0
LINE
  5
6C1
330
1F
100
AcDbEntity
  8
0
 62
     3
100
AcDbLine
 10
153.7500000000001
 20
130.5347138538081
 30
0.0
 11
153.7500000000001
 21
127.534713853808
 31
0.0
  0
LINE
  5
6C2
330
1F
100
AcDbEntity
  8
0
 62
     3
100
AcDbLine
 10
161.2500000000001
 20
130.5347138538081
 30
0.0
 11
161.2500000000001
 21
127.534713853808
 31
0.0
  0
LINE
  5
6C3
330
1F
100
AcDbEntity
  8
0
 62
     3
100
AcDbLine
 10
168.7500000000001
 20
130.534713853808
 30
0.0
 11
168.7500000000001
 21
127.534713853808
 31
0.0
  0
LINE
  5
6C4
330
1F
100
AcDbEntity
  8
0
 62
     3
100
AcDbLine
 10
168.7500000000001
 20
130.534713853808
 30
0.0
 11
161.2500000000001
 21
130.5347138538081
 31
0.0
  0
LINE
  5
6C5
330
1F
100
AcDbEntity
  8
0
 62
     3
100
AcDbLine
 10
153.7500000000001
 20
130.5347138538081
 30
0.0
 11
146.2500000000001
 21
130.5347138538081
 31
0.0
  0
LINE
  5
6C6
330
1F
100
AcDbEntity
  8
0
 62
     3
100
AcDbLine
 10
138.7500000000001
 20
127.5347138538081
 30
0.0
 11
146.2500000000001
 21
127.5347138538081
 31
0.0
  0
LINE
  5
6C7
330
1F
100
AcDbEntity
  8
0
 62
     3
100
AcDbLine
 10
153.7500000000001
 20
127.534713853808
 30
0.0
 11
161.2500000000001
 21
127.534713853808
 31
0.0
  0
LINE
  5
6C8
330
1F
100
AcDbEntity
  8
0
 62
     3
100
AcDbLine
 10
168.7500000000001
 20
127.534713853808
 30
0.0
 11
176.2500000000001
 21
127.534713853808
 31
0.0
  0
LINE
  5
6C9
330
1F
100
AcDbEntity
  8
0
 62
     3
100
AcDbLine
 10
258.0000000000001
 20
130.5347138538079
 30
0.0
 11
251.2500000000001
 21
130.5347138538079
 31
0.0
  0
LINE
  5
6CC
330
1F
100
AcDbEntity
  8
0
 62
     3
100
AcDbLine
 10
176.2500000000001
 20
130.534713853808
 30
0.0
 11
176.2500000000001
 21
127.534713853808
 31
0.0
  0
LINE
  5
6CD
330
1F
100
AcDbEntity
  8
0
 62
     3
100
AcDbLine
 10
183.7500000000001
 20
130.534713853808
 30
0.0
 11
183.7500000000001
 21
127.534713853808
 31
0.0
  0
LINE
  5
6CE
330
1F
100
AcDbEntity
  8
0
 62
     3
100
AcDbLine
 10
191.2500000000001
 20
130.534713853808
 30
0.0
 11
191.2500000000001
 21
127.534713853808
 31
0.0
  0
LINE
  5
6CF
330
1F
100
AcDbEntity
  8
0
 62
     3
100
AcDbLine
 10
198.7500000000001
 20
130.534713853808
 30
0.0
 11
198.7500000000001
 21
127.534713853808
 31
0.0
  0
LINE
  5
6D0
330
1F
100
AcDbEntity
  8
0
 62
     3
100
AcDbLine
 10
206.2500000000001
 20
130.534713853808
 30
0.0
 11
206.2500000000001
 21
127.534713853808
 31
0.0
  0
LINE
  5
6D1
330
1F
100
AcDbEntity
  8
0
 62
     3
100
AcDbLine
 10
213.7500000000001
 20
130.534713853808
 30
0.0
 11
213.7500000000001
 21
127.5347138538079
 31
0.0
  0
LINE
  5
6D2
330
1F
100
AcDbEntity
  8
0
 62
     3
100
AcDbLine
 10
221.2500000000001
 20
130.534713853808
 30
0.0
 11
221.2500000000001
 21
127.5347138538079
 31
0.0
  0
LINE
  5
6D3
330
1F
100
AcDbEntity
  8
0
 62
     3
100
AcDbLine
 10
228.7500000000001
 20
130.5347138538079
 30
0.0
 11
228.7500000000001
 21
127.5347138538079
 31
0.0
  0
LINE
  5
6D4
330
1F
100
AcDbEntity
  8
0
 62
     3
100
AcDbLine
 10
228.7500000000001
 20
130.5347138538079
 30
0.0
 11
221.2500000000001
 21
130.534713853808
 31
0.0
  0
LINE
  5
6D5
330
1F
100
AcDbEntity
  8
0
 62
     3
100
AcDbLine
 10
213.7500000000001
 20
130.534713853808
 30
0.0
 11
206.2500000000001
 21
130.534713853808
 31
0.0
  0
LINE
  5
6D6
330
1F
100
AcDbEntity
  8
0
 62
     3
100
AcDbLine
 10
198.7500000000001
 20
130.534713853808
 30
0.0
 11
191.2500000000001
 21
130.534713853808
 31
0.0
  0
LINE
  5
6D7
330
1F
100
AcDbEntity
  8
0
 62
     3
100
AcDbLine
 10
183.7500000000001
 20
130.534713853808
 30
0.0
 11
176.2500000000001
 21
130.534713853808
 31
0.0
  0
LINE
  5
6D8
330
1F
100
AcDbEntity
  8
0
 62
     3
100
AcDbLine
 10
183.7500000000001
 20
127.534713853808
 30
0.0
 11
191.2500000000001
 21
127.534713853808
 31
0.0
  0
LINE
  5
6D9
330
1F
100
AcDbEntity
  8
0
 62
     3
100
AcDbLine
 10
198.7500000000001
 20
127.534713853808
 30
0.0
 11
206.2500000000001
 21
127.534713853808
 31
0.0
  0
LINE
  5
6DA
330
1F
100
AcDbEntity
  8
0
 62
     3
100
AcDbLine
 10
213.7500000000001
 20
127.5347138538079
 30
0.0
 11
221.2500000000001
 21
127.5347138538079
 31
0.0
  0
LINE
  5
6DB
330
1F
100
AcDbEntity
  8
0
 62
     3
100
AcDbLine
 10
228.7500000000001
 20
127.5347138538079
 30
0.0
 11
236.2500000000001
 21
127.5347138538079
 31
0.0
  0
LINE
  5
6DC
330
1F
100
AcDbEntity
  8
0
 62
     3
100
AcDbLine
 10
236.2500000000001
 20
130.5347138538079
 30
0.0
 11
236.2500000000001
 21
127.5347138538079
 31
0.0
  0
LINE
  5
6DD
330
1F
100
AcDbEntity
  8
0
 62
     3
100
AcDbLine
 10
243.7500000000001
 20
130.5347138538079
 30
0.0
 11
243.7500000000001
 21
127.5347138538079
 31
0.0
  0
LINE
  5
6DE
330
1F
100
AcDbEntity
  8
0
 62
     3
100
AcDbLine
 10
251.2500000000001
 20
130.5347138538079
 30
0.0
 11
251.2500000000001
 21
127.5347138538079
 31
0.0
  0
LINE
  5
6DF
330
1F
100
AcDbEntity
  8
0
 62
     3
100
AcDbLine
 10
243.7500000000001
 20
130.5347138538079
 30
0.0
 11
236.2500000000001
 21
130.5347138538079
 31
0.0
  0
LINE
  5
6E0
330
1F
100
AcDbEntity
  8
0
 62
     3
100
AcDbLine
 10
243.7500000000001
 20
127.5347138538079
 30
0.0
 11
251.2500000000001
 21
127.5347138538079
 31
0.0
  0
LINE
  5
6E5
330
1F
100
AcDbEntity
  8
0
 62
     3
100
AcDbLine
 10
138.7500000000001
 20
130.5347138538081
 30
0.0
 11
138.7500000000001
 21
127.5347138538081
 31
0.0
  0
LINE
  5
6E6
330
1F
100
AcDbEntity
  8
0
 62
     3
100
AcDbLine
 10
131.2500000000001
 20
130.5347138538081
 30
0.0
 11
131.2500000000001
 21
127.534713853808
 31
0.0
  0
LINE
  5
6E7
330
1F
100
AcDbEntity
  8
0
 62
     3
100
AcDbLine
 10
123.7500000000001
 20
130.5347138538081
 30
0.0
 11
123.7500000000001
 21
127.534713853808
 31
0.0
  0
LINE
  5
6E8
330
1F
100
AcDbEntity
  8
0
 62
     3
100
AcDbLine
 10
116.2500000000001
 20
130.534713853808
 30
0.0
 11
116.2500000000001
 21
127.534713853808
 31
0.0
  0
LINE
  5
6E9
330
1F
100
AcDbEntity
  8
0
 62
     3
100
AcDbLine
 10
116.2500000000001
 20
130.534713853808
 30
0.0
 11
123.7500000000001
 21
130.5347138538081
 31
0.0
  0
LINE
  5
6EA
330
1F
100
AcDbEntity
  8
0
 62
     3
100
AcDbLine
 10
131.2500000000001
 20
130.5347138538081
 30
0.0
 11
138.7500000000001
 21
130.5347138538081
 31
0.0
  0
LINE
  5
6EB
330
1F
100
AcDbEntity
  8
0
 62
     3
100
AcDbLine
 10
131.2500000000001
 20
127.534713853808
 30
0.0
 11
123.7500000000001
 21
127.534713853808
 31
0.0
  0
LINE
  5
6EC
330
1F
100
AcDbEntity
  8
0
 62
     3
100
AcDbLine
 10
116.2500000000001
 20
127.534713853808
 30
0.0
 11
108.7500000000001
 21
127.534713853808
 31
0.0
  0
LINE
  5
6ED
330
1F
100
AcDbEntity
  8
0
 62
     3
100
AcDbLine
 10
27.00000000000009
 20
130.534713853808
 30
0.0
 11
33.75000000000009
 21
130.534713853808
 31
0.0
  0
LINE
  5
6F0
330
1F
100
AcDbEntity
  8
0
 62
     3
100
AcDbLine
 10
108.7500000000001
 20
130.534713853808
 30
0.0
 11
108.7500000000001
 21
127.534713853808
 31
0.0
  0
LINE
  5
6F1
330
1F
100
AcDbEntity
  8
0
 62
     3
100
AcDbLine
 10
101.2500000000001
 20
130.5347138538081
 30
0.0
 11
101.2500000000001
 21
127.5347138538081
 31
0.0
  0
LINE
  5
6F2
330
1F
100
AcDbEntity
  8
0
 62
     3
100
AcDbLine
 10
93.75000000000009
 20
130.5347138538081
 30
0.0
 11
93.75000000000009
 21
127.5347138538081
 31
0.0
  0
LINE
  5
6F3
330
1F
100
AcDbEntity
  8
0
 62
     3
100
AcDbLine
 10
86.25000000000009
 20
130.5347138538081
 30
0.0
 11
86.25000000000009
 21
127.5347138538081
 31
0.0
  0
LINE
  5
6F4
330
1F
100
AcDbEntity
  8
0
 62
     3
100
AcDbLine
 10
78.75000000000009
 20
130.534713853808
 30
0.0
 11
78.75000000000009
 21
127.534713853808
 31
0.0
  0
LINE
  5
6F5
330
1F
100
AcDbEntity
  8
0
 62
     3
100
AcDbLine
 10
71.25000000000009
 20
130.534713853808
 30
0.0
 11
71.25000000000009
 21
127.534713853808
 31
0.0
  0
LINE
  5
6F6
330
1F
100
AcDbEntity
  8
0
 62
     3
100
AcDbLine
 10
63.75000000000009
 20
130.5347138538081
 30
0.0
 11
63.75000000000009
 21
127.534713853808
 31
0.0
  0
LINE
  5
6F7
330
1F
100
AcDbEntity
  8
0
 62
     3
100
AcDbLine
 10
56.25000000000009
 20
130.534713853808
 30
0.0
 11
56.25000000000009
 21
127.534713853808
 31
0.0
  0
LINE
  5
6F8
330
1F
100
AcDbEntity
  8
0
 62
     3
100
AcDbLine
 10
56.25000000000009
 20
130.534713853808
 30
0.0
 11
63.75000000000009
 21
130.5347138538081
 31
0.0
  0
LINE
  5
6F9
330
1F
100
AcDbEntity
  8
0
 62
     3
100
AcDbLine
 10
71.25000000000009
 20
130.534713853808
 30
0.0
 11
78.75000000000009
 21
130.534713853808
 31
0.0
  0
LINE
  5
6FA
330
1F
100
AcDbEntity
  8
0
 62
     3
100
AcDbLine
 10
86.25000000000009
 20
130.5347138538081
 30
0.0
 11
93.75000000000009
 21
130.5347138538081
 31
0.0
  0
LINE
  5
6FB
330
1F
100
AcDbEntity
  8
0
 62
     3
100
AcDbLine
 10
101.2500000000001
 20
130.5347138538081
 30
0.0
 11
108.7500000000001
 21
130.534713853808
 31
0.0
  0
LINE
  5
6FC
330
1F
100
AcDbEntity
  8
0
 62
     3
100
AcDbLine
 10
101.2500000000001
 20
127.5347138538081
 30
0.0
 11
93.75000000000009
 21
127.5347138538081
 31
0.0
  0
LINE
  5
6FD
330
1F
100
AcDbEntity
  8
0
 62
     3
100
AcDbLine
 10
86.25000000000009
 20
127.5347138538081
 30
0.0
 11
78.75000000000009
 21
127.534713853808
 31
0.0
  0
LINE
  5
6FE
330
1F
100
AcDbEntity
  8
0
 62
     3
100
AcDbLine
 10
71.25000000000009
 20
127.534713853808
 30
0.0
 11
63.75000000000009
 21
127.534713853808
 31
0.0
  0
LINE
  5
6FF
330
1F
100
AcDbEntity
  8
0
 62
     3
100
AcDbLine
 10
56.25000000000009
 20
127.534713853808
 30
0.0
 11
48.75000000000009
 21
127.534713853808
 31
0.0
  0
LINE
  5
700
330
1F
100
AcDbEntity
  8
0
 62
     3
100
AcDbLine
 10
48.75000000000009
 20
130.534713853808
 30
0.0
 11
48.75000000000009
 21
127.534713853808
 31
0.0
  0
LINE
  5
701
330
1F
100
AcDbEntity
  8
0
 62
     3
100
AcDbLine
 10
41.25000000000009
 20
130.534713853808
 30
0.0
 11
41.25000000000009
 21
127.534713853808
 31
0.0
  0
LINE
  5
702
330
1F
100
AcDbEntity
  8
0
 62
     3
100
AcDbLine
 10
33.75000000000009
 20
130.534713853808
 30
0.0
 11
33.75000000000009
 21
127.534713853808
 31
0.0
  0
LINE
  5
703
330
1F
100
AcDbEntity
  8
0
 62
     3
100
AcDbLine
 10
41.25000000000009
 20
130.534713853808
 30
0.0
 11
48.75000000000009
 21
130.534713853808
 31
0.0
  0
LINE
  5
704
330
1F
100
AcDbEntity
  8
0
 62
     3
100
AcDbLine
 10
41.25000000000009
 20
127.534713853808
 30
0.0
 11
33.75000000000009
 21
127.534713853808
 31
0.0
  0
LINE
  5
709
330
1F
100
AcDbEntity
  8
0
 62
     3
100
AcDbLine
 10
3.0
 20
10.51735692690401
 30
0.0
 11
3.000000000000029
 21
2.999999999999968
 31
0.0
  0
LINE
  5
70A
330
1F
100
AcDbEntity
  8
0
 62
     3
100
AcDbLine
 10
0.0000000000000573
 20
93.017356926904
 30
0.0
 11
0.0000000000000289
 21
85.517356926904
 31
0.0
  0
LINE
  5
70B
330
1F
100
AcDbEntity
  8
0
 62
     3
100
AcDbLine
 10
0.0000000000000004
 20
10.51735692690401
 30
0.0
 11
3.0
 21
10.51735692690401
 31
0.0
  0
LINE
  5
70C
330
1F
100
AcDbEntity
  8
0
 62
     3
100
AcDbLine
 10
0.0000000000000289
 20
18.01735692690401
 30
0.0
 11
3.000000000000029
 21
18.01735692690401
 31
0.0
  0
LINE
  5
70D
330
1F
100
AcDbEntity
  8
0
 62
     3
100
AcDbLine
 10
0.0000000000000289
 20
25.51735692690401
 30
0.0
 11
3.000000000000029
 21
25.51735692690401
 31
0.0
  0
LINE
  5
70E
330
1F
100
AcDbEntity
  8
0
 62
     3
100
AcDbLine
 10
0.0000000000000289
 20
33.01735692690401
 30
0.0
 11
3.000000000000029
 21
33.01735692690401
 31
0.0
  0
LINE
  5
70F
330
1F
100
AcDbEntity
  8
0
 62
     3
100
AcDbLine
 10
0.0000000000000289
 20
40.51735692690401
 30
0.0
 11
3.000000000000029
 21
40.51735692690401
 31
0.0
  0
LINE
  5
710
330
1F
100
AcDbEntity
  8
0
 62
     3
100
AcDbLine
 10
0.0000000000000289
 20
48.01735692690401
 30
0.0
 11
3.000000000000029
 21
48.01735692690401
 31
0.0
  0
LINE
  5
711
330
1F
100
AcDbEntity
  8
0
 62
     3
100
AcDbLine
 10
0.0000000000000289
 20
55.51735692690401
 30
0.0
 11
3.000000000000029
 21
55.51735692690401
 31
0.0
  0
LINE
  5
712
330
1F
100
AcDbEntity
  8
0
 62
     3
100
AcDbLine
 10
0.0000000000000289
 20
63.01735692690401
 30
0.0
 11
3.000000000000029
 21
63.01735692690401
 31
0.0
  0
LINE
  5
713
330
1F
100
AcDbEntity
  8
0
 62
     3
100
AcDbLine
 10
0.0000000000000289
 20
70.517356926904
 30
0.0
 11
3.000000000000029
 21
70.517356926904
 31
0.0
  0
LINE
  5
714
330
1F
100
AcDbEntity
  8
0
 62
     3
100
AcDbLine
 10
0.0000000000000289
 20
78.017356926904
 30
0.0
 11
3.000000000000029
 21
78.017356926904
 31
0.0
  0
LINE
  5
715
330
1F
100
AcDbEntity
  8
0
 62
     3
100
AcDbLine
 10
0.0000000000000289
 20
85.517356926904
 30
0.0
 11
3.000000000000029
 21
85.517356926904
 31
0.0
  0
LINE
  5
716
330
1F
100
AcDbEntity
  8
0
 62
     3
100
AcDbLine
 10
0.0000000000000573
 20
93.017356926904
 30
0.0
 11
3.000000000000057
 21
93.017356926904
 31
0.0
  0
LINE
  5
717
330
1F
100
AcDbEntity
  8
0
 62
     3
100
AcDbLine
 10
0.0000000000000289
 20
78.017356926904
 30
0.0
 11
0.0000000000000289
 21
70.517356926904
 31
0.0
  0
LINE
  5
718
330
1F
100
AcDbEntity
  8
0
 62
     3
100
AcDbLine
 10
0.0000000000000289
 20
63.01735692690401
 30
0.0
 11
0.0000000000000289
 21
55.51735692690401
 31
0.0
  0
LINE
  5
719
330
1F
100
AcDbEntity
  8
0
 62
     3
100
AcDbLine
 10
0.0000000000000289
 20
48.01735692690401
 30
0.0
 11
0.0000000000000289
 21
40.51735692690401
 31
0.0
  0
LINE
  5
71A
330
1F
100
AcDbEntity
  8
0
 62
     3
100
AcDbLine
 10
0.0000000000000289
 20
33.01735692690401
 30
0.0
 11
0.0000000000000289
 21
25.51735692690401
 31
0.0
  0
LINE
  5
71B
330
1F
100
AcDbEntity
  8
0
 62
     3
100
AcDbLine
 10
0.0000000000000289
 20
18.01735692690401
 30
0.0
 11
0.0000000000000004
 21
10.51735692690401
 31
0.0
  0
LINE
  5
71C
330
1F
100
AcDbEntity
  8
0
 62
     3
100
AcDbLine
 10
3.000000000000029
 20
18.01735692690401
 30
0.0
 11
3.000000000000029
 21
25.51735692690401
 31
0.0
  0
LINE
  5
71D
330
1F
100
AcDbEntity
  8
0
 62
     3
100
AcDbLine
 10
3.000000000000029
 20
33.01735692690401
 30
0.0
 11
3.000000000000029
 21
40.51735692690401
 31
0.0
  0
LINE
  5
71E
330
1F
100
AcDbEntity
  8
0
 62
     3
100
AcDbLine
 10
3.000000000000029
 20
48.01735692690401
 30
0.0
 11
3.000000000000029
 21
55.51735692690401
 31
0.0
  0
LINE
  5
71F
330
1F
100
AcDbEntity
  8
0
 62
     3
100
AcDbLine
 10
3.000000000000029
 20
63.01735692690401
 30
0.0
 11
3.000000000000029
 21
70.517356926904
 31
0.0
  0
LINE
  5
720
330
1F
100
AcDbEntity
  8
0
 62
     3
100
AcDbLine
 10
3.000000000000029
 20
78.017356926904
 30
0.0
 11
3.000000000000029
 21
85.517356926904
 31
0.0
  0
LINE
  5
721
330
1F
100
AcDbEntity
  8
0
 62
     3
100
AcDbLine
 10
3.000000000000057
 20
93.017356926904
 30
0.0
 11
3.000000000000057
 21
100.534713853808
 31
0.0
  0
LINE
  5
722
330
1F
100
AcDbEntity
  8
0
 62
     3
100
AcDbLine
 10
146.2500000000001
 20
2.999999999999982
 30
0.0
 11
146.2500000000001
 21
-0.0000000000000178
 31
0.0
  0
LINE
  5
723
330
1F
100
AcDbEntity
  8
0
 62
     3
100
AcDbLine
 10
153.7500000000001
 20
2.999999999999982
 30
0.0
 11
153.7500000000001
 21
-0.0000000000000462
 31
0.0
  0
LINE
  5
724
330
1F
100
AcDbEntity
  8
0
 62
     3
100
AcDbLine
 10
161.2500000000001
 20
2.999999999999982
 30
0.0
 11
161.2500000000001
 21
-0.0000000000000462
 31
0.0
  0
LINE
  5
725
330
1F
100
AcDbEntity
  8
0
 62
     3
100
AcDbLine
 10
168.7500000000001
 20
2.999999999999954
 30
0.0
 11
168.7500000000001
 21
-0.0000000000000462
 31
0.0
  0
LINE
  5
726
330
1F
100
AcDbEntity
  8
0
 62
     3
100
AcDbLine
 10
168.7500000000001
 20
2.999999999999954
 30
0.0
 11
161.2500000000001
 21
2.999999999999982
 31
0.0
  0
LINE
  5
727
330
1F
100
AcDbEntity
  8
0
 62
     3
100
AcDbLine
 10
153.7500000000001
 20
2.999999999999982
 30
0.0
 11
146.2500000000001
 21
2.999999999999982
 31
0.0
  0
LINE
  5
728
330
1F
100
AcDbEntity
  8
0
 62
     3
100
AcDbLine
 10
138.7500000000001
 20
0.0000000000000107
 30
0.0
 11
146.2500000000001
 21
-0.0000000000000178
 31
0.0
  0
LINE
  5
729
330
1F
100
AcDbEntity
  8
0
 62
     3
100
AcDbLine
 10
153.7500000000001
 20
-0.0000000000000462
 30
0.0
 11
161.2500000000001
 21
-0.0000000000000462
 31
0.0
  0
LINE
  5
72A
330
1F
100
AcDbEntity
  8
0
 62
     3
100
AcDbLine
 10
168.7500000000001
 20
-0.0000000000000462
 30
0.0
 11
176.2500000000001
 21
-0.0000000000000462
 31
0.0
  0
LINE
  5
72B
330
1F
100
AcDbEntity
  8
0
 62
     3
100
AcDbLine
 10
258.0000000000001
 20
2.999999999999883
 30
0.0
 11
251.2500000000001
 21
2.999999999999883
 31
0.0
  0
LINE
  5
72C
330
1F
100
AcDbEntity
  8
0
 62
     3
100
AcDbLine
 10
176.2500000000001
 20
2.999999999999954
 30
0.0
 11
176.2500000000001
 21
-0.0000000000000462
 31
0.0
  0
LINE
  5
72D
330
1F
100
AcDbEntity
  8
0
 62
     3
100
AcDbLine
 10
183.7500000000001
 20
2.99999999999994
 30
0.0
 11
183.7500000000001
 21
-0.0000000000000604
 31
0.0
  0
LINE
  5
72E
330
1F
100
AcDbEntity
  8
0
 62
     3
100
AcDbLine
 10
191.2500000000001
 20
2.99999999999994
 30
0.0
 11
191.2500000000001
 21
-0.0000000000000604
 31
0.0
  0
LINE
  5
72F
330
1F
100
AcDbEntity
  8
0
 62
     3
100
AcDbLine
 10
198.7500000000001
 20
2.99999999999994
 30
0.0
 11
198.7500000000001
 21
-0.0000000000000604
 31
0.0
  0
LINE
  5
730
330
1F
100
AcDbEntity
  8
0
 62
     3
100
AcDbLine
 10
206.2500000000001
 20
2.999999999999925
 30
0.0
 11
206.2500000000001
 21
-0.0000000000000746
 31
0.0
  0
LINE
  5
731
330
1F
100
AcDbEntity
  8
0
 62
     3
100
AcDbLine
 10
213.7500000000001
 20
2.999999999999925
 30
0.0
 11
213.7500000000001
 21
-0.000000000000103
 31
0.0
  0
LINE
  5
732
330
1F
100
AcDbEntity
  8
0
 62
     3
100
AcDbLine
 10
221.2500000000001
 20
2.999999999999911
 30
0.0
 11
221.2500000000001
 21
-0.0000000000001172
 31
0.0
  0
LINE
  5
733
330
1F
100
AcDbEntity
  8
0
 62
     3
100
AcDbLine
 10
228.7500000000001
 20
2.999999999999883
 30
0.0
 11
228.7500000000001
 21
-0.0000000000001172
 31
0.0
  0
LINE
  5
734
330
1F
100
AcDbEntity
  8
0
 62
     3
100
AcDbLine
 10
228.7500000000001
 20
2.999999999999883
 30
0.0
 11
221.2500000000001
 21
2.999999999999911
 31
0.0
  0
LINE
  5
735
330
1F
100
AcDbEntity
  8
0
 62
     3
100
AcDbLine
 10
213.7500000000001
 20
2.999999999999925
 30
0.0
 11
206.2500000000001
 21
2.999999999999925
 31
0.0
  0
LINE
  5
736
330
1F
100
AcDbEntity
  8
0
 62
     3
100
AcDbLine
 10
198.7500000000001
 20
2.99999999999994
 30
0.0
 11
191.2500000000001
 21
2.99999999999994
 31
0.0
  0
LINE
  5
737
330
1F
100
AcDbEntity
  8
0
 62
     3
100
AcDbLine
 10
183.7500000000001
 20
2.99999999999994
 30
0.0
 11
176.2500000000001
 21
2.999999999999954
 31
0.0
  0
LINE
  5
738
330
1F
100
AcDbEntity
  8
0
 62
     3
100
AcDbLine
 10
183.7500000000001
 20
-0.0000000000000604
 30
0.0
 11
191.2500000000001
 21
-0.0000000000000604
 31
0.0
  0
LINE
  5
739
330
1F
100
AcDbEntity
  8
0
 62
     3
100
AcDbLine
 10
198.7500000000001
 20
-0.0000000000000604
 30
0.0
 11
206.2500000000001
 21
-0.0000000000000746
 31
0.0
  0
LINE
  5
73A
330
1F
100
AcDbEntity
  8
0
 62
     3
100
AcDbLine
 10
213.7500000000001
 20
-0.000000000000103
 30
0.0
 11
221.2500000000001
 21
-0.0000000000001172
 31
0.0
  0
LINE
  5
73B
330
1F
100
AcDbEntity
  8
0
 62
     3
100
AcDbLine
 10
228.7500000000001
 20
-0.0000000000001172
 30
0.0
 11
236.2500000000001
 21
-0.0000000000001172
 31
0.0
  0
LINE
  5
73C
330
1F
100
AcDbEntity
  8
0
 62
     3
100
AcDbLine
 10
236.2500000000001
 20
2.999999999999883
 30
0.0
 11
236.2500000000001
 21
-0.0000000000001172
 31
0.0
  0
LINE
  5
73D
330
1F
100
AcDbEntity
  8
0
 62
     3
100
AcDbLine
 10
243.7500000000001
 20
2.999999999999883
 30
0.0
 11
243.7500000000001
 21
-0.0000000000001172
 31
0.0
  0
LINE
  5
73E
330
1F
100
AcDbEntity
  8
0
 62
     3
100
AcDbLine
 10
251.2500000000001
 20
2.999999999999883
 30
0.0
 11
251.2500000000001
 21
-0.0000000000001172
 31
0.0
  0
LINE
  5
73F
330
1F
100
AcDbEntity
  8
0
 62
     3
100
AcDbLine
 10
243.7500000000001
 20
2.999999999999883
 30
0.0
 11
236.2500000000001
 21
2.999999999999883
 31
0.0
  0
LINE
  5
740
330
1F
100
AcDbEntity
  8
0
 62
     3
100
AcDbLine
 10
243.7500000000001
 20
-0.0000000000001172
 30
0.0
 11
251.2500000000001
 21
-0.0000000000001172
 31
0.0
  0
LINE
  5
742
330
1F
100
AcDbEntity
  8
0
 62
     3
100
AcDbLine
 10
138.7500000000001
 20
2.999999999999996
 30
0.0
 11
138.7500000000001
 21
-0.0000000000000036
 31
0.0
  0
LINE
  5
743
330
1F
100
AcDbEntity
  8
0
 62
     3
100
AcDbLine
 10
131.2500000000001
 20
2.999999999999996
 30
0.0
 11
131.2500000000001
 21
-0.000000000000032
 31
0.0
  0
LINE
  5
744
330
1F
100
AcDbEntity
  8
0
 62
     3
100
AcDbLine
 10
123.7500000000001
 20
2.999999999999996
 30
0.0
 11
123.7500000000001
 21
-0.000000000000032
 31
0.0
  0
LINE
  5
745
330
1F
100
AcDbEntity
  8
0
 62
     3
100
AcDbLine
 10
116.2500000000001
 20
2.999999999999968
 30
0.0
 11
116.2500000000001
 21
-0.000000000000032
 31
0.0
  0
LINE
  5
746
330
1F
100
AcDbEntity
  8
0
 62
     3
100
AcDbLine
 10
116.2500000000001
 20
2.999999999999968
 30
0.0
 11
123.7500000000001
 21
2.999999999999996
 31
0.0
  0
LINE
  5
747
330
1F
100
AcDbEntity
  8
0
 62
     3
100
AcDbLine
 10
131.2500000000001
 20
2.999999999999996
 30
0.0
 11
138.7500000000001
 21
2.999999999999996
 31
0.0
  0
LINE
  5
748
330
1F
100
AcDbEntity
  8
0
 62
     3
100
AcDbLine
 10
131.2500000000001
 20
-0.000000000000032
 30
0.0
 11
123.7500000000001
 21
-0.000000000000032
 31
0.0
  0
LINE
  5
749
330
1F
100
AcDbEntity
  8
0
 62
     3
100
AcDbLine
 10
116.2500000000001
 20
-0.000000000000032
 30
0.0
 11
108.7500000000001
 21
-0.000000000000032
 31
0.0
  0
LINE
  5
74A
330
1F
100
AcDbEntity
  8
0
 62
     3
100
AcDbLine
 10
27.00000000000009
 20
2.999999999999954
 30
0.0
 11
31.75000000000009
 21
2.999999999999982
 31
0.0
  0
LINE
  5
74B
330
1F
100
AcDbEntity
  8
0
 62
     3
100
AcDbLine
 10
11.25000000000006
 20
-0.0000000000000036
 30
0.0
 11
11.25000000000006
 21
2.999999999999996
 31
0.0
  0
LINE
  5
74C
330
1F
100
AcDbEntity
  8
0
 62
     3
100
AcDbLine
 10
18.75000000000006
 20
0.0000000000000249
 30
0.0
 11
18.75000000000006
 21
3.000000000000025
 31
0.0
  0
LINE
  5
74D
330
1F
100
AcDbEntity
  8
0
 62
     3
100
AcDbLine
 10
108.7500000000001
 20
2.999999999999968
 30
0.0
 11
108.7500000000001
 21
-0.000000000000032
 31
0.0
  0
LINE
  5
74E
330
1F
100
AcDbEntity
  8
0
 62
     3
100
AcDbLine
 10
101.2500000000001
 20
2.999999999999982
 30
0.0
 11
101.2500000000001
 21
-0.0000000000000178
 31
0.0
  0
LINE
  5
74F
330
1F
100
AcDbEntity
  8
0
 62
     3
100
AcDbLine
 10
93.75000000000009
 20
2.999999999999982
 30
0.0
 11
93.75000000000009
 21
-0.0000000000000178
 31
0.0
  0
LINE
  5
750
330
1F
100
AcDbEntity
  8
0
 62
     3
100
AcDbLine
 10
86.25000000000009
 20
2.999999999999982
 30
0.0
 11
86.25000000000009
 21
-0.0000000000000178
 31
0.0
  0
LINE
  5
751
330
1F
100
AcDbEntity
  8
0
 62
     3
100
AcDbLine
 10
78.75000000000009
 20
2.999999999999968
 30
0.0
 11
78.75000000000009
 21
-0.000000000000032
 31
0.0
  0
LINE
  5
752
330
1F
100
AcDbEntity
  8
0
 62
     3
100
AcDbLine
 10
71.25000000000009
 20
2.999999999999968
 30
0.0
 11
71.25000000000009
 21
-0.0000000000000604
 31
0.0
  0
LINE
  5
753
330
1F
100
AcDbEntity
  8
0
 62
     3
100
AcDbLine
 10
63.75000000000009
 20
2.999999999999968
 30
0.0
 11
63.75000000000009
 21
-0.0000000000000604
 31
0.0
  0
LINE
  5
754
330
1F
100
AcDbEntity
  8
0
 62
     3
100
AcDbLine
 10
56.25000000000009
 20
2.999999999999954
 30
0.0
 11
56.25000000000009
 21
-0.0000000000000462
 31
0.0
  0
LINE
  5
755
330
1F
100
AcDbEntity
  8
0
 62
     3
100
AcDbLine
 10
56.25000000000009
 20
2.999999999999954
 30
0.0
 11
63.75000000000009
 21
2.999999999999968
 31
0.0
  0
LINE
  5
756
330
1F
100
AcDbEntity
  8
0
 62
     3
100
AcDbLine
 10
71.25000000000009
 20
2.999999999999968
 30
0.0
 11
78.75000000000009
 21
2.999999999999968
 31
0.0
  0
LINE
  5
757
330
1F
100
AcDbEntity
  8
0
 62
     3
100
AcDbLine
 10
86.25000000000009
 20
2.999999999999982
 30
0.0
 11
93.75000000000009
 21
2.999999999999982
 31
0.0
  0
LINE
  5
758
330
1F
100
AcDbEntity
  8
0
 62
     3
100
AcDbLine
 10
101.2500000000001
 20
2.999999999999982
 30
0.0
 11
108.7500000000001
 21
2.999999999999968
 31
0.0
  0
LINE
  5
759
330
1F
100
AcDbEntity
  8
0
 62
     3
100
AcDbLine
 10
101.2500000000001
 20
-0.0000000000000178
 30
0.0
 11
93.75000000000009
 21
-0.0000000000000178
 31
0.0
  0
LINE
  5
75A
330
1F
100
AcDbEntity
  8
0
 62
     3
100
AcDbLine
 10
86.25000000000009
 20
-0.0000000000000178
 30
0.0
 11
78.75000000000009
 21
-0.000000000000032
 31
0.0
  0
LINE
  5
75B
330
1F
100
AcDbEntity
  8
0
 62
     3
100
AcDbLine
 10
71.25000000000009
 20
-0.0000000000000604
 30
0.0
 11
63.75000000000009
 21
-0.0000000000000604
 31
0.0
  0
LINE
  5
75C
330
1F
100
AcDbEntity
  8
0
 62
     3
100
AcDbLine
 10
56.25000000000009
 20
-0.0000000000000462
 30
0.0
 11
48.75000000000009
 21
-0.0000000000000462
 31
0.0
  0
LINE
  5
75D
330
1F
100
AcDbEntity
  8
0
 62
     3
100
AcDbLine
 10
48.75000000000009
 20
2.999999999999954
 30
0.0
 11
48.75000000000009
 21
-0.0000000000000462
 31
0.0
  0
LINE
  5
75E
330
1F
100
AcDbEntity
  8
0
 62
     3
100
AcDbLine
 10
41.25000000000009
 20
2.999999999999954
 30
0.0
 11
41.25000000000009
 21
-0.0000000000000462
 31
0.0
  0
LINE
  5
75F
330
1F
100
AcDbEntity
  8
0
 62
     3
100
AcDbLine
 10
33.75000000000009
 20
2.999999999999954
 30
0.0
 11
33.75000000000009
 21
-0.0000000000000462
 31
0.0
  0
LINE
  5
760
330
1F
100
AcDbEntity
  8
0
 62
     3
100
AcDbLine
 10
41.25000000000009
 20
2.999999999999954
 30
0.0
 11
48.75000000000009
 21
2.999999999999954
 31
0.0
  0
LINE
  5
761
330
1F
100
AcDbEntity
  8
0
 62
     3
100
AcDbLine
 10
41.25000000000009
 20
-0.0000000000000462
 30
0.0
 11
33.75000000000009
 21
-0.0000000000000462
 31
0.0
  0
LINE
  5
762
330
1F
100
AcDbEntity
  8
0
 62
     3
100
AcDbLine
 10
27.00000000000006
 20
2.999999999999954
 30
0.0
 11
33.75000000000009
 21
2.999999999999954
 31
0.0
  0
LINE
  5
763
330
1F
100
AcDbEntity
  8
0
 62
     3
100
AcDbLine
 10
27.00000000000006
 20
2.999999999999996
 30
0.0
 11
18.75000000000006
 21
3.000000000000025
 31
0.0
  0
LINE
  5
764
330
1F
100
AcDbEntity
  8
0
 62
     3
100
AcDbLine
 10
18.75000000000006
 20
0.0000000000000249
 30
0.0
 11
11.25000000000006
 21
-0.0000000000000036
 31
0.0
  0
LINE
  5
765
330
1F
100
AcDbEntity
  8
0
 62
     3
100
AcDbLine
 10
11.25000000000006
 20
2.999999999999996
 30
0.0
 11
3.000000000000057
 21
3.000000000000025
 31
0.0
  0
TEXT
  5
90D
330
1F
100
AcDbEntity
  8
0
 62
     5
100
AcDbText
 10
58.12789904502052
 20
53.9746930075323
 30
0.0
 40
5.0
  1
MIDI
 72
     1
 11
65.50000000000006
 21
53.9746930075323
 31
0.0
100
AcDbText
  0
TEXT
  5
90E
330
1F
100
AcDbEntity
  8
0
 62
     5
100
AcDbText
 10
48.2233969986358
 20
46.4746930075323
 30
0.0
 40
5.0
  1
Rec. / Stop
 72
     1
 11
65.50000000000006
 21
46.4746930075323
 31
0.0
100
AcDbText
  0
TEXT
  5
90F
330
1F
100
AcDbEntity
  8
0
 62
     5
100
AcDbText
 10
133.5675306957709
 20
53.97469300753228
 30
0.0
 40
5.0
  1
Audio
 72
     1
 11
142.5000000000001
 21
53.97469300753228
 31
0.0
100
AcDbText
  0
TEXT
  5
910
330
1F
100
AcDbEntity
  8
0
 62
     5
100
AcDbText
 10
125.2233969986358
 20
46.47469300753228
 30
0.0
 40
5.0
  1
Rec. / Stop
 72
     1
 11
142.5000000000001
 21
46.47469300753228
 31
0.0
100
AcDbText
  0
TEXT
  5
911
330
1F
100
AcDbEntity
  8
0
 62
     5
100
AcDbText
 10
212.3154843110505
 20
53.97469300753227
 30
0.0
 40
5.0
  1
Both
 72
     1
 11
219.5000000000001
 21
53.97469300753227
 31
0.0
100
AcDbText
  0
TEXT
  5
912
330
1F
100
AcDbEntity
  8
0
 62
     5
100
AcDbText
 10
202.2233969986358
 20
46.47469300753227
 30
0.0
 40
5.0
  1
Rec. / Stop
 72
     1
 11
219.5000000000001
 21
46.47469300753227
 31
0.0
100
AcDbText
  0
TEXT
  5
913
330
1F
100
AcDbEntity
  8
0
 62
     5
100
AcDbText
 10
118.0390387037367
 20
109.8956242980381
 30
0.0
 40
3.0
  1
Sustain
 50
180.0
 72
     1
 11
111.0496116914584
 21
109.8956242980381
 31
0.0
100
AcDbText
  0
LINE
  5
916
330
1F
100
AcDbEntity
  8
0
 62
     5
100
AcDbLine
 10
245.0000000000001
 20
80.92893783550174
 30
0.0
 11
160.063235
 21
80.92893783550174
 31
0.0
  0
LINE
  5
919
330
1F
100
AcDbEntity
  8
0
 62
     5
100
AcDbLine
 10
250.0000000000001
 20
12.99999999999988
 30
0.0
 11
250.0000000000001
 21
75.92893783550174
 31
0.0
  0
LINE
  5
91A
330
1F
100
AcDbEntity
  8
0
 62
     5
100
AcDbLine
 10
245.0000000000001
 20
7.999999999999883
 30
0.0
 11
40.00000000000003
 21
7.999999999999883
 31
0.0
  0
ARC
  5
91B
330
1F
100
AcDbEntity
  8
0
 62
     5
100
AcDbCircle
 10
245.0000000000001
 20
12.99999999999988
 30
0.0
 40
5.0
100
AcDbArc
 50
270.0
 51
0.0
  0
ARC
  5
91C
330
1F
100
AcDbEntity
  8
0
 62
     5
100
AcDbCircle
 10
245.0000000000001
 20
75.92893783550174
 30
0.0
 40
5.0
100
AcDbArc
 50
0.0
 51
90.0
  0
ARC
  5
91D
330
1F
100
AcDbEntity
  8
0
 62
     5
100
AcDbCircle
 10
40.00000000000003
 20
12.99999999999988
 30
0.0
 40
5.0
100
AcDbArc
 50
180.0
 51
270.0
  0
ARC
  5
91E
330
1F
100
AcDbEntity
  8
0
 62
     5
100
AcDbCircle
 10
40.00000000000003
 20
75.92893783550174
 30
0.0
 40
5.0
100
AcDbArc
 50
90.0
 51
180.0
  0
LINE
  5
91F
330
1F
100
AcDbEntity
  8
0
 62
     5
100
AcDbLine
 10
35.00000000000003
 20
12.99999999999988
 30
0.0
 11
35.00000000000003
 21
75.92893783550174
 31
0.0
  0
LINE
  5
923
330
1F
100
AcDbEntity
  8
0
 62
     5
100
AcDbLine
 10
124.9367650000001
 20
80.92893783550174
 30
0.0
 11
40.00000000000003
 21
80.92893783550174
 31
0.0
  0
ENDSEC
  0
SECTION
  2
OBJECTS
  0
DICTIONARY
  5
C
330
0
100
AcDbDictionary
281
     1
  3
ACAD_COLOR
350
73
  3
ACAD_DETAILVIEWSTYLE
350
122
  3
ACAD_GROUP
350
D
  3
ACAD_IMAGE_VARS
350
DC
  3
ACAD_LAYOUT
350
1A
  3
ACAD_MATERIAL
350
72
  3
ACAD_MLEADERSTYLE
350
B5
  3
ACAD_MLINESTYLE
350
17
  3
ACAD_PLOTSETTINGS
350
19
  3
ACAD_PLOTSTYLENAME
350
E
  3
ACAD_SCALELIST
350
B6
  3
ACAD_SECTIONVIEWSTYLE
350
123
  3
ACAD_TABLESTYLE
350
86
  3
ACAD_VISUALSTYLE
350
99
  3
AcDbVariableDictionary
350
66
  3
ACDB_RECOMPOSE_DATA
350
92E
  3
APPDATA
350
E1
  0
SUN
  5
ED
330
94
100
AcDbSun
 90
        1
290
     0
 63
     7
421
 16777215
 40
1.0
291
     1
 91
  2455826
 92
 54000000
292
     0
 70
     2
 71
   256
280
     1
  0
DICTIONARY
  5
73
102
{ACAD_REACTORS
330
C
102
}
330
C
100
AcDbDictionary
281
     1
  0
DICTIONARY
  5
122
102
{ACAD_REACTORS
330
C
102
}
330
C
100
AcDbDictionary
281
     1
  0
DICTIONARY
  5
D
102
{ACAD_REACTORS
330
C
102
}
330
C
100
AcDbDictionary
281
     1
  0
RASTERVARIABLES
  5
DC
102
{ACAD_REACTORS
330
C
102
}
330
C
100
AcDbRasterVariables
 90
        0
 70
     1
 71
     1
 72
     5
  0
DICTIONARY
  5
1A
102
{ACAD_REACTORS
330
C
102
}
330
C
100
AcDbDictionary
281
     1
  3
Model
350
22
  3
Sheet1
350
59
  3
Sheet2
350
5E
  0
DICTIONARY
  5
72
102
{ACAD_REACTORS
330
C
102
}
330
C
100
AcDbDictionary
281
     1
  3
ByBlock
350
E2
  3
ByLayer
350
96
  3
Global
350
98
  0
DICTIONARY
  5
B5
102
{ACAD_REACTORS
330
C
102
}
330
C
100
AcDbDictionary
281
     1
  3
Standard
350
124
  0
DICTIONARY
  5
17
102
{ACAD_REACTORS
330
C
102
}
330
C
100
AcDbDictionary
281
     1
  3
Standard
350
18
  0
DICTIONARY
  5
19
102
{ACAD_REACTORS
330
C
102
}
330
C
100
AcDbDictionary
281
     1
  0
ACDBDICTIONARYWDFLT
  5
E
102
{ACAD_REACTORS
330
C
102
}
330
C
100
AcDbDictionary
281
     1
  3
Normal
350
F
100
AcDbDictionaryWithDefault
340
F
  0
DICTIONARY
  5
B6
102
{ACAD_REACTORS
330
C
102
}
330
C
100
AcDbDictionary
281
     1
  3
A0
350
B7
  3
A1
350
B8
  3
A2
350
B9
  3
A3
350
BA
  3
A4
350
BB
  3
A5
350
BC
  3
A6
350
BD
  3
A7
350
BE
  3
A8
350
BF
  3
A9
350
C0
  3
B0
350
C1
  3
B1
350
C2
  3
B2
350
C3
  3
B3
350
C4
  3
B4
350
C5
  3
B5
350
C6
  3
B6
350
C7
  3
B7
350
C8
  3
B8
350
C9
  3
B9
350
CA
  3
C0
350
CB
  3
C1
350
CC
  3
C2
350
CD
  3
C3
350
CE
  3
C4
350
CF
  3
C5
350
D0
  3
C6
350
D1
  3
C7
350
D2
  3
C8
350
D3
  3
C9
350
D4
  3
D0
350
D5
  3
D1
350
D6
  3
D2
350
D7
  0
DICTIONARY
  5
123
102
{ACAD_REACTORS
330
C
102
}
330
C
100
AcDbDictionary
281
     1
  0
DICTIONARY
  5
86
102
{ACAD_REACTORS
330
C
102
}
330
C
100
AcDbDictionary
281
     1
  3
Standard
350
87
  0
DICTIONARY
  5
99
102
{ACAD_REACTORS
330
C
102
}
330
C
100
AcDbDictionary
281
     1
  3
2dWireframe
350
9F
  3
3D Hidden
350
A1
  3
3dWireframe
350
A0
  3
Basic
350
9E
  3
Brighten
350
A5
  3
ColorChange
350
A9
  3
Conceptual
350
A2
  3
Dim
350
A4
  3
EdgeColorOff
350
E7
  3
Facepattern
350
A8
  3
Flat
350
9A
  3
FlatWithEdges
350
9B
  3
Gouraud
350
9C
  3
GouraudWithEdges
350
9D
  3
Hidden
350
E4
  3
JitterOff
350
E5
  3
Linepattern
350
A7
  3
OverhangOff
350
E6
  3
Realistic
350
A3
  3
Shaded
350
EC
  3
Shaded with edges
350
EB
  3
Shades of Gray
350
E8
  3
Sketchy
350
E9
  3
Thicken
350
A6
  3
Wireframe
350
E3
  3
X-Ray
350
EA
  0
DICTIONARY
  5
66
102
{ACAD_REACTORS
330
C
102
}
330
C
100
AcDbDictionary
281
     1
  3
CANNOSCALE
350
D8
  3
CMLEADERSTYLE
350
12D
  3
CTABLESTYLE
350
89
  3
DIMASSOC
350
67
  3
HIDETEXT
350
6B
  3
LIGHTSINBLOCKS
350
DF
  3
XCLIPFRAME
350
E0
  0
XRECORD
  5
92E
102
{ACAD_REACTORS
330
C
102
}
330
C
100
AcDbXrecord
280
     1
 90
        1
330
87
  0
DICTIONARY
  5
E1
102
{ACAD_REACTORS
330
C
102
}
330
C
100
AcDbDictionary
281
     1
  0
LAYOUT
  5
22
102
{ACAD_REACTORS
330
1A
102
}
330
1A
100
AcDbPlotSettings
  1

  2
none_device
  4
ANSI_A_(8.50_x_11.00_Inches)
  6

 40
6.35
 41
19.05
 42
6.35
 43
19.05
 44
215.9
 45
279.4
 46
11.11250000000003
 47
0.0000000000000142
 48
0.0
 49
0.0
140
0.0
141
0.0
142
1.0
143
1.263157894736842
 70
 11444
 72
     0
 73
     1
 74
     1
  7
monochrome.ctb
 75
     0
 76
     0
 77
     2
 78
   300
147
0.7916666666666665
148
-702.8076765758875
149
-496.2830551296954
100
AcDbLayout
  1
Model
 70
     1
 71
     0
 10
0.0
 20
0.0
 11
12.0
 21
9.0
 12
0.0
 22
0.0
 32
0.0
 14
0.0
 24
-0.0000000000001208
 34
0.0
 15
258.0000000000002
 25
130.5347138538081
 35
0.0
146
0.0
 13
0.0
 23
0.0
 33
0.0
 16
1.0
 26
0.0
 36
0.0
 17
0.0
 27
1.0
 37
0.0
 76
     0
330
1F
331
94
  0
LAYOUT
  5
59
102
{ACAD_REACTORS
330
1A
102
}
330
1A
100
AcDbPlotSettings
  1

  2
None
  4

  6

 40
0.0
 41
0.0
 42
0.0
 43
0.0
 44
0.0
 45
0.0
 46
0.0
 47
0.0
 48
0.0
 49
0.0
140
0.0
141
0.0
142
1.0
143
1.0
 70
   688
 72
     0
 73
     0
 74
     5
  7

 75
    16
 76
     0
 77
     2
 78
   300
147
1.0
148
0.0
149
0.0
100
AcDbLayout
  1
Sheet1
 70
     1
 71
     1
 10
0.0
 20
0.0
 11
12.0
 21
9.0
 12
0.0
 22
0.0
 32
0.0
 14
0.0
 24
0.0
 34
0.0
 15
0.0
 25
0.0
 35
0.0
146
0.0
 13
0.0
 23
0.0
 33
0.0
 16
1.0
 26
0.0
 36
0.0
 17
0.0
 27
1.0
 37
0.0
 76
     0
330
58
  0
LAYOUT
  5
5E
102
{ACAD_REACTORS
330
1A
102
}
330
1A
100
AcDbPlotSettings
  1

  2
None
  4

  6

 40
0.0
 41
0.0
 42
0.0
 43
0.0
 44
0.0
 45
0.0
 46
0.0
 47
0.0
 48
0.0
 49
0.0
140
0.0
141
0.0
142
1.0
143
1.0
 70
   688
 72
     0
 73
     0
 74
     5
  7

 75
    16
 76
     0
 77
     2
 78
   300
147
1.0
148
0.0
149
0.0
100
AcDbLayout
  1
Sheet2
 70
     1
 71
     2
 10
0.0
 20
0.0
 11
12.0
 21
9.0
 12
0.0
 22
0.0
 32
0.0
 14
0.0
 24
0.0
 34
0.0
 15
0.0
 25
0.0
 35
0.0
146
0.0
 13
0.0
 23
0.0
 33
0.0
 16
1.0
 26
0.0
 36
0.0
 17
0.0
 27
1.0
 37
0.0
 76
     0
330
5D
  0
MATERIAL
  5
E2
102
{ACAD_REACTORS
330
72
102
}
330
72
100
AcDbMaterial
  1
ByBlock
 72
     1
 94
      127
  0
MATERIAL
  5
96
102
{ACAD_REACTORS
330
72
102
}
330
72
100
AcDbMaterial
  1
ByLayer
 72
     1
 94
       63
  0
MATERIAL
  5
98
102
{ACAD_REACTORS
330
72
102
}
330
72
100
AcDbMaterial
  1
Global
 72
     1
 94
       63
  0
MLEADERSTYLE
  5
124
102
{ACAD_REACTORS
330
B5
102
}
330
B5
100
AcDbMLeaderStyle
179
     2
170
     2
171
     1
172
     0
 90
        2
 40
0.0
 41
0.0
173
     1
 91
-1056964608
340
14
 92
       -2
290
     1
 42
0.09
291
     1
 43
0.36
  3
Standard
341
0
 44
0.18
300

342
11
174
     1
178
     1
175
     1
176
     0
 93
-1056964608
 45
0.18
292
     0
297
     0
 46
0.18
343
0
 94
-1056964608
 47
1.0
 49
1.0
140
1.0
293
     1
141
0.0
294
     1
177
     0
142
1.0
295
     0
296
     0
143
0.125
271
     0
272
     9
273
     9
298
     0
  0
MLINESTYLE
  5
18
102
{ACAD_REACTORS
330
17
102
}
330
17
100
AcDbMlineStyle
  2
STANDARD
 70
     0
  3

 62
   256
 51
90.0
 52
90.0
 71
     2
 49
0.5
 62
   256
  6
BYLAYER
 49
-0.5
 62
   256
  6
BYLAYER
  0
ACDBPLACEHOLDER
  5
F
102
{ACAD_REACTORS
330
E
102
}
330
E
  0
SCALE
  5
B7
102
{ACAD_REACTORS
330
B6
102
}
330
B6
100
AcDbScale
 70
     0
300
1:1
140
1.0
141
1.0
290
     1
  0
SCALE
  5
B8
102
{ACAD_REACTORS
330
B6
102
}
330
B6
100
AcDbScale
 70
     0
300
1:2
140
1.0
141
2.0
290
     0
  0
SCALE
  5
B9
102
{ACAD_REACTORS
330
B6
102
}
330
B6
100
AcDbScale
 70
     0
300
1:4
140
1.0
141
4.0
290
     0
  0
SCALE
  5
BA
102
{ACAD_REACTORS
330
B6
102
}
330
B6
100
AcDbScale
 70
     0
300
1:5
140
1.0
141
5.0
290
     0
  0
SCALE
  5
BB
102
{ACAD_REACTORS
330
B6
102
}
330
B6
100
AcDbScale
 70
     0
300
1:8
140
1.0
141
8.0
290
     0
  0
SCALE
  5
BC
102
{ACAD_REACTORS
330
B6
102
}
330
B6
100
AcDbScale
 70
     0
300
1:10
140
1.0
141
10.0
290
     0
  0
SCALE
  5
BD
102
{ACAD_REACTORS
330
B6
102
}
330
B6
100
AcDbScale
 70
     0
300
1:16
140
1.0
141
16.0
290
     0
  0
SCALE
  5
BE
102
{ACAD_REACTORS
330
B6
102
}
330
B6
100
AcDbScale
 70
     0
300
1:20
140
1.0
141
20.0
290
     0
  0
SCALE
  5
BF
102
{ACAD_REACTORS
330
B6
102
}
330
B6
100
AcDbScale
 70
     0
300
1:30
140
1.0
141
30.0
290
     0
  0
SCALE
  5
C0
102
{ACAD_REACTORS
330
B6
102
}
330
B6
100
AcDbScale
 70
     0
300
1:40
140
1.0
141
40.0
290
     0
  0
SCALE
  5
C1
102
{ACAD_REACTORS
330
B6
102
}
330
B6
100
AcDbScale
 70
     0
300
1:50
140
1.0
141
50.0
290
     0
  0
SCALE
  5
C2
102
{ACAD_REACTORS
330
B6
102
}
330
B6
100
AcDbScale
 70
     0
300
1:100
140
1.0
141
100.0
290
     0
  0
SCALE
  5
C3
102
{ACAD_REACTORS
330
B6
102
}
330
B6
100
AcDbScale
 70
     0
300
2:1
140
2.0
141
1.0
290
     0
  0
SCALE
  5
C4
102
{ACAD_REACTORS
330
B6
102
}
330
B6
100
AcDbScale
 70
     0
300
4:1
140
4.0
141
1.0
290
     0
  0
SCALE
  5
C5
102
{ACAD_REACTORS
330
B6
102
}
330
B6
100
AcDbScale
 70
     0
300
8:1
140
8.0
141
1.0
290
     0
  0
SCALE
  5
C6
102
{ACAD_REACTORS
330
B6
102
}
330
B6
100
AcDbScale
 70
     0
300
10:1
140
10.0
141
1.0
290
     0
  0
SCALE
  5
C7
102
{ACAD_REACTORS
330
B6
102
}
330
B6
100
AcDbScale
 70
     0
300
100:1
140
100.0
141
1.0
290
     0
  0
SCALE
  5
C8
102
{ACAD_REACTORS
330
B6
102
}
330
B6
100
AcDbScale
 70
     0
300
1/128" = 1'-0"
140
0.0078125
141
12.0
290
     0
  0
SCALE
  5
C9
102
{ACAD_REACTORS
330
B6
102
}
330
B6
100
AcDbScale
 70
     0
300
1/64" = 1'-0"
140
0.015625
141
12.0
290
     0
  0
SCALE
  5
CA
102
{ACAD_REACTORS
330
B6
102
}
330
B6
100
AcDbScale
 70
     0
300
1/32" = 1'-0"
140
0.03125
141
12.0
290
     0
  0
SCALE
  5
CB
102
{ACAD_REACTORS
330
B6
102
}
330
B6
100
AcDbScale
 70
     0
300
1/16" = 1'-0"
140
0.0625
141
12.0
290
     0
  0
SCALE
  5
CC
102
{ACAD_REACTORS
330
B6
102
}
330
B6
100
AcDbScale
 70
     0
300
3/32" = 1'-0"
140
0.09375
141
12.0
290
     0
  0
SCALE
  5
CD
102
{ACAD_REACTORS
330
B6
102
}
330
B6
100
AcDbScale
 70
     0
300
1/8" = 1'-0"
140
0.125
141
12.0
290
     0
  0
SCALE
  5
CE
102
{ACAD_REACTORS
330
B6
102
}
330
B6
100
AcDbScale
 70
     0
300
3/16" = 1'-0"
140
0.1875
141
12.0
290
     0
  0
SCALE
  5
CF
102
{ACAD_REACTORS
330
B6
102
}
330
B6
100
AcDbScale
 70
     0
300
1/4" = 1'-0"
140
0.25
141
12.0
290
     0
  0
SCALE
  5
D0
102
{ACAD_REACTORS
330
B6
102
}
330
B6
100
AcDbScale
 70
     0
300
3/8" = 1'-0"
140
0.375
141
12.0
290
     0
  0
SCALE
  5
D1
102
{ACAD_REACTORS
330
B6
102
}
330
B6
100
AcDbScale
 70
     0
300
1/2" = 1'-0"
140
0.5
141
12.0
290
     0
  0
SCALE
  5
D2
102
{ACAD_REACTORS
330
B6
102
}
330
B6
100
AcDbScale
 70
     0
300
3/4" = 1'-0"
140
0.75
141
12.0
290
     0
  0
SCALE
  5
D3
102
{ACAD_REACTORS
330
B6
102
}
330
B6
100
AcDbScale
 70
     0
300
1" = 1'-0"
140
1.0
141
12.0
290
     0
  0
SCALE
  5
D4
102
{ACAD_REACTORS
330
B6
102
}
330
B6
100
AcDbScale
 70
     0
300
1-1/2" = 1'-0"
140
1.5
141
12.0
290
     0
  0
SCALE
  5
D5
102
{ACAD_REACTORS
330
B6
102
}
330
B6
100
AcDbScale
 70
     0
300
3" = 1'-0"
140
3.0
141
12.0
290
     0
  0
SCALE
  5
D6
102
{ACAD_REACTORS
330
B6
102
}
330
B6
100
AcDbScale
 70
     0
300
6" = 1'-0"
140
6.0
141
12.0
290
     0
  0
SCALE
  5
D7
102
{ACAD_REACTORS
330
B6
102
}
330
B6
100
AcDbScale
 70
     0
300
1'-0" = 1'-0"
140
12.0
141
12.0
290
     0
  0
TABLESTYLE
  5
87
102
{ACAD_REACTORS
330
86
102
}
102
{ACAD_XDICTIONARY
360
92C
102
}
330
86
100
AcDbTableStyle
  3
Standard
 70
     0
 71
     0
 40
0.06
 41
0.06
280
     0
281
     0
  7
Standard
140
0.18
170
     2
 62
     0
 63
   257
283
     0
 90
      512
 91
        0
  1

274
    -2
284
     1
 64
     0
275
    -2
285
     1
 65
     0
276
    -2
286
     1
 66
     0
277
    -2
287
     1
 67
     0
278
    -2
288
     1
 68
     0
279
    -2
289
     1
 69
     0
  7
Standard
140
0.25
170
     5
 62
     0
 63
   257
283
     0
 90
      512
 91
        0
  1

274
    -2
284
     1
 64
     0
275
    -2
285
     1
 65
     0
276
    -2
286
     1
 66
     0
277
    -2
287
     1
 67
     0
278
    -2
288
     1
 68
     0
279
    -2
289
     1
 69
     0
  7
Standard
140
0.18
170
     5
 62
     0
 63
   257
283
     0
 90
      512
 91
        0
  1

274
    -2
284
     1
 64
     0
275
    -2
285
     1
 65
     0
276
    -2
286
     1
 66
     0
277
    -2
287
     1
 67
     0
278
    -2
288
     1
 68
     0
279
    -2
289
     1
 69
     0
  0
VISUALSTYLE
  5
9F
102
{ACAD_REACTORS
330
99
102
}
330
99
100
AcDbVisualStyle
  2
2dWireframe
 70
     4
177
     3
291
     0
 70
    58
 90
        0
176
     1
 90
        2
176
     1
 90
        1
176
     1
 90
        0
176
     1
 40
-0.6
176
     1
 40
-30.0
176
     1
 62
     7
420
 16777215
176
     1
 90
        1
176
     1
 90
        4
176
     1
 62
     7
176
     1
 62
   257
176
     1
 90
        1
176
     1
 90
        1
176
     1
 40
1.0
176
     1
 90
        0
176
     1
 62
   257
176
     1
 40
1.0
176
     1
 90
        1
176
     1
 90
        6
176
     1
 90
        2
176
     1
 62
     7
176
     1
 90
        5
176
     1
 90
        0
176
     1
 90
        0
176
     1
290
     0
176
     1
 90
        1
176
     1
 40
0.0
176
     1
 90
        0
176
     1
290
     1
176
     1
290
     1
176
     1
290
     0
176
     1
290
     0
176
     1
290
     0
176
     1
290
     0
176
     1
290
     0
176
     1
290
     0
176
     1
290
     0
176
     1
 90
       50
176
     1
 40
0.0
176
     1
 40
1.0
176
     1
 90
        0
176
     1
 62
   178
420
        0
176
     1
 90
       50
176
     1
 90
        3
176
     1
 62
     5
420
      255
176
     1
290
     0
176
     1
 90
       50
176
     1
 90
       50
176
     1
 90
       50
176
     1
290
     0
176
     1
 90
       50
176
     1
 62
   256
176
     0
 40
1.0
176
     0
 90
        2
176
     1
  1
strokes_ogs.tif
176
     1
290
     0
176
     1
 40
1.0
176
     1
 40
1.0
176
     1
  0
VISUALSTYLE
  5
A1
102
{ACAD_REACTORS
330
99
102
}
330
99
100
AcDbVisualStyle
  2
3D Hidden
 70
     6
177
     3
291
     0
 70
    58
 90
        1
176
     1
 90
        2
176
     1
 90
        2
176
     1
 90
        0
176
     1
 40
-0.6
176
     1
 40
-30.0
176
     1
 62
     7
420
 16777215
176
     1
 90
        2
176
     1
 90
        2
176
     1
 62
     7
176
     1
 62
   257
176
     1
 90
        2
176
     1
 90
        1
176
     1
 40
40.0
176
     1
 90
        0
176
     1
 62
   257
176
     1
 40
1.0
176
     1
 90
        1
176
     1
 90
        6
176
     1
 90
        2
176
     1
 62
     7
176
     1
 90
        3
176
     1
 90
        0
176
     1
 90
        0
176
     1
290
     0
176
     1
 90
        1
176
     1
 40
0.0
176
     1
 90
        0
176
     1
290
     0
176
     1
290
     1
176
     1
290
     1
176
     1
290
     0
176
     1
290
     0
176
     1
290
     0
176
     1
290
     0
176
     1
290
     0
176
     1
290
     0
176
     1
 90
       50
176
     1
 40
0.0
176
     1
 40
1.0
176
     1
 90
        0
176
     1
 62
   178
420
        0
176
     1
 90
       50
176
     1
 90
        3
176
     1
 62
     5
420
      255
176
     1
290
     0
176
     1
 90
       50
176
     1
 90
       50
176
     1
 90
       50
176
     1
290
     0
176
     1
 90
       50
176
     1
 62
   256
176
     0
 40
1.0
176
     0
 90
        2
176
     1
  1
strokes_ogs.tif
176
     1
290
     0
176
     1
 40
1.0
176
     1
 40
1.0
176
     1
  0
VISUALSTYLE
  5
A0
102
{ACAD_REACTORS
330
99
102
}
330
99
100
AcDbVisualStyle
  2
3dWireframe
 70
     5
177
     3
291
     0
 70
    58
 90
        0
176
     1
 90
        2
176
     1
 90
        1
176
     1
 90
        0
176
     1
 40
-0.6
176
     1
 40
-30.0
176
     1
 62
     7
420
 16777215
176
     1
 90
        1
176
     1
 90
        4
176
     1
 62
     7
176
     1
 62
   257
176
     1
 90
        1
176
     1
 90
        1
176
     1
 40
1.0
176
     1
 90
        0
176
     1
 62
   257
176
     1
 40
1.0
176
     1
 90
        1
176
     1
 90
        6
176
     1
 90
        2
176
     1
 62
     7
176
     1
 90
        5
176
     1
 90
        0
176
     1
 90
        0
176
     1
290
     0
176
     1
 90
        1
176
     1
 40
0.0
176
     1
 90
        0
176
     1
290
     0
176
     1
290
     1
176
     1
290
     1
176
     1
290
     0
176
     1
290
     0
176
     1
290
     0
176
     1
290
     0
176
     1
290
     0
176
     1
290
     0
176
     1
 90
       50
176
     1
 40
0.0
176
     1
 40
1.0
176
     1
 90
        0
176
     1
 62
   178
420
        0
176
     1
 90
       50
176
     1
 90
        3
176
     1
 62
     5
420
      255
176
     1
290
     0
176
     1
 90
       50
176
     1
 90
       50
176
     1
 90
       50
176
     1
290
     0
176
     1
 90
       50
176
     1
 62
   256
176
     0
 40
1.0
176
     0
 90
        2
176
     1
  1
strokes_ogs.tif
176
     1
290
     0
176
     1
 40
1.0
176
     1
 40
1.0
176
     1
  0
VISUALSTYLE
  5
9E
102
{ACAD_REACTORS
330
99
102
}
330
99
100
AcDbVisualStyle
  2
Basic
 70
     7
177
     3
291
     1
 70
    58
 90
        1
176
     1
 90
        0
176
     1
 90
        1
176
     1
 90
        0
176
     1
 40
-0.6
176
     1
 40
-30.0
176
     1
 62
     7
420
 16777215
176
     1
 90
        0
176
     1
 90
        4
176
     1
 62
     7
176
     1
 62
   257
176
     1
 90
        1
176
     1
 90
        1
176
     1
 40
1.0
176
     1
 90
        8
176
     1
 62
     7
176
     1
 40
1.0
176
     1
 90
        1
176
     1
 90
        6
176
     1
 90
        2
176
     1
 62
     7
176
     1
 90
        5
176
     1
 90
        0
176
     1
 90
        0
176
     1
290
     0
176
     1
 90
        1
176
     1
 40
0.0
176
     1
 90
        0
176
     1
290
     0
176
     1
290
     1
176
     1
290
     1
176
     1
290
     0
176
     1
290
     0
176
     1
290
     0
176
     1
290
     0
176
     1
290
     0
176
     1
290
     0
176
     1
 90
       50
176
     1
 40
0.0
176
     1
 40
1.0
176
     1
 90
        0
176
     1
 62
   178
420
        0
176
     1
 90
       50
176
     1
 90
        3
176
     1
 62
     5
420
      255
176
     1
290
     0
176
     1
 90
       50
176
     1
 90
       50
176
     1
 90
       50
176
     1
290
     0
176
     1
 90
       50
176
     1
 62
   256
176
     0
 40
1.0
176
     0
 90
        2
176
     1
  1
strokes_ogs.tif
176
     1
290
     0
176
     1
 40
1.0
176
     1
 40
1.0
176
     1
  0
VISUALSTYLE
  5
A5
102
{ACAD_REACTORS
330
99
102
}
330
99
100
AcDbVisualStyle
  2
Brighten
 70
    12
177
     3
291
     1
 70
    58
 90
        2
176
     1
 90
        2
176
     1
 90
        1
176
     1
 90
        0
176
     1
 40
-0.6
176
     1
 40
-30.0
176
     1
 62
     7
420
 16777215
176
     1
 90
        1
176
     1
 90
        4
176
     1
 62
     7
176
     1
 62
   257
176
     1
 90
        1
176
     1
 90
        1
176
     1
 40
1.0
176
     1
 90
        8
176
     1
 62
     7
176
     1
 40
1.0
176
     1
 90
        1
176
     1
 90
        6
176
     1
 90
        2
176
     1
 62
     7
176
     1
 90
        5
176
     1
 90
        0
176
     1
 90
        0
176
     1
290
     0
176
     1
 90
        1
176
     1
 40
50.0
176
     1
 90
        0
176
     1
290
     0
176
     1
290
     1
176
     1
290
     1
176
     1
290
     0
176
     1
290
     0
176
     1
290
     0
176
     1
290
     0
176
     1
290
     0
176
     1
290
     0
176
     1
 90
       50
176
     1
 40
0.0
176
     1
 40
1.0
176
     1
 90
        0
176
     1
 62
   178
420
        0
176
     1
 90
       50
176
     1
 90
        3
176
     1
 62
     5
420
      255
176
     1
290
     0
176
     1
 90
       50
176
     1
 90
       50
176
     1
 90
       50
176
     1
290
     0
176
     1
 90
       50
176
     1
 62
   256
176
     0
 40
1.0
176
     0
 90
        2
176
     1
  1
strokes_ogs.tif
176
     1
290
     0
176
     1
 40
1.0
176
     1
 40
1.0
176
     1
  0
VISUALSTYLE
  5
A9
102
{ACAD_REACTORS
330
99
102
}
330
99
100
AcDbVisualStyle
  2
ColorChange
 70
    16
177
     3
291
     1
 70
    58
 90
        2
176
     1
 90
        2
176
     1
 90
        3
176
     1
 90
        0
176
     1
 40
-0.6
176
     1
 40
-30.0
176
     1
 62
     8
420
  8421504
176
     1
 90
        1
176
     1
 90
        4
176
     1
 62
     7
176
     1
 62
   257
176
     1
 90
        1
176
     1
 90
        1
176
     1
 40
1.0
176
     1
 90
        8
176
     1
 62
     8
420
  8421504
176
     1
 40
1.0
176
     1
 90
        1
176
     1
 90
        6
176
     1
 90
        2
176
     1
 62
     7
176
     1
 90
        5
176
     1
 90
        0
176
     1
 90
        0
176
     1
290
     0
176
     1
 90
        1
176
     1
 40
0.0
176
     1
 90
        0
176
     1
290
     0
176
     1
290
     1
176
     1
290
     1
176
     1
290
     0
176
     1
290
     0
176
     1
290
     0
176
     1
290
     0
176
     1
290
     0
176
     1
290
     0
176
     1
 90
       50
176
     1
 40
0.0
176
     1
 40
1.0
176
     1
 90
        0
176
     1
 62
   178
420
        0
176
     1
 90
       50
176
     1
 90
        3
176
     1
 62
     5
420
      255
176
     1
290
     0
176
     1
 90
       50
176
     1
 90
       50
176
     1
 90
       50
176
     1
290
     0
176
     1
 90
       50
176
     1
 62
   256
176
     0
 40
1.0
176
     0
 90
        2
176
     1
  1
strokes_ogs.tif
176
     1
290
     0
176
     1
 40
1.0
176
     1
 40
1.0
176
     1
  0
VISUALSTYLE
  5
A2
102
{ACAD_REACTORS
330
99
102
}
330
99
100
AcDbVisualStyle
  2
Conceptual
 70
     9
177
     3
291
     0
 70
    58
 90
        3
176
     1
 90
        2
176
     1
 90
        1
176
     1
 90
        0
176
     1
 40
-0.6
176
     1
 40
-30.0
176
     1
 62
     7
420
 16777215
176
     1
 90
        2
176
     1
 90
        2
176
     1
 62
     7
176
     1
 62
   257
176
     1
 90
        1
176
     1
 90
        1
176
     1
 40
40.0
176
     1
 90
        8
176
     1
 62
     7
176
     1
 40
1.0
176
     1
 90
        1
176
     1
 90
        6
176
     1
 90
        2
176
     1
 62
     7
176
     1
 90
        3
176
     1
 90
        0
176
     1
 90
        0
176
     1
290
     0
176
     1
 90
        1
176
     1
 40
0.0
176
     1
 90
        0
176
     1
290
     0
176
     1
290
     1
176
     1
290
     1
176
     1
290
     0
176
     1
290
     0
176
     1
290
     0
176
     1
290
     0
176
     1
290
     0
176
     1
290
     0
176
     1
 90
       50
176
     1
 40
0.0
176
     1
 40
1.0
176
     1
 90
        0
176
     1
 62
   178
420
        0
176
     1
 90
       50
176
     1
 90
        3
176
     1
 62
     5
420
      255
176
     1
290
     0
176
     1
 90
       50
176
     1
 90
       50
176
     1
 90
       50
176
     1
290
     0
176
     1
 90
       50
176
     1
 62
   256
176
     0
 40
1.0
176
     0
 90
        2
176
     1
  1
strokes_ogs.tif
176
     1
290
     0
176
     1
 40
1.0
176
     1
 40
1.0
176
     1
  0
VISUALSTYLE
  5
A4
102
{ACAD_REACTORS
330
99
102
}
330
99
100
AcDbVisualStyle
  2
Dim
 70
    11
177
     3
291
     1
 70
    58
 90
        2
176
     1
 90
        2
176
     1
 90
        1
176
     1
 90
        0
176
     1
 40
-0.6
176
     1
 40
-30.0
176
     1
 62
     7
420
 16777215
176
     1
 90
        1
176
     1
 90
        4
176
     1
 62
     7
176
     1
 62
   257
176
     1
 90
        1
176
     1
 90
        1
176
     1
 40
1.0
176
     1
 90
        8
176
     1
 62
     7
176
     1
 40
1.0
176
     1
 90
        1
176
     1
 90
        6
176
     1
 90
        2
176
     1
 62
     7
176
     1
 90
        5
176
     1
 90
        0
176
     1
 90
        0
176
     1
290
     0
176
     1
 90
        1
176
     1
 40
-50.0
176
     1
 90
        0
176
     1
290
     0
176
     1
290
     1
176
     1
290
     1
176
     1
290
     0
176
     1
290
     0
176
     1
290
     0
176
     1
290
     0
176
     1
290
     0
176
     1
290
     0
176
     1
 90
       50
176
     1
 40
0.0
176
     1
 40
1.0
176
     1
 90
        0
176
     1
 62
   178
420
        0
176
     1
 90
       50
176
     1
 90
        3
176
     1
 62
     5
420
      255
176
     1
290
     0
176
     1
 90
       50
176
     1
 90
       50
176
     1
 90
       50
176
     1
290
     0
176
     1
 90
       50
176
     1
 62
   256
176
     0
 40
1.0
176
     0
 90
        2
176
     1
  1
strokes_ogs.tif
176
     1
290
     0
176
     1
 40
1.0
176
     1
 40
1.0
176
     1
  0
VISUALSTYLE
  5
E7
102
{ACAD_REACTORS
330
99
102
}
330
99
100
AcDbVisualStyle
  2
EdgeColorOff
 70
    22
177
     3
291
     1
 70
    58
 90
        2
176
     0
 90
        2
176
     0
 90
        0
176
     0
 90
        0
176
     0
 40
0.6
176
     0
 40
30.0
176
     0
 62
     7
420
 16777215
176
     0
 90
        1
176
     0
 90
        4
176
     0
 62
     7
176
     0
 62
   257
176
     0
 90
        1
176
     0
 90
        1
176
     0
 40
1.0
176
     0
 90
        8
176
     2
 62
     7
176
     0
 40
1.0
176
     0
 90
        1
176
     0
 90
        6
176
     0
 90
        2
176
     0
 62
     7
176
     0
 90
        5
176
     0
 90
        0
176
     0
 90
        0
176
     0
290
     0
176
     0
 90
        1
176
     0
 40
0.0
176
     0
 90
        0
176
     0
290
     0
176
     0
290
     1
176
     0
290
     1
176
     0
290
     0
176
     0
290
     0
176
     0
290
     0
176
     0
290
     0
176
     0
290
     0
176
     0
290
     0
176
     0
 90
       50
176
     0
 40
0.0
176
     0
 40
1.0
176
     0
 90
        0
176
     0
 62
   178
420
        0
176
     0
 90
       50
176
     0
 90
        3
176
     0
 62
     5
420
      255
176
     0
290
     0
176
     0
 90
       50
176
     0
 90
       50
176
     0
 90
       50
176
     0
290
     0
176
     0
 90
       50
176
     0
 62
   256
176
     0
 40
1.0
176
     0
 90
        2
176
     0
  1
strokes_ogs.tif
176
     0
290
     0
176
     0
 40
1.0
176
     0
 40
1.0
176
     0
  0
VISUALSTYLE
  5
A8
102
{ACAD_REACTORS
330
99
102
}
330
99
100
AcDbVisualStyle
  2
Facepattern
 70
    15
177
     3
291
     1
 70
    58
 90
        2
176
     1
 90
        2
176
     1
 90
        1
176
     1
 90
        0
176
     1
 40
-0.6
176
     1
 40
-30.0
176
     1
 62
     7
420
 16777215
176
     1
 90
        1
176
     1
 90
        4
176
     1
 62
     7
176
     1
 62
   257
176
     1
 90
        1
176
     1
 90
        1
176
     1
 40
1.0
176
     1
 90
        8
176
     1
 62
     7
176
     1
 40
1.0
176
     1
 90
        1
176
     1
 90
        6
176
     1
 90
        2
176
     1
 62
     7
176
     1
 90
        5
176
     1
 90
        0
176
     1
 90
        0
176
     1
290
     0
176
     1
 90
        1
176
     1
 40
0.0
176
     1
 90
        0
176
     1
290
     0
176
     1
290
     1
176
     1
290
     1
176
     1
290
     0
176
     1
290
     0
176
     1
290
     0
176
     1
290
     0
176
     1
290
     0
176
     1
290
     0
176
     1
 90
       50
176
     1
 40
0.0
176
     1
 40
1.0
176
     1
 90
        0
176
     1
 62
   178
420
        0
176
     1
 90
       50
176
     1
 90
        3
176
     1
 62
     5
420
      255
176
     1
290
     0
176
     1
 90
       50
176
     1
 90
       50
176
     1
 90
       50
176
     1
290
     0
176
     1
 90
       50
176
     1
 62
   256
176
     0
 40
1.0
176
     0
 90
        2
176
     1
  1
strokes_ogs.tif
176
     1
290
     0
176
     1
 40
1.0
176
     1
 40
1.0
176
     1
  0
VISUALSTYLE
  5
9A
102
{ACAD_REACTORS
330
99
102
}
330
99
100
AcDbVisualStyle
  2
Flat
 70
     0
177
     3
291
     1
 70
    58
 90
        2
176
     1
 90
        1
176
     1
 90
        1
176
     1
 90
        2
176
     1
 40
-0.6
176
     1
 40
30.0
176
     1
 62
     7
420
 16777215
176
     1
 90
        0
176
     1
 90
        4
176
     1
 62
     7
176
     1
 62
   257
176
     1
 90
        1
176
     1
 90
        1
176
     1
 40
1.0
176
     1
 90
        8
176
     1
 62
     7
176
     1
 40
1.0
176
     1
 90
        1
176
     1
 90
        6
176
     1
 90
        2
176
     1
 62
     7
176
     1
 90
        5
176
     1
 90
        0
176
     1
 90
        0
176
     1
290
     0
176
     1
 90
        1
176
     1
 40
0.0
176
     1
 90
        0
176
     1
290
     0
176
     1
290
     1
176
     1
290
     1
176
     1
290
     0
176
     1
290
     0
176
     1
290
     0
176
     1
290
     0
176
     1
290
     0
176
     1
290
     0
176
     1
 90
       50
176
     1
 40
0.0
176
     1
 40
1.0
176
     1
 90
        0
176
     1
 62
   178
420
        0
176
     1
 90
       50
176
     1
 90
        3
176
     1
 62
     5
420
      255
176
     1
290
     0
176
     1
 90
       50
176
     1
 90
       50
176
     1
 90
       50
176
     1
290
     0
176
     1
 90
       50
176
     1
 62
   256
176
     0
 40
1.0
176
     0
 90
        2
176
     1
  1
strokes_ogs.tif
176
     1
290
     0
176
     1
 40
1.0
176
     1
 40
1.0
176
     1
  0
VISUALSTYLE
  5
9B
102
{ACAD_REACTORS
330
99
102
}
330
99
100
AcDbVisualStyle
  2
FlatWithEdges
 70
     1
177
     3
291
     1
 70
    58
 90
        2
176
     1
 90
        1
176
     1
 90
        1
176
     1
 90
        2
176
     1
 40
-0.6
176
     1
 40
30.0
176
     1
 62
     7
420
 16777215
176
     1
 90
        1
176
     1
 90
        4
176
     1
 62
     7
176
     1
 62
   257
176
     1
 90
        1
176
     1
 90
        1
176
     1
 40
1.0
176
     1
 90
        0
176
     1
 62
   257
176
     1
 40
1.0
176
     1
 90
        1
176
     1
 90
        6
176
     1
 90
        2
176
     1
 62
     7
176
     1
 90
        5
176
     1
 90
        0
176
     1
 90
        0
176
     1
290
     0
176
     1
 90
        1
176
     1
 40
0.0
176
     1
 90
        0
176
     1
290
     0
176
     1
290
     1
176
     1
290
     1
176
     1
290
     0
176
     1
290
     0
176
     1
290
     0
176
     1
290
     0
176
     1
290
     0
176
     1
290
     0
176
     1
 90
       50
176
     1
 40
0.0
176
     1
 40
1.0
176
     1
 90
        0
176
     1
 62
   178
420
        0
176
     1
 90
       50
176
     1
 90
        3
176
     1
 62
     5
420
      255
176
     1
290
     0
176
     1
 90
       50
176
     1
 90
       50
176
     1
 90
       50
176
     1
290
     0
176
     1
 90
       50
176
     1
 62
   256
176
     0
 40
1.0
176
     0
 90
        2
176
     1
  1
strokes_ogs.tif
176
     1
290
     0
176
     1
 40
1.0
176
     1
 40
1.0
176
     1
  0
VISUALSTYLE
  5
9C
102
{ACAD_REACTORS
330
99
102
}
330
99
100
AcDbVisualStyle
  2
Gouraud
 70
     2
177
     3
291
     1
 70
    58
 90
        2
176
     1
 90
        2
176
     1
 90
        1
176
     1
 90
        2
176
     1
 40
-0.6
176
     1
 40
30.0
176
     1
 62
     7
420
 16777215
176
     1
 90
        0
176
     1
 90
        4
176
     1
 62
     7
176
     1
 62
   257
176
     1
 90
        1
176
     1
 90
        1
176
     1
 40
1.0
176
     1
 90
        0
176
     1
 62
     7
176
     1
 40
1.0
176
     1
 90
        1
176
     1
 90
        6
176
     1
 90
        2
176
     1
 62
     7
176
     1
 90
        5
176
     1
 90
        0
176
     1
 90
        0
176
     1
290
     0
176
     1
 90
        1
176
     1
 40
0.0
176
     1
 90
        0
176
     1
290
     0
176
     1
290
     1
176
     1
290
     1
176
     1
290
     0
176
     1
290
     0
176
     1
290
     0
176
     1
290
     0
176
     1
290
     0
176
     1
290
     0
176
     1
 90
       50
176
     1
 40
0.0
176
     1
 40
1.0
176
     1
 90
        0
176
     1
 62
   178
420
        0
176
     1
 90
       50
176
     1
 90
        3
176
     1
 62
     5
420
      255
176
     1
290
     0
176
     1
 90
       50
176
     1
 90
       50
176
     1
 90
       50
176
     1
290
     0
176
     1
 90
       50
176
     1
 62
   256
176
     0
 40
1.0
176
     0
 90
        2
176
     1
  1
strokes_ogs.tif
176
     1
290
     0
176
     1
 40
1.0
176
     1
 40
1.0
176
     1
  0
VISUALSTYLE
  5
9D
102
{ACAD_REACTORS
330
99
102
}
330
99
100
AcDbVisualStyle
  2
GouraudWithEdges
 70
     3
177
     3
291
     1
 70
    58
 90
        2
176
     1
 90
        2
176
     1
 90
        1
176
     1
 90
        2
176
     1
 40
-0.6
176
     1
 40
30.0
176
     1
 62
     7
420
 16777215
176
     1
 90
        1
176
     1
 90
        4
176
     1
 62
     7
176
     1
 62
   257
176
     1
 90
        1
176
     1
 90
        1
176
     1
 40
1.0
176
     1
 90
        0
176
     1
 62
   257
176
     1
 40
1.0
176
     1
 90
        1
176
     1
 90
        6
176
     1
 90
        2
176
     1
 62
     7
176
     1
 90
        5
176
     1
 90
        0
176
     1
 90
        0
176
     1
290
     0
176
     1
 90
        1
176
     1
 40
0.0
176
     1
 90
        0
176
     1
290
     0
176
     1
290
     1
176
     1
290
     1
176
     1
290
     0
176
     1
290
     0
176
     1
290
     0
176
     1
290
     0
176
     1
290
     0
176
     1
290
     0
176
     1
 90
       50
176
     1
 40
0.0
176
     1
 40
1.0
176
     1
 90
        0
176
     1
 62
   178
420
        0
176
     1
 90
       50
176
     1
 90
        3
176
     1
 62
     5
420
      255
176
     1
290
     0
176
     1
 90
       50
176
     1
 90
       50
176
     1
 90
       50
176
     1
290
     0
176
     1
 90
       50
176
     1
 62
   256
176
     0
 40
1.0
176
     0
 90
        2
176
     1
  1
strokes_ogs.tif
176
     1
290
     0
176
     1
 40
1.0
176
     1
 40
1.0
176
     1
  0
VISUALSTYLE
  5
E4
102
{ACAD_REACTORS
330
99
102
}
330
99
100
AcDbVisualStyle
  2
Hidden
 70
     6
177
     3
291
     0
 70
    58
 90
        1
176
     1
 90
        2
176
     1
 90
        2
176
     1
 90
        0
176
     1
 40
0.6
176
     1
 40
30.0
176
     1
 62
     7
420
 16777215
176
     1
 90
        2
176
     1
 90
        2
176
     1
 62
     7
176
     1
 62
   257
176
     1
 90
        2
176
     1
 90
        1
176
     1
 40
40.0
176
     1
 90
        0
176
     1
 62
   257
176
     1
 40
1.0
176
     1
 90
        1
176
     1
 90
        6
176
     1
 90
        2
176
     1
 62
     7
176
     1
 90
        3
176
     1
 90
        0
176
     1
 90
        0
176
     1
290
     0
176
     1
 90
        1
176
     1
 40
0.0
176
     1
 90
        0
176
     1
290
     0
176
     1
290
     1
176
     1
290
     1
176
     1
290
     0
176
     1
290
     0
176
     1
290
     0
176
     1
290
     0
176
     1
290
     0
176
     1
290
     0
176
     1
 90
       50
176
     1
 40
0.0
176
     1
 40
1.0
176
     1
 90
        0
176
     1
 62
   178
420
        0
176
     1
 90
       50
176
     1
 90
        3
176
     1
 62
     5
420
      255
176
     1
290
     0
176
     1
 90
       50
176
     1
 90
       50
176
     1
 90
       50
176
     1
290
     0
176
     1
 90
       50
176
     1
 62
   256
176
     0
 40
1.0
176
     0
 90
        2
176
     1
  1
strokes_ogs.tif
176
     1
290
     0
176
     1
 40
1.0
176
     1
 40
1.0
176
     1
  0
VISUALSTYLE
  5
E5
102
{ACAD_REACTORS
330
99
102
}
330
99
100
AcDbVisualStyle
  2
JitterOff
 70
    20
177
     3
291
     1
 70
    58
 90
        2
176
     0
 90
        2
176
     0
 90
        0
176
     0
 90
        0
176
     0
 40
0.6
176
     0
 40
30.0
176
     0
 62
     7
420
 16777215
176
     0
 90
        1
176
     0
 90
        4
176
     0
 62
     7
176
     0
 62
   257
176
     0
 90
        1
176
     0
 90
        1
176
     0
 40
1.0
176
     0
 90
       10
176
     2
 62
     7
176
     0
 40
1.0
176
     0
 90
        1
176
     0
 90
        6
176
     0
 90
        2
176
     0
 62
     7
176
     0
 90
        5
176
     0
 90
        0
176
     0
 90
        0
176
     0
290
     0
176
     0
 90
        1
176
     0
 40
0.0
176
     0
 90
        0
176
     0
290
     0
176
     0
290
     1
176
     0
290
     1
176
     0
290
     0
176
     0
290
     0
176
     0
290
     0
176
     0
290
     0
176
     0
290
     0
176
     0
290
     0
176
     0
 90
       50
176
     0
 40
0.0
176
     0
 40
1.0
176
     0
 90
        0
176
     0
 62
   178
420
        0
176
     0
 90
       50
176
     0
 90
        3
176
     0
 62
     5
420
      255
176
     0
290
     0
176
     0
 90
       50
176
     0
 90
       50
176
     0
 90
       50
176
     0
290
     0
176
     0
 90
       50
176
     0
 62
   256
176
     0
 40
1.0
176
     0
 90
        2
176
     0
  1
strokes_ogs.tif
176
     0
290
     0
176
     0
 40
1.0
176
     0
 40
1.0
176
     0
  0
VISUALSTYLE
  5
A7
102
{ACAD_REACTORS
330
99
102
}
330
99
100
AcDbVisualStyle
  2
Linepattern
 70
    14
177
     3
291
     1
 70
    58
 90
        2
176
     1
 90
        2
176
     1
 90
        1
176
     1
 90
        0
176
     1
 40
-0.6
176
     1
 40
-30.0
176
     1
 62
     7
420
 16777215
176
     1
 90
        1
176
     1
 90
        4
176
     1
 62
     7
176
     1
 62
   257
176
     1
 90
        7
176
     1
 90
        7
176
     1
 40
1.0
176
     1
 90
        8
176
     1
 62
     7
176
     1
 40
1.0
176
     1
 90
        1
176
     1
 90
        6
176
     1
 90
        2
176
     1
 62
     7
176
     1
 90
        5
176
     1
 90
        0
176
     1
 90
        0
176
     1
290
     0
176
     1
 90
        1
176
     1
 40
0.0
176
     1
 90
        0
176
     1
290
     0
176
     1
290
     1
176
     1
290
     1
176
     1
290
     0
176
     1
290
     0
176
     1
290
     0
176
     1
290
     0
176
     1
290
     0
176
     1
290
     0
176
     1
 90
       50
176
     1
 40
0.0
176
     1
 40
1.0
176
     1
 90
        0
176
     1
 62
   178
420
        0
176
     1
 90
       50
176
     1
 90
        3
176
     1
 62
     5
420
      255
176
     1
290
     0
176
     1
 90
       50
176
     1
 90
       50
176
     1
 90
       50
176
     1
290
     0
176
     1
 90
       50
176
     1
 62
   256
176
     0
 40
1.0
176
     0
 90
        2
176
     1
  1
strokes_ogs.tif
176
     1
290
     0
176
     1
 40
1.0
176
     1
 40
1.0
176
     1
  0
VISUALSTYLE
  5
E6
102
{ACAD_REACTORS
330
99
102
}
330
99
100
AcDbVisualStyle
  2
OverhangOff
 70
    21
177
     3
291
     1
 70
    58
 90
        2
176
     0
 90
        2
176
     0
 90
        0
176
     0
 90
        0
176
     0
 40
0.6
176
     0
 40
30.0
176
     0
 62
     7
420
 16777215
176
     0
 90
        1
176
     0
 90
        4
176
     0
 62
     7
176
     0
 62
   257
176
     0
 90
        1
176
     0
 90
        1
176
     0
 40
1.0
176
     0
 90
        9
176
     2
 62
     7
176
     0
 40
1.0
176
     0
 90
        1
176
     0
 90
        6
176
     0
 90
        2
176
     0
 62
     7
176
     0
 90
        5
176
     0
 90
        0
176
     0
 90
        0
176
     0
290
     0
176
     0
 90
        1
176
     0
 40
0.0
176
     0
 90
        0
176
     0
290
     0
176
     0
290
     1
176
     0
290
     1
176
     0
290
     0
176
     0
290
     0
176
     0
290
     0
176
     0
290
     0
176
     0
290
     0
176
     0
290
     0
176
     0
 90
       50
176
     0
 40
0.0
176
     0
 40
1.0
176
     0
 90
        0
176
     0
 62
   178
420
        0
176
     0
 90
       50
176
     0
 90
        3
176
     0
 62
     5
420
      255
176
     0
290
     0
176
     0
 90
       50
176
     0
 90
       50
176
     0
 90
       50
176
     0
290
     0
176
     0
 90
       50
176
     0
 62
   256
176
     0
 40
1.0
176
     0
 90
        2
176
     0
  1
strokes_ogs.tif
176
     0
290
     0
176
     0
 40
1.0
176
     0
 40
1.0
176
     0
  0
VISUALSTYLE
  5
A3
102
{ACAD_REACTORS
330
99
102
}
330
99
100
AcDbVisualStyle
  2
Realistic
 70
     8
177
     3
291
     0
 70
    58
 90
        2
176
     1
 90
        2
176
     1
 90
        1
176
     1
 90
        0
176
     1
 40
-0.6
176
     1
 40
-30.0
176
     1
 62
     7
420
 16777215
176
     1
 90
        1
176
     1
 90
        0
176
     1
 62
     7
176
     1
 62
   257
176
     1
 90
        1
176
     1
 90
        1
176
     1
 40
1.0
176
     1
 90
        8
176
     1
 62
     8
420
  7895160
176
     1
 40
1.0
176
     1
 90
        1
176
     1
 90
        6
176
     1
 90
        2
176
     1
 62
     7
176
     1
 90
        5
176
     1
 90
        0
176
     1
 90
        0
176
     1
290
     0
176
     1
 90
       13
176
     1
 40
0.0
176
     1
 90
        0
176
     1
290
     0
176
     1
290
     1
176
     1
290
     1
176
     1
290
     0
176
     1
290
     0
176
     1
290
     0
176
     1
290
     0
176
     1
290
     0
176
     1
290
     0
176
     1
 90
       50
176
     1
 40
0.0
176
     1
 40
1.0
176
     1
 90
        0
176
     1
 62
   178
420
        0
176
     1
 90
       50
176
     1
 90
        3
176
     1
 62
     5
420
      255
176
     1
290
     0
176
     1
 90
       50
176
     1
 90
       50
176
     1
 90
       50
176
     1
290
     0
176
     1
 90
       50
176
     1
 62
   256
176
     0
 40
1.0
176
     0
 90
        2
176
     1
  1
strokes_ogs.tif
176
     1
290
     0
176
     1
 40
1.0
176
     1
 40
1.0
176
     1
  0
VISUALSTYLE
  5
EC
102
{ACAD_REACTORS
330
99
102
}
330
99
100
AcDbVisualStyle
  2
Shaded
 70
    27
177
     3
291
     0
 70
    58
 90
        2
176
     1
 90
        2
176
     1
 90
        1
176
     1
 90
        2
176
     1
 40
0.6
176
     1
 40
30.0
176
     1
 62
     7
420
 16777215
176
     1
 90
        0
176
     1
 90
        4
176
     1
 62
     7
176
     1
 62
   257
176
     1
 90
        1
176
     1
 90
        1
176
     1
 40
1.0
176
     1
 90
        8
176
     1
 62
   257
176
     1
 40
1.0
176
     1
 90
        1
176
     1
 90
        6
176
     1
 90
        2
176
     1
 62
     8
420
  7895160
176
     1
 90
        3
176
     1
 90
        0
176
     1
 90
        0
176
     1
290
     0
176
     1
 90
        5
176
     1
 40
0.0
176
     1
 90
        0
176
     1
290
     0
176
     1
290
     1
176
     1
290
     1
176
     1
290
     0
176
     1
290
     0
176
     1
290
     0
176
     1
290
     0
176
     1
290
     0
176
     1
290
     0
176
     1
 90
       50
176
     1
 40
0.0
176
     1
 40
1.0
176
     1
 90
        0
176
     1
 62
   178
420
        0
176
     1
 90
       50
176
     1
 90
        3
176
     1
 62
     5
420
      255
176
     1
290
     0
176
     1
 90
       50
176
     1
 90
       50
176
     1
 90
       50
176
     1
290
     0
176
     1
 90
       50
176
     1
 62
   256
176
     0
 40
1.0
176
     0
 90
        2
176
     1
  1
strokes_ogs.tif
176
     1
290
     0
176
     1
 40
1.0
176
     1
 40
1.0
176
     1
  0
VISUALSTYLE
  5
EB
102
{ACAD_REACTORS
330
99
102
}
330
99
100
AcDbVisualStyle
  2
Shaded with edges
 70
    26
177
     3
291
     0
 70
    58
 90
        2
176
     1
 90
        2
176
     1
 90
        1
176
     1
 90
        2
176
     1
 40
0.6
176
     1
 40
30.0
176
     1
 62
     7
420
 16777215
176
     1
 90
        1
176
     1
 90
       10
176
     1
 62
     7
176
     1
 62
   257
176
     1
 90
        2
176
     1
 90
        1
176
     1
 40
1.0
176
     1
 90
        8
176
     1
 62
   257
176
     1
 40
1.0
176
     1
 90
        1
176
     1
 90
        6
176
     1
 90
        2
176
     1
 62
     7
176
     1
 90
        3
176
     1
 90
        0
176
     1
 90
        0
176
     1
290
     0
176
     1
 90
        5
176
     1
 40
0.0
176
     1
 90
        0
176
     1
290
     0
176
     1
290
     1
176
     1
290
     1
176
     1
290
     0
176
     1
290
     0
176
     1
290
     0
176
     1
290
     0
176
     1
290
     0
176
     1
290
     0
176
     1
 90
       50
176
     1
 40
0.0
176
     1
 40
1.0
176
     1
 90
        0
176
     1
 62
   178
420
        0
176
     1
 90
       50
176
     1
 90
        3
176
     1
 62
     5
420
      255
176
     1
290
     0
176
     1
 90
       50
176
     1
 90
       50
176
     1
 90
       50
176
     1
290
     0
176
     1
 90
       50
176
     1
 62
   256
176
     0
 40
1.0
176
     0
 90
        2
176
     1
  1
strokes_ogs.tif
176
     1
290
     0
176
     1
 40
1.0
176
     1
 40
1.0
176
     1
  0
VISUALSTYLE
  5
E8
102
{ACAD_REACTORS
330
99
102
}
330
99
100
AcDbVisualStyle
  2
Shades of Gray
 70
    23
177
     3
291
     0
 70
    58
 90
        2
176
     1
 90
        2
176
     1
 90
        3
176
     1
 90
        0
176
     1
 40
0.6
176
     1
 40
30.0
176
     1
 62
     7
420
 16777215
176
     1
 90
        2
176
     1
 90
        2
176
     1
 62
     7
176
     1
 62
     7
176
     1
 90
        1
176
     1
 90
        1
176
     1
 40
40.0
176
     1
 90
        8
176
     1
 62
     7
176
     1
 40
1.0
176
     1
 90
        1
176
     1
 90
        6
176
     1
 90
        2
176
     1
 62
     7
176
     1
 90
        3
176
     1
 90
        0
176
     1
 90
        0
176
     1
290
     0
176
     1
 90
        1
176
     1
 40
0.0
176
     1
 90
        0
176
     1
290
     0
176
     1
290
     1
176
     1
290
     1
176
     1
290
     0
176
     1
290
     0
176
     1
290
     0
176
     1
290
     0
176
     1
290
     0
176
     1
290
     0
176
     1
 90
       50
176
     1
 40
0.0
176
     1
 40
1.0
176
     1
 90
        0
176
     1
 62
   178
420
        0
176
     1
 90
       50
176
     1
 90
        3
176
     1
 62
     5
420
      255
176
     1
290
     0
176
     1
 90
       50
176
     1
 90
       50
176
     1
 90
       50
176
     1
290
     0
176
     1
 90
       50
176
     1
 62
   256
176
     0
 40
1.0
176
     0
 90
        2
176
     1
  1
strokes_ogs.tif
176
     1
290
     0
176
     1
 40
1.0
176
     1
 40
1.0
176
     1
  0
VISUALSTYLE
  5
E9
102
{ACAD_REACTORS
330
99
102
}
330
99
100
AcDbVisualStyle
  2
Sketchy
 70
    24
177
     3
291
     0
 70
    58
 90
        1
176
     1
 90
        2
176
     1
 90
        2
176
     1
 90
        0
176
     1
 40
0.6
176
     1
 40
30.0
176
     1
 62
     7
420
 16777215
176
     1
 90
        2
176
     1
 90
        2
176
     1
 62
     7
176
     1
 62
     7
176
     1
 90
        1
176
     1
 90
        1
176
     1
 40
40.0
176
     1
 90
       11
176
     1
 62
     7
176
     1
 40
1.0
176
     1
 90
        1
176
     1
 90
        6
176
     1
 90
        2
176
     1
 62
     7
176
     1
 90
        6
176
     1
 90
        0
176
     1
 90
        0
176
     1
290
     0
176
     1
 90
        1
176
     1
 40
0.0
176
     1
 90
        0
176
     1
290
     0
176
     1
290
     1
176
     1
290
     1
176
     1
290
     0
176
     1
290
     0
176
     1
290
     0
176
     1
290
     0
176
     1
290
     0
176
     1
290
     0
176
     1
 90
       50
176
     1
 40
0.0
176
     1
 40
1.0
176
     1
 90
        0
176
     1
 62
   178
420
        0
176
     1
 90
       50
176
     1
 90
        3
176
     1
 62
     5
420
      255
176
     1
290
     0
176
     1
 90
       50
176
     1
 90
       50
176
     1
 90
       50
176
     1
290
     0
176
     1
 90
       50
176
     1
 62
   256
176
     0
 40
1.0
176
     0
 90
        2
176
     1
  1
strokes_ogs.tif
176
     1
290
     0
176
     1
 40
1.0
176
     1
 40
1.0
176
     1
  0
VISUALSTYLE
  5
A6
102
{ACAD_REACTORS
330
99
102
}
330
99
100
AcDbVisualStyle
  2
Thicken
 70
    13
177
     3
291
     1
 70
    58
 90
        2
176
     1
 90
        2
176
     1
 90
        1
176
     1
 90
        0
176
     1
 40
-0.6
176
     1
 40
-30.0
176
     1
 62
     7
420
 16777215
176
     1
 90
        1
176
     1
 90
        4
176
     1
 62
     7
176
     1
 62
   257
176
     1
 90
        1
176
     1
 90
        1
176
     1
 40
1.0
176
     1
 90
       12
176
     1
 62
     7
176
     1
 40
1.0
176
     1
 90
        1
176
     1
 90
        6
176
     1
 90
        2
176
     1
 62
     7
176
     1
 90
        5
176
     1
 90
        0
176
     1
 90
        0
176
     1
290
     0
176
     1
 90
        1
176
     1
 40
0.0
176
     1
 90
        0
176
     1
290
     0
176
     1
290
     1
176
     1
290
     1
176
     1
290
     0
176
     1
290
     0
176
     1
290
     0
176
     1
290
     0
176
     1
290
     0
176
     1
290
     0
176
     1
 90
       50
176
     1
 40
0.0
176
     1
 40
1.0
176
     1
 90
        0
176
     1
 62
   178
420
        0
176
     1
 90
       50
176
     1
 90
        3
176
     1
 62
     5
420
      255
176
     1
290
     0
176
     1
 90
       50
176
     1
 90
       50
176
     1
 90
       50
176
     1
290
     0
176
     1
 90
       50
176
     1
 62
   256
176
     0
 40
1.0
176
     0
 90
        2
176
     1
  1
strokes_ogs.tif
176
     1
290
     0
176
     1
 40
1.0
176
     1
 40
1.0
176
     1
  0
VISUALSTYLE
  5
E3
102
{ACAD_REACTORS
330
99
102
}
330
99
100
AcDbVisualStyle
  2
Wireframe
 70
     5
177
     3
291
     0
 70
    58
 90
        0
176
     1
 90
        2
176
     1
 90
        0
176
     1
 90
        0
176
     1
 40
0.6
176
     1
 40
30.0
176
     1
 62
     7
420
 16777215
176
     1
 90
        1
176
     1
 90
        4
176
     1
 62
     7
176
     1
 62
   257
176
     1
 90
        1
176
     1
 90
        1
176
     1
 40
1.0
176
     1
 90
        0
176
     1
 62
   257
176
     1
 40
1.0
176
     1
 90
        1
176
     1
 90
        6
176
     1
 90
        2
176
     1
 62
     7
176
     1
 90
        3
176
     1
 90
        0
176
     1
 90
        0
176
     1
290
     0
176
     1
 90
        1
176
     1
 40
0.0
176
     1
 90
        0
176
     1
290
     0
176
     1
290
     1
176
     1
290
     1
176
     1
290
     0
176
     1
290
     0
176
     1
290
     0
176
     1
290
     0
176
     1
290
     0
176
     1
290
     0
176
     1
 90
       50
176
     1
 40
0.0
176
     1
 40
1.0
176
     1
 90
        0
176
     1
 62
   178
420
        0
176
     1
 90
       50
176
     1
 90
        3
176
     1
 62
     5
420
      255
176
     1
290
     0
176
     1
 90
       50
176
     1
 90
       50
176
     1
 90
       50
176
     1
290
     0
176
     1
 90
       50
176
     1
 62
   256
176
     0
 40
1.0
176
     0
 90
        2
176
     1
  1
strokes_ogs.tif
176
     1
290
     0
176
     1
 40
1.0
176
     1
 40
1.0
176
     1
  0
VISUALSTYLE
  5
EA
102
{ACAD_REACTORS
330
99
102
}
330
99
100
AcDbVisualStyle
  2
X-Ray
 70
    25
177
     3
291
     0
 70
    58
 90
        2
176
     1
 90
        2
176
     1
 90
        1
176
     1
 90
        1
176
     1
 40
0.5
176
     1
 40
30.0
176
     1
 62
     7
420
 16777215
176
     1
 90
        1
176
     1
 90
        0
176
     1
 62
     7
176
     1
 62
   257
176
     1
 90
        1
176
     1
 90
        1
176
     1
 40
1.0
176
     1
 90
        8
176
     1
 62
     7
176
     1
 40
1.0
176
     1
 90
        1
176
     1
 90
        6
176
     1
 90
        2
176
     1
 62
     7
176
     1
 90
        3
176
     1
 90
        0
176
     1
 90
        0
176
     1
290
     0
176
     1
 90
       13
176
     1
 40
0.0
176
     1
 90
        0
176
     1
290
     0
176
     1
290
     1
176
     1
290
     1
176
     1
290
     0
176
     1
290
     0
176
     1
290
     0
176
     1
290
     0
176
     1
290
     0
176
     1
290
     0
176
     1
 90
       50
176
     1
 40
0.0
176
     1
 40
1.0
176
     1
 90
        0
176
     1
 62
   178
420
        0
176
     1
 90
       50
176
     1
 90
        3
176
     1
 62
     5
420
      255
176
     1
290
     0
176
     1
 90
       50
176
     1
 90
       50
176
     1
 90
       50
176
     1
290
     0
176
     1
 90
       50
176
     1
 62
   256
176
     0
 40
1.0
176
     0
 90
        2
176
     1
  1
strokes_ogs.tif
176
     1
290
     0
176
     1
 40
1.0
176
     1
 40
1.0
176
     1
  0
DICTIONARYVAR
  5
D8
102
{ACAD_REACTORS
330
66
102
}
330
66
100
DictionaryVariables
280
     0
  1
1:1
  0
DICTIONARYVAR
  5
12D
102
{ACAD_REACTORS
330
66
102
}
330
66
100
DictionaryVariables
280
     0
  1
Standard
  0
DICTIONARYVAR
  5
89
102
{ACAD_REACTORS
330
66
102
}
330
66
100
DictionaryVariables
280
     0
  1
Standard
  0
DICTIONARYVAR
  5
67
102
{ACAD_REACTORS
330
66
102
}
330
66
100
DictionaryVariables
280
     0
  1
2
  0
DICTIONARYVAR
  5
6B
102
{ACAD_REACTORS
330
66
102
}
330
66
100
DictionaryVariables
280
     0
  1
1
  0
DICTIONARYVAR
  5
DF
102
{ACAD_REACTORS
330
66
102
}
330
66
100
DictionaryVariables
280
     0
  1
0
  0
DICTIONARYVAR
  5
E0
102
{ACAD_REACTORS
330
66
102
}
330
66
100
DictionaryVariables
280
     0
  1
0
  0
DICTIONARY
  5
92C
330
87
100
AcDbDictionary
280
     1
281
     1
  3
ACAD_ROUNDTRIP_2008_TABLESTYLE_CELLSTYLEMAP
360
92D
  0
CELLSTYLEMAP
  5
92D
102
{ACAD_REACTORS
330
92C
102
}
330
92C
100
AcDbCellStyleMap
 90
        3
300
CELLSTYLE
  1
TABLEFORMAT_BEGIN
 90
        5
170
     1
 91
        0
 92
    32768
 62
   257
 93
        1
300
CONTENTFORMAT
  1
CONTENTFORMAT_BEGIN
 90
        0
 91
        0
 92
      512
 93
        0
300

 40
0.0
140
1.0
 94
        5
 62
     0
340
11
144
0.25
309
CONTENTFORMAT_END
171
     0
 94
        6
 95
        1
302
GRIDFORMAT
  1
GRIDFORMAT_BEGIN
 90
        0
 91
        1
 62
     0
 92
       -2
340
0
 93
        0
 40
0.045
309
GRIDFORMAT_END
 95
        2
302
GRIDFORMAT
  1
GRIDFORMAT_BEGIN
 90
        0
 91
        1
 62
     0
 92
       -2
340
0
 93
        0
 40
0.045
309
GRIDFORMAT_END
 95
        4
302
GRIDFORMAT
  1
GRIDFORMAT_BEGIN
 90
        0
 91
        1
 62
     0
 92
       -2
340
0
 93
        0
 40
0.045
309
GRIDFORMAT_END
 95
        8
302
GRIDFORMAT
  1
GRIDFORMAT_BEGIN
 90
        0
 91
        1
 62
     0
 92
       -2
340
0
 93
        0
 40
0.045
309
GRIDFORMAT_END
 95
       16
302
GRIDFORMAT
  1
GRIDFORMAT_BEGIN
 90
        0
 91
        1
 62
     0
 92
       -2
340
0
 93
        0
 40
0.045
309
GRIDFORMAT_END
 95
       32
302
GRIDFORMAT
  1
GRIDFORMAT_BEGIN
 90
        0
 91
        1
 62
     0
 92
       -2
340
0
 93
        0
 40
0.045
309
GRIDFORMAT_END
309
TABLEFORMAT_END
  1
CELLSTYLE_BEGIN
 90
        1
 91
        1
300
_TITLE
309
CELLSTYLE_END
300
CELLSTYLE
  1
TABLEFORMAT_BEGIN
 90
        5
170
     1
 91
        0
 92
        0
 62
   257
 93
        1
300
CONTENTFORMAT
  1
CONTENTFORMAT_BEGIN
 90
        0
 91
        0
 92
      512
 93
        0
300

 40
0.0
140
1.0
 94
        5
 62
     0
340
11
144
0.18
309
CONTENTFORMAT_END
171
     0
 94
        6
 95
        1
302
GRIDFORMAT
  1
GRIDFORMAT_BEGIN
 90
        0
 91
        1
 62
     0
 92
       -2
340
0
 93
        0
 40
0.045
309
GRIDFORMAT_END
 95
        2
302
GRIDFORMAT
  1
GRIDFORMAT_BEGIN
 90
        0
 91
        1
 62
     0
 92
       -2
340
0
 93
        0
 40
0.045
309
GRIDFORMAT_END
 95
        4
302
GRIDFORMAT
  1
GRIDFORMAT_BEGIN
 90
        0
 91
        1
 62
     0
 92
       -2
340
0
 93
        0
 40
0.045
309
GRIDFORMAT_END
 95
        8
302
GRIDFORMAT
  1
GRIDFORMAT_BEGIN
 90
        0
 91
        1
 62
     0
 92
       -2
340
0
 93
        0
 40
0.045
309
GRIDFORMAT_END
 95
       16
302
GRIDFORMAT
  1
GRIDFORMAT_BEGIN
 90
        0
 91
        1
 62
     0
 92
       -2
340
0
 93
        0
 40
0.045
309
GRIDFORMAT_END
 95
       32
302
GRIDFORMAT
  1
GRIDFORMAT_BEGIN
 90
        0
 91
        1
 62
     0
 92
       -2
340
0
 93
        0
 40
0.045
309
GRIDFORMAT_END
309
TABLEFORMAT_END
  1
CELLSTYLE_BEGIN
 90
        2
 91
        1
300
_HEADER
309
CELLSTYLE_END
300
CELLSTYLE
  1
TABLEFORMAT_BEGIN
 90
        5
170
     1
 91
        0
 92
        0
 62
   257
 93
        1
300
CONTENTFORMAT
  1
CONTENTFORMAT_BEGIN
 90
        0
 91
        0
 92
      512
 93
        0
300

 40
0.0
140
1.0
 94
        2
 62
     0
340
11
144
0.18
309
CONTENTFORMAT_END
171
     0
 94
        6
 95
        1
302
GRIDFORMAT
  1
GRIDFORMAT_BEGIN
 90
        0
 91
        1
 62
     0
 92
       -2
340
0
 93
        0
 40
0.045
309
GRIDFORMAT_END
 95
        2
302
GRIDFORMAT
  1
GRIDFORMAT_BEGIN
 90
        0
 91
        1
 62
     0
 92
       -2
340
0
 93
        0
 40
0.045
309
GRIDFORMAT_END
 95
        4
302
GRIDFORMAT
  1
GRIDFORMAT_BEGIN
 90
        0
 91
        1
 62
     0
 92
       -2
340
0
 93
        0
 40
0.045
309
GRIDFORMAT_END
 95
        8
302
GRIDFORMAT
  1
GRIDFORMAT_BEGIN
 90
        0
 91
        1
 62
     0
 92
       -2
340
0
 93
        0
 40
0.045
309
GRIDFORMAT_END
 95
       16
302
GRIDFORMAT
  1
GRIDFORMAT_BEGIN
 90
        0
 91
        1
 62
     0
 92
       -2
340
0
 93
        0
 40
0.045
309
GRIDFORMAT_END
 95
       32
302
GRIDFORMAT
  1
GRIDFORMAT_BEGIN
 90
        0
 91
        1
 62
     0
 92
       -2
340
0
 93
        0
 40
0.045
309
GRIDFORMAT_END
309
TABLEFORMAT_END
  1
CELLSTYLE_BEGIN
 90
        3
 91
        2
300
_DATA
309
CELLSTYLE_END
  0
ENDSEC
  0
EOF
